<svg width="197" height="64" viewBox="0 0 197 64" fill="none" xmlns="http://www.w3.org/2000/svg">
<path d="M55.9786 53.2602L56.3283 53.502L55.9334 53.6934C48.4313 57.4816 39.282 62.0052 36.6647 63.3049L35.6043 63.8187L30.4599 55.5673L30.7758 55.4565C31.2383 55.2953 31.6783 55.1241 32.1183 54.9427L32.3665 54.8419L32.5921 55.0233L36.4729 61.2194C39.8574 59.5671 47.6867 55.6681 54.3992 52.2829L54.5797 52.1922L54.7489 52.3232C55.1325 52.6456 55.5612 52.968 55.9786 53.2602ZM19.4718 34.0171L19.1785 33.4025L18.8851 33.6745C18.4541 34.0673 18.0755 34.5035 17.757 34.9742L17.6667 35.1152L17.757 35.2462L17.8585 35.4275C17.9006 35.5113 17.9496 35.5921 18.0052 35.6693L23.2849 44.1121H23.4767C24.0443 44.0627 24.6042 43.9579 25.1464 43.7998L25.4961 43.6991C25.4961 43.6991 19.8554 34.7525 19.8554 34.7122C19.7313 34.4906 19.6072 34.2589 19.4718 34.0171ZM66.5606 21.4133L66.2447 21.3126L66.1093 21.5443C65.8724 21.9473 65.6468 22.3704 65.4324 22.8238L65.3196 23.0555L65.5791 23.1663C68.0283 24.2302 70.0954 25.8847 71.5468 27.9429C72.9982 30.001 73.7759 32.3807 73.792 34.813C73.9283 37.5325 72.9042 40.1969 70.9265 42.2684L70.3286 42.9031L71.2311 42.6916C72.466 42.382 73.5821 41.7756 74.4576 40.9385C75.5036 39.0346 76.0184 36.933 75.958 34.813C75.9465 32.0191 75.0604 29.2837 73.3998 26.9159C71.7392 24.548 69.3703 22.6421 66.5606 21.4133ZM39.6994 16.8594C41.4935 17.8091 43.0364 19.094 44.2222 20.626C45.4081 22.1581 46.209 23.9011 46.5698 25.7355L46.9647 27.7001L47.7205 26.9344V26.8638C47.9123 25.8564 48.1154 25.0101 48.341 24.2041V24.1335V24.0731C47.5068 21.3206 45.8024 18.8411 43.4315 16.9311C41.0607 15.0211 38.1239 13.7615 34.9725 13.303H34.8033L33.0434 15.0762L33.63 15.1265C35.7729 15.291 37.8471 15.8832 39.6994 16.8594Z" fill="#EB5757"/>
<path d="M74.4576 2.17026C62.2285 2.17026 51.8947 10.472 48.0252 23.3276L47.7995 24.1236C47.5739 24.9195 47.3821 25.7759 47.1791 26.743V26.8136L46.9873 27.7505V27.6901C46.7391 29.0804 46.5811 30.4708 46.4683 31.851C44.7648 24.7986 38.4472 20.1943 29.9184 20.1943C29.4785 20.1943 29.0836 20.1943 28.7113 20.1943L33.709 15.1569L35.4238 13.424L40.523 8.21523L28.1134 0.155273L11.5409 18.6428C6.23865 24.5769 4.06133 27.4684 2.25629 31.0047C0.856697 33.7805 0.0897011 36.7772 0 39.8203C0 50.4192 8.47237 57.5824 21.0399 57.5824C24.3435 57.5876 27.6215 57.0656 30.7194 56.041L30.9563 55.9604L31.2835 55.8496C31.5655 55.7488 31.8701 55.638 32.186 55.507L32.4229 55.4063L32.7162 55.2854C36.4535 53.7889 39.7027 51.4675 42.1579 48.5398C44.6132 45.6122 46.1936 42.1746 46.7504 38.5509C47.5965 44.2734 50.1348 49.059 54.0382 52.4341L54.3428 52.686L54.5007 52.817C54.7602 53.0286 55.0197 53.2301 55.2904 53.4215L55.6402 53.6633L55.7981 53.7741C59.4081 56.2083 63.8199 57.5051 68.3431 57.4615C84.374 57.4615 96.4678 43.6891 96.4678 25.4333C96.4452 11.54 87.6231 2.17026 74.4576 2.17026ZM1.87272 39.8304C1.9252 37.0274 2.6081 34.2625 3.88082 31.6999C5.64073 28.3047 7.78421 25.4938 12.985 19.6704L28.4406 2.42214L37.8042 8.51748L33.2239 13.1419H32.3101C29.5465 13.1346 26.8244 13.7425 24.39 14.9107C21.9556 16.0789 19.8855 17.7705 18.3671 19.8326C16.8486 21.8948 15.9295 24.2624 15.693 26.7214C15.4565 29.1804 15.91 31.6532 17.0124 33.9164C16.0501 35.2159 15.479 36.7149 15.3541 38.2688V38.8229C15.2938 39.6851 15.4385 40.5489 15.7786 41.3576C16.1186 42.1664 16.6463 42.9017 17.3271 43.5154C18.0079 44.1291 18.8264 44.6073 19.7287 44.9185C20.6311 45.2297 21.597 45.367 22.5629 45.3212C23.0206 45.3185 23.4772 45.2814 23.928 45.2104L29.8056 54.56C26.9916 55.4541 24.0267 55.9107 21.0399 55.91C9.57796 55.8899 1.87272 49.4318 1.87272 39.8304ZM24.9884 43.3063C24.4862 43.4519 23.9681 43.5498 23.4429 43.5984H22.9916C22.864 43.6081 22.7357 43.6081 22.608 43.5984C21.8846 43.6447 21.1584 43.5517 20.4787 43.3257C19.799 43.0997 19.1815 42.7459 18.6681 42.2884C18.1547 41.8308 17.7573 41.2801 17.5028 40.6736C17.2483 40.067 17.1426 39.4187 17.1929 38.7725V38.4401C17.3016 37.3365 17.6872 36.269 18.3211 35.3168C18.6021 34.883 18.935 34.4776 19.3139 34.1078C19.977 33.4711 20.7802 32.9634 21.6731 32.6167C22.5661 32.27 23.5296 32.0916 24.5033 32.0928C25.2362 32.0482 25.9714 32.1442 26.6593 32.3744C27.3472 32.6047 27.9719 32.9639 28.4913 33.4278C29.0108 33.8917 29.413 34.4496 29.6708 35.0639C29.9286 35.6782 30.0362 36.3347 29.9861 36.9893C30.0191 38.3811 29.5515 39.7457 28.652 40.8827C27.7525 42.0197 26.4684 42.8691 24.9884 43.3063ZM31.825 53.7943L26.1279 44.7268C27.8362 44.1011 29.2936 43.0299 30.3099 41.6532C31.3262 40.2765 31.8542 38.6582 31.825 37.0094C31.896 36.1286 31.7553 35.2444 31.4125 34.4161C31.0696 33.5878 30.5324 32.8346 29.8369 32.2068C29.1415 31.579 28.3038 31.0913 27.38 30.7762C26.4563 30.4612 25.4678 30.3261 24.4808 30.3801C22.3452 30.3797 20.2801 31.0623 18.6595 32.3044C17.9741 30.6092 17.6939 28.8045 17.8369 27.0066C17.98 25.2088 18.5431 23.4576 19.4901 21.8659C20.437 20.2743 21.7468 18.8774 23.335 17.7652C24.9232 16.6531 26.7546 15.8503 28.7113 15.4087C29.5583 15.2214 30.4234 15.1067 31.2948 15.0662L23.7588 22.6828L24.7177 22.4511C26.4137 21.9876 28.1786 21.7566 29.9523 21.766C39.0338 21.7962 45.1258 27.3576 45.1258 35.6997C45.1136 39.543 43.8495 43.3001 41.4878 46.513C39.1261 49.7259 35.7687 52.2558 31.825 53.7943ZM48.217 34.5914C48.21 31.5201 48.5692 28.4568 49.2887 25.4535C51.2231 23.7808 53.6468 22.6297 56.2811 22.1324C58.9154 21.6352 61.6534 21.812 64.1802 22.6425C62.7155 26.0769 61.992 29.7279 62.048 33.4026V34.1784C62.2737 39.9916 64.8797 43.548 69.0538 43.9208L68.9636 43.9913C67.7904 44.9387 66.5465 45.8139 65.2407 46.6108C64.3946 47.1347 61.1568 48.8172 55.6402 51.6483C51.6014 48.384 49.0969 43.5078 48.3975 37.5434C48.2614 36.5643 48.2011 35.5779 48.217 34.5914ZM73.9951 40.6364C73.1912 41.3723 72.1829 41.9042 71.0732 42.1779C70.658 42.2825 70.2297 42.34 69.7984 42.3491C66.3124 42.3491 64.1577 39.3266 63.9207 34.1683V33.4026C63.8446 29.854 64.542 26.3261 65.974 23.0153C66.177 22.5821 66.3914 22.169 66.6283 21.7761C68.298 18.9148 70.5655 17.333 73.0023 17.333C76.7252 17.333 78.9477 20.7787 78.9477 26.5617C78.9702 32.516 77.0749 37.8658 73.9951 40.6364ZM68.3544 55.8193C64.4936 55.8755 60.7102 54.8502 57.5354 52.8875C62.6121 50.3184 65.6468 48.7366 66.5606 48.1926C68.8139 46.8741 70.8558 45.2878 72.63 43.4775C77.5149 41.5532 80.7865 34.7929 80.7865 26.6121C80.7865 19.9022 77.7969 15.7311 72.991 15.7311C69.8774 15.7311 67.0796 17.5748 65.094 20.9197C62.6622 20.0973 60.0458 19.8045 57.4619 20.0655C54.878 20.3266 52.401 21.134 50.2363 22.4209C54.151 10.9455 63.4131 3.85278 74.4576 3.85278C86.4837 3.85278 94.5612 12.5273 94.5612 25.4434C94.595 42.7622 83.3023 55.8193 68.3205 55.8193H68.3544Z" fill="white"/>
<path d="M74.4576 2.17026C62.206 2.17026 51.8947 10.472 48.0026 23.3276L47.777 24.1236C47.5514 24.9195 47.3483 25.7759 47.1565 26.743V26.8136L46.9647 27.7505V27.6901C46.7165 29.0804 46.5586 30.4708 46.4458 31.851C44.7423 24.7986 38.4247 20.1943 29.8959 20.1943C29.4559 20.1943 29.061 20.1943 28.6775 20.1943L33.6752 15.1569L35.3899 13.424L40.5005 8.21523L28.0908 0.155273L11.5184 18.6428C6.21609 24.5769 4.03876 27.4684 2.17732 31.0047C0.804906 33.7855 0.0648051 36.782 0 39.8203C0 50.4192 8.44981 57.5824 21.0174 57.5824C24.3209 57.5876 27.5989 57.0656 30.6969 56.041L30.9338 55.9604L31.2609 55.8496C31.543 55.7488 31.8476 55.638 32.1634 55.507L32.4004 55.4063L32.6937 55.2854C36.4309 53.7889 39.6802 51.4675 42.1354 48.5398C44.5906 45.6122 46.171 42.1746 46.7278 38.5509C47.5739 44.2734 50.1123 49.059 54.0156 52.4341L54.3202 52.686L54.4782 52.817C54.7377 53.0286 54.9971 53.2301 55.2679 53.4215L55.6176 53.6633L55.7755 53.7741C59.3856 56.2083 63.7973 57.5051 68.3205 57.4615C84.3515 57.4615 96.4452 43.6891 96.4452 25.4333C96.4227 11.54 87.6005 2.17026 74.4576 2.17026ZM1.85016 39.8304C1.90264 37.0274 2.58554 34.2625 3.85826 31.6999C5.64073 28.3047 7.76165 25.4938 12.9624 19.6704L28.418 2.42214L37.7816 8.51748L33.2013 13.1419H32.2875C29.5239 13.1346 26.8019 13.7425 24.3674 14.9107C21.933 16.0789 19.863 17.7705 18.3445 19.8326C16.826 21.8948 15.907 24.2624 15.6705 26.7214C15.4339 29.1804 15.8874 31.6532 16.9899 33.9164C16.0268 35.2163 15.452 36.7146 15.3202 38.2688V38.8229C15.2614 39.6874 15.4081 40.5532 15.7508 41.3634C16.0935 42.1736 16.6244 42.9098 17.3085 43.5237C17.9927 44.1375 18.8146 44.615 19.7202 44.9249C20.6258 45.2347 21.5947 45.3698 22.5629 45.3212C23.0206 45.3185 23.4772 45.2814 23.928 45.2104L29.7831 54.56C26.969 55.4541 24.0042 55.9107 21.0174 55.91C9.5554 55.8899 1.85016 49.4318 1.85016 39.8304ZM24.9659 43.3063C24.4636 43.4519 23.9456 43.5498 23.4203 43.5984H22.9691C22.8414 43.6081 22.7131 43.6081 22.5855 43.5984C21.862 43.6447 21.1359 43.5517 20.4561 43.3257C19.7764 43.0997 19.1589 42.7459 18.6455 42.2884C18.1321 41.8308 17.7347 41.2801 17.4802 40.6736C17.2257 40.067 17.1201 39.4187 17.1704 38.7725V38.4401C17.2735 37.3355 17.6595 36.267 18.2985 35.3168C18.5795 34.883 18.9124 34.4776 19.2913 34.1078C19.9544 33.4711 20.7576 32.9634 21.6506 32.6167C22.5435 32.27 23.5071 32.0916 24.4808 32.0928C25.2137 32.0482 25.9488 32.1442 26.6367 32.3744C27.3246 32.6047 27.9493 32.9639 28.4688 33.4278C28.9882 33.8917 29.3904 34.4496 29.6482 35.0639C29.9061 35.6782 30.0136 36.3347 29.9636 36.9893C29.9966 38.3811 29.529 39.7457 28.6294 40.8827C27.7299 42.0197 26.4459 42.8691 24.9659 43.3063ZM31.7912 53.7943L26.1504 44.7268C27.8588 44.1011 29.3162 43.0299 30.3325 41.6532C31.3488 40.2765 31.8768 38.6582 31.8476 37.0094C31.905 36.136 31.7547 35.2617 31.4065 34.4439C31.0583 33.6261 30.5201 32.8835 29.8274 32.2648C29.1346 31.6462 28.3031 31.1656 27.3874 30.8546C26.4717 30.5437 25.4926 30.4094 24.5146 30.4607C22.379 30.4602 20.3139 31.1429 18.6934 32.385C18.008 30.6898 17.7278 28.8851 17.8708 27.0872C18.0138 25.2894 18.577 23.5382 19.5239 21.9465C20.4708 20.3549 21.7806 18.958 23.3688 17.8458C24.957 16.7337 26.7885 15.9309 28.7452 15.4893C29.5921 15.302 30.4572 15.1873 31.3286 15.1468L23.6911 22.7131L24.6387 22.4813C26.3387 22.0183 28.1073 21.7874 29.8846 21.7962C38.9098 21.7962 45.0582 27.3878 45.0582 35.6997C45.0502 39.5399 43.7917 43.2952 41.4361 46.5079C39.0805 49.7207 35.7294 52.2523 31.7912 53.7943ZM48.1944 34.5914C48.206 31.5183 48.5841 28.455 49.3226 25.4535C51.2569 23.7808 53.6806 22.6297 56.3149 22.1324C58.9493 21.6352 61.6873 21.812 64.2141 22.6425C62.7378 26.0749 62.0028 29.7259 62.048 33.4026V34.1784C62.2737 39.9916 64.8797 43.548 69.0538 43.9208L68.9636 43.9913C67.7904 44.9387 66.5466 45.8139 65.2407 46.6108C64.3946 47.1347 61.1568 48.8172 55.6402 51.6483C51.6014 48.384 49.0969 43.5078 48.3975 37.5434C48.248 36.5652 48.1801 35.5785 48.1944 34.5914ZM73.9725 40.6364C73.173 41.367 72.1735 41.8984 71.0732 42.1779C70.6543 42.2832 70.2222 42.3407 69.7871 42.3491C66.3124 42.3491 64.1464 39.3266 63.9208 34.1683V33.4026C63.8447 29.854 64.542 26.3261 65.974 23.0153C66.1771 22.5821 66.3914 22.169 66.6283 21.7761C68.298 18.9148 70.5543 17.333 72.9911 17.333C76.7139 17.333 78.9702 20.7787 78.9702 26.5617C78.9702 32.516 77.0524 37.8658 73.9725 40.6364ZM68.3318 55.8193C64.4788 55.8713 60.7039 54.8462 57.5355 52.8875C62.6121 50.3184 65.6468 48.7366 66.5606 48.1926C68.8059 46.8726 70.8401 45.2864 72.6075 43.4775C77.4924 41.5532 80.764 34.7929 80.764 26.6121C80.764 19.9022 77.7744 15.7311 72.9572 15.7311C69.8548 15.7311 67.057 17.5748 65.0602 20.9197C62.6318 20.0915 60.0174 19.7919 57.4336 20.046C54.8498 20.3 52.3709 21.1004 50.2025 22.3806C54.151 10.9455 63.3905 3.85278 74.4576 3.85278C86.4837 3.85278 94.5612 12.5273 94.5612 25.4434C94.5725 42.7622 83.2798 55.8193 68.298 55.8193H68.3318Z" fill="white"/>
<path d="M132.963 34.0174C132.963 37.0398 130.933 38.8231 127.548 38.8231H125.991L125.472 43.1856H121.366L122.878 30.2997H127.966C131.373 30.2997 132.963 31.4785 132.963 34.0174ZM128.8 34.3599C128.8 33.8864 128.642 33.3524 127.413 33.3524H126.646L126.352 35.7805H127.018C127.238 35.806 127.462 35.7898 127.674 35.733C127.887 35.6762 128.083 35.58 128.252 35.4507C128.42 35.3215 128.556 35.162 128.65 34.9827C128.745 34.8035 128.796 34.6084 128.8 34.4103V34.3599ZM147.358 36.0525C147.37 38.0059 146.515 39.884 144.98 41.2757C143.445 42.6673 141.355 43.4591 139.168 43.4777C138.27 43.5207 137.372 43.3933 136.533 43.1037C135.694 42.8142 134.934 42.3691 134.302 41.7979C133.67 41.2267 133.18 40.5424 132.866 39.79C132.552 39.0375 132.419 38.2341 132.478 37.4328C132.478 37.201 132.478 36.9895 132.478 36.7779C132.648 34.9391 133.585 33.2245 135.105 31.9741C136.624 30.7238 138.614 30.029 140.68 30.0277C141.573 29.9912 142.466 30.1226 143.299 30.4133C144.132 30.704 144.888 31.1475 145.518 31.7153C146.147 32.2831 146.636 32.9625 146.953 33.7095C147.27 34.4566 147.408 35.2548 147.358 36.0525ZM143.195 36.3749C143.225 36.0213 143.172 35.6661 143.041 35.3314C142.91 34.9967 142.703 34.6898 142.433 34.4298C142.163 34.1698 141.836 33.9623 141.472 33.8202C141.108 33.6782 140.716 33.6047 140.319 33.6043C139.323 33.6609 138.39 34.0558 137.71 34.7078C137.03 35.3598 136.656 36.2195 136.664 37.1104C136.633 37.4662 136.684 37.824 136.814 38.1615C136.944 38.499 137.15 38.809 137.42 39.0725C137.69 39.336 138.017 39.5472 138.382 39.6932C138.746 39.8392 139.141 39.9168 139.54 39.9213C140.531 39.8577 141.458 39.4622 142.136 38.8138C142.814 38.1655 143.192 37.3123 143.195 36.4253V36.3749ZM157.207 39.1455C156.489 39.6983 155.571 39.9991 154.624 39.9918C154.201 40.0139 153.779 39.9557 153.383 39.8212C152.988 39.6866 152.629 39.4786 152.331 39.211C152.032 38.9434 151.801 38.6223 151.651 38.2689C151.502 37.9155 151.439 37.5378 151.465 37.1607C151.465 36.2175 151.884 35.3129 152.631 34.6459C153.378 33.979 154.391 33.6043 155.447 33.6043C156.31 33.5829 157.149 33.8568 157.794 34.37L158.008 34.5312L160.4 31.8512L160.185 31.7001C159.546 31.1516 158.788 30.725 157.958 30.4462C157.128 30.1674 156.243 30.0421 155.357 30.0781C153.18 30.1046 151.103 30.9012 149.582 32.2932C148.062 33.6851 147.221 35.5588 147.246 37.5033C147.182 38.2903 147.307 39.0804 147.61 39.8213C147.914 40.5623 148.39 41.2373 149.008 41.8019C149.625 42.3664 150.369 42.8077 151.191 43.0966C152.014 43.3854 152.895 43.5154 153.777 43.4777C155.673 43.4995 157.515 42.9212 158.978 41.8456L159.181 41.7146L157.467 38.9843L157.207 39.1455ZM168.59 38.9742L168.342 39.1455C167.623 39.6967 166.706 39.9973 165.758 39.9918C165.336 40.0138 164.913 39.9556 164.517 39.8211C164.121 39.6866 163.762 39.4788 163.462 39.2114C163.163 38.944 162.93 38.623 162.779 38.2696C162.629 37.9162 162.564 37.5383 162.588 37.1607C162.591 36.2166 163.013 35.312 163.762 34.6453C164.511 33.9787 165.525 33.6043 166.582 33.6043C167.445 33.5829 168.284 33.8568 168.928 34.37L169.143 34.5312L171.535 31.8512L171.32 31.7001C170.678 31.1518 169.918 30.7254 169.086 30.4467C168.254 30.1679 167.368 30.0425 166.48 30.0781C164.304 30.1073 162.229 30.9047 160.709 32.2961C159.189 33.6874 158.348 35.5596 158.369 37.5033C158.309 38.29 158.436 39.0791 158.742 39.8189C159.048 40.5586 159.525 41.2322 160.143 41.7955C160.761 42.3588 161.506 42.7989 162.328 43.0871C163.149 43.3753 164.03 43.505 164.912 43.4677C166.807 43.4885 168.649 42.9104 170.113 41.8355L170.316 41.7045L168.59 38.9742ZM179.871 30.2997L175.156 36.4756L175.889 30.2997H171.817L170.35 43.1856H174.355L179.059 37.0096L178.247 43.1856H182.353L183.888 30.2997H179.871ZM192.608 30.2997L187.904 36.4756L188.626 30.2997H184.519L182.996 43.1856H187.001L191.785 37.0096L191.063 43.1856H195.169L196.692 30.2997H192.608ZM116.91 38.7123C116.91 41.2713 114.653 42.9135 111.269 42.9135H105.346L106.869 30.0277H112.002C114.157 30.0277 116.639 30.3702 116.639 33.0502C116.664 33.6191 116.52 34.1838 116.221 34.6866C115.921 35.1893 115.478 35.612 114.935 35.9114C115.568 36.1171 116.107 36.5026 116.47 37.0087C116.832 37.5148 116.999 38.1134 116.944 38.7123H116.91ZM110.378 34.7831H111.111C111.968 34.7831 112.578 34.37 112.578 33.7756C112.578 33.564 112.578 33.0099 111.28 33.0099H110.592L110.378 34.7831ZM112.769 38.7123C112.769 38.1279 112.476 37.7048 111.066 37.7048H110.017L109.769 39.891H110.795C111.427 39.9213 112.815 39.8004 112.815 38.7123H112.769Z" fill="white"/>
<path d="M128.473 25.1111H115.251L113.649 18.2903C113.649 18.2097 113.649 18.1191 113.649 18.0082C113.62 18.1178 113.582 18.2255 113.537 18.3306L110.366 25.0909H105.854L112.589 12.2454H115.973L119.583 24.8592L121.095 12.2454H140.465L140.059 15.2678H136.979L135.851 25.1614H131.745L132.873 15.2678H124.852L124.638 16.9907H128.665L128.315 20.0131H124.277L124.028 22.2095H128.812L128.473 25.1111Z" fill="white"/>
</svg>
