<svg width="162" height="53" viewBox="0 0 162 53" fill="none" xmlns="http://www.w3.org/2000/svg">
<g clip-path="url(#clip0)">
<path d="M51.6674 26.0649C51.6674 40.1659 40.3571 51.5961 26.4048 51.5961C12.4515 51.5961 1.14111 40.1659 1.14111 26.0649C1.14111 11.9614 12.4515 0.529053 26.4048 0.529053C40.3568 0.529053 51.6674 11.9614 51.6674 26.0649Z" fill="#253776"/>
<path d="M49.3398 26.1321C49.3398 39.1329 38.9133 49.672 26.0511 49.672C13.1876 49.672 2.76111 39.1332 2.76111 26.1321C2.76111 13.1335 13.1876 2.59351 26.0511 2.59351C38.9136 2.59351 49.3398 13.1335 49.3398 26.1321Z" fill="#A2C037"/>
<path d="M44.7248 26.1842C44.7248 36.5164 36.4373 44.8937 26.2142 44.8937C15.9911 44.8937 7.70239 36.5164 7.70239 26.1842C7.70239 15.852 15.9908 7.47607 26.2142 7.47607C36.4376 7.47607 44.7248 15.852 44.7248 26.1842Z" fill="white"/>
<path d="M24.3167 29.8952L24.318 38.9397C24.3205 39.1355 24.263 39.2997 24.1446 39.4301C24.0321 39.5652 23.8853 39.6293 23.7059 39.6331L18.1351 39.6344C17.9533 39.6344 17.7967 39.5681 17.6702 39.4351C17.5458 39.3 17.4849 39.1393 17.4874 38.9447L17.4802 14.7989C17.4802 14.6057 17.5399 14.4377 17.668 14.3085C17.7958 14.1756 17.9454 14.1055 18.127 14.1055H25.1644C25.3462 14.1055 25.5015 14.1683 25.6259 14.3038C25.7527 14.438 25.8136 14.5997 25.8158 14.7954V19.4626C25.8158 19.6546 25.7524 19.8239 25.6268 19.9555C25.505 20.0907 25.3506 20.1561 25.1666 20.1608L24.3489 20.1573L24.3502 23.8399H25.1666C25.5968 23.8399 25.8158 24.0755 25.8193 24.5393V29.2018C25.8205 29.6597 25.5968 29.8952 25.1688 29.8952H24.3167Z" fill="#253776"/>
<path d="M27.4639 29.8456C27.2821 29.8456 27.1281 29.779 27.0012 29.6473C26.8769 29.5181 26.8134 29.3549 26.8122 29.1638V24.5702C26.8122 24.3805 26.8769 24.22 27.0012 24.0858C27.1243 23.9576 27.2821 23.8866 27.4627 23.8888L34.5326 23.8863C34.9654 23.8888 35.1841 24.1193 35.1781 24.5652V29.1635C35.1841 29.6129 34.9678 29.8402 34.5351 29.8402L27.4639 29.8456Z" fill="#253776"/>
<path d="M36.0464 14.8885C36.0464 14.8705 36.0426 14.8509 36.0426 14.8304V14.7868C36.0426 14.5898 35.9805 14.4269 35.8549 14.2961C35.7258 14.1657 35.574 14.1003 35.3959 14.1003L27.4224 14.1029C27.2406 14.1003 27.0959 14.1657 26.98 14.2999C26.8975 14.3905 26.8463 14.509 26.8247 14.6359C26.8141 14.6842 26.8091 14.7291 26.8091 14.7796L26.8125 16.1968L26.8091 19.2693C26.8091 19.286 26.8125 19.3056 26.8138 19.3236V19.3757C26.8125 19.5667 26.8772 19.731 27.0015 19.8626C27.1306 19.993 27.2824 20.0619 27.4643 20.0584L35.434 20.0572C35.6133 20.0584 35.7627 19.993 35.8764 19.8588C35.9564 19.7644 36.0101 19.6523 36.0295 19.5219C36.0392 19.4783 36.0464 19.4288 36.0464 19.3782V14.8885Z" fill="#253776"/>
<path d="M136.983 32.7565C136.984 35.1075 135.098 37.0141 132.771 37.0154C130.444 37.0154 128.554 35.1075 128.554 32.76C128.555 30.4103 130.44 28.5037 132.766 28.5037C135.095 28.5011 136.983 30.4091 136.983 32.7565Z" fill="white"/>
<path d="M148.944 32.7603C148.946 35.1065 147.06 37.0096 144.73 37.0156C142.4 37.0169 140.509 35.1077 140.515 32.7603C140.509 30.4093 142.397 28.5039 144.727 28.5039C147.06 28.5014 148.944 30.4093 148.944 32.7603Z" fill="white"/>
<path d="M160.903 32.7573C160.903 35.1082 159.014 37.0127 156.689 37.0149C154.364 37.0149 152.474 35.113 152.474 32.7585C152.47 30.4063 154.358 28.5022 156.683 28.5044C159.011 28.5009 160.901 30.4063 160.903 32.7573Z" fill="#253776"/>
<path d="M134.88 16.8746C133.82 15.7845 132.524 15.2329 131.029 15.2316C129.582 15.2329 128.319 15.7545 127.279 16.7837C126.239 17.8033 125.72 19.0402 125.72 20.4681L125.717 27.0969L127.369 27.0956L127.366 20.4691C127.366 19.4769 127.717 18.6565 128.444 17.9498C129.157 17.2478 130.025 16.886 131.026 16.886C132.089 16.886 132.989 17.2728 133.701 18.0284L133.854 18.198L135.04 17.0375L134.88 16.8746Z" fill="white"/>
<path d="M136.444 15.4482L136.451 27.0931L138.121 27.0956L138.115 15.4447L136.444 15.4482Z" fill="white"/>
<path d="M149.23 16.8686C148.172 15.7845 146.876 15.2269 145.381 15.2304C143.935 15.2291 142.671 15.7485 141.626 16.7777C140.598 17.7986 140.069 19.0342 140.069 20.4621L140.07 22.0562C140.073 23.4949 140.598 24.7425 141.632 25.7599C142.681 26.6804 143.942 27.1484 145.386 27.1484C146.894 27.1424 148.182 26.6387 149.23 25.65L149.397 25.489L148.215 24.3272L148.06 24.4895C147.306 25.2717 146.431 25.6513 145.385 25.6513C144.392 25.6513 143.545 25.3099 142.796 24.6054C142.073 23.8975 141.719 23.0616 141.719 22.0552V20.465C141.719 19.475 142.071 18.6464 142.792 17.947C143.512 17.2403 144.385 16.8819 145.381 16.8819C146.455 16.8819 147.33 17.2567 148.052 18.0256L148.212 18.1927L149.387 17.0309L149.23 16.8686Z" fill="white"/>
<path d="M121.543 24.5979C120.829 25.3011 119.957 25.6592 118.961 25.657C117.982 25.6595 117.11 25.3109 116.37 24.6134C115.659 23.8827 115.314 23.0446 115.315 22.0606V20.4726C115.312 19.4792 115.656 18.6566 116.372 17.9508C117.099 17.2368 117.945 16.8904 118.957 16.8882C119.971 16.8857 120.818 17.2356 121.545 17.9521C122.27 18.6566 122.621 19.4839 122.62 20.4679V22.0606C122.622 23.0515 122.276 23.8827 121.543 24.5979ZM122.694 16.7679C121.664 15.7508 120.404 15.2386 118.955 15.2386C117.509 15.2386 116.246 15.7628 115.203 16.7872C114.169 17.8033 113.646 19.045 113.647 20.4729L113.646 20.6662C113.613 20.6696 113.616 30.3434 113.616 30.3434L113.614 30.5667L115.265 30.5692C115.265 30.5692 115.259 26.5563 115.26 25.6835C115.675 26.0918 116.135 26.437 116.663 26.677C117.362 26.9921 118.137 27.1544 118.961 27.1484C120.39 27.1532 121.644 26.6886 122.687 25.7754C123.742 24.733 124.269 23.4901 124.273 22.0609L124.275 20.4682C124.272 19.0412 123.74 17.7958 122.694 16.7679Z" fill="white"/>
<path d="M153.124 17.9491L153.135 17.9371C153.851 17.2364 154.718 16.8818 155.716 16.8792C156.732 16.8792 157.575 17.2253 158.285 17.9383C158.995 18.6274 159.354 19.462 159.358 20.4267C158.933 20.4301 152.48 20.4254 152.058 20.4267C152.066 19.4598 152.411 18.6466 153.124 17.9491ZM158.394 24.485C157.656 25.2574 156.761 25.6502 155.722 25.6515C154.727 25.6515 153.883 25.3089 153.13 24.6031C152.416 23.8986 152.068 23.0725 152.063 22.0813C152.503 22.0835 161.035 22.0813 161.035 22.0813L161.029 20.4586C161.029 19.0019 160.503 17.7568 159.451 16.7526C158.416 15.739 157.166 15.2255 155.718 15.228C154.274 15.2255 153.01 15.745 151.963 16.7753C150.932 17.789 150.406 19.0306 150.404 20.4589V22.0516C150.404 23.4916 150.932 24.7345 151.963 25.7529C153.02 26.6806 154.281 27.1426 155.72 27.1391C157.224 27.1439 158.519 26.6389 159.563 25.6468L159.734 25.4857L158.551 24.3205L158.394 24.485Z" fill="white"/>
<path d="M66.9106 29.1577L66.9131 38.2009C66.9156 38.3979 66.855 38.5615 66.7369 38.6916C66.6222 38.8277 66.4732 38.8909 66.2898 38.8969L60.6449 38.8981C60.4615 38.8969 60.3031 38.829 60.1744 38.6976C60.0491 38.5628 59.9863 38.3992 59.9875 38.2034L59.9803 14.0661C59.9803 13.8716 60.0406 13.7055 60.1719 13.5754C60.3009 13.4415 60.4509 13.3711 60.6365 13.3711H67.7676C67.9545 13.3711 68.1116 13.4355 68.2382 13.5669C68.366 13.703 68.4272 13.8653 68.4284 14.0588V18.7295C68.4284 18.9231 68.3656 19.0876 68.2404 19.2215C68.1138 19.3576 67.9567 19.421 67.7733 19.4245L66.9422 19.422L66.9447 23.1043L67.7736 23.1065C68.2088 23.1043 68.431 23.337 68.4322 23.8002L68.4334 28.4674C68.4369 28.9246 68.2101 29.1586 67.7761 29.1586L66.9106 29.1577Z" fill="#253776"/>
<path d="M69.9572 29.1576C69.7728 29.1564 69.6166 29.0897 69.4879 28.9558C69.3626 28.8245 69.2986 28.6596 69.2986 28.4664V23.7979C69.2961 23.6044 69.3623 23.4399 69.4879 23.3072C69.6144 23.1711 69.7716 23.1029 69.955 23.1067L77.1205 23.1032C77.5592 23.1045 77.7816 23.3372 77.7779 23.7897L77.7766 28.4654C77.7813 28.9252 77.5614 29.1532 77.1252 29.1519L69.9572 29.1576Z" fill="#253776"/>
<path d="M81.2875 38.8975C81.1254 38.8953 80.9882 38.8284 80.8689 38.6932C80.7555 38.5597 80.6939 38.3948 80.6986 38.2L80.6939 21.1095C80.6914 20.9138 80.7448 20.7489 80.8476 20.6176C80.9529 20.4837 81.0829 20.417 81.251 20.417L86.1722 20.4136C86.3331 20.4136 86.4762 20.4827 86.6015 20.6179C86.7293 20.7505 86.7956 20.9163 86.7956 21.1099L86.8027 38.2003C86.7993 38.3926 86.7437 38.5596 86.6278 38.6923C86.5106 38.8262 86.3747 38.8906 86.2129 38.8953L81.2875 38.8975ZM81.2794 19.5076C81.1176 19.5063 80.9804 19.4372 80.8654 19.3024C80.7473 19.1697 80.6977 19.0087 80.6917 18.8104L80.6892 14.0608C80.6892 13.6023 80.8714 13.3696 81.2425 13.3658L86.1697 13.3645C86.3307 13.3658 86.4737 13.4349 86.6012 13.5698C86.729 13.7024 86.794 13.8682 86.7915 14.0557L86.7949 18.8101C86.7949 19.0036 86.7359 19.1682 86.6234 19.302C86.5062 19.4369 86.3691 19.5016 86.2047 19.5016L81.2794 19.5076Z" fill="#253776"/>
<path d="M106.88 23.8612C106.832 23.9114 106.756 23.9664 106.654 24.0248C106.548 24.087 106.449 24.1154 106.363 24.1154L96.8786 24.1214C96.8102 24.1202 96.7215 24.0905 96.5996 24.0283C96.4884 23.9699 96.4056 23.9111 96.3644 23.866L89.9415 14.4982C89.7831 14.2547 89.7619 14.0157 89.8731 13.7687C89.9912 13.5287 90.1865 13.4081 90.457 13.4081L97.1164 13.4068C97.2086 13.4068 97.3104 13.4425 97.4251 13.5167C97.5423 13.5859 97.6226 13.6456 97.6663 13.6936L101.567 20.0454L105.671 13.6566C105.712 13.6077 105.791 13.548 105.909 13.4728C106.021 13.4059 106.129 13.3677 106.226 13.3664L112.842 13.3652C113.141 13.3652 113.338 13.4833 113.447 13.728C113.546 13.9705 113.52 14.2102 113.358 14.4527L106.88 23.8612ZM107.539 38.8982C107.447 38.8969 107.339 38.8612 107.224 38.7918C107.115 38.7141 107.03 38.6415 106.987 38.5673C106.249 37.4282 105.441 36.1734 104.552 34.7956C103.666 33.4154 102.684 31.9028 101.605 30.2513L96.1941 38.5373C96.1469 38.5862 96.0663 38.6471 95.9504 38.7163C95.8382 38.7915 95.7339 38.8262 95.6395 38.8275L89.1232 38.83C88.8502 38.83 88.6539 38.7106 88.5393 38.4634C88.4174 38.2234 88.4446 37.9821 88.6068 37.7409L97.0849 25.3163C97.1333 25.2424 97.2126 25.1828 97.3295 25.136C97.4442 25.0896 97.5329 25.0631 97.6038 25.0643L105.639 25.0618C105.871 25.0618 106.037 25.1442 106.155 25.316L114.572 37.8037C114.735 38.045 114.761 38.2884 114.644 38.5297C114.527 38.7744 114.33 38.8916 114.058 38.8963L107.539 38.8982Z" fill="#253776"/>
<path d="M78.6402 17.2909L78.6427 14.1688C78.6427 14.1496 78.6393 14.1294 78.638 14.1104V14.064C78.638 13.8657 78.5765 13.6999 78.4478 13.5651C78.32 13.4337 78.165 13.3658 77.9832 13.3658L76.8931 13.3671C76.8884 13.3671 76.8824 13.3658 76.8765 13.3658L69.9156 13.3696C69.7301 13.3671 69.5845 13.434 69.4676 13.5714C69.3836 13.6658 69.3304 13.7804 69.3092 13.9127C69.2998 13.9592 69.2951 14.0081 69.2951 14.0596L69.2973 15.4982L69.2951 18.6203C69.2951 18.6396 69.2986 18.6573 69.2998 18.6787V18.7277C69.2986 18.9247 69.3626 19.0883 69.4888 19.2244C69.6188 19.357 69.7725 19.4249 69.9559 19.424L78.0235 19.4215C78.2069 19.424 78.3547 19.3545 78.4706 19.2197C78.5546 19.1253 78.6065 19.0072 78.6277 18.8783C78.6359 18.8306 78.6431 18.783 78.6431 18.7315L78.6402 17.2909Z" fill="#253776"/>
</g>
<defs>
<clipPath id="clip0">
<rect width="160.4" height="52.4946" fill="white" transform="translate(0.726196)"/>
</clipPath>
</defs>
</svg>
