<svg width="64" height="65" viewBox="0 0 64 65" fill="none" xmlns="http://www.w3.org/2000/svg">
<path d="M32 64.1553C49.6731 64.1553 64 49.8284 64 32.1553C64 14.4822 49.6731 0.155273 32 0.155273C14.3269 0.155273 0 14.4822 0 32.1553C0 49.8284 14.3269 64.1553 32 64.1553Z" fill="white"/>
<path d="M35.2209 17.1128C38.4766 16.6601 43.8563 15.5459 51.1512 17.1128C54.3721 17.8092 56.6703 18.7494 57.9238 19.3587C53.2056 9.80051 43.3514 3.23686 31.9825 3.23686C21.5364 3.21945 12.396 8.7559 7.31226 17.0432C8.73989 17.8614 10.5854 18.6797 12.8139 19.1324C20.7704 20.6993 31.9826 17.5481 35.2209 17.1128Z" fill="#F2494D"/>
<path d="M28.7617 47.2849C25.5059 47.7375 20.1262 48.8518 12.8313 47.2849C9.6104 46.5885 7.31225 45.6483 6.05872 45.0389C10.7769 54.5972 20.6311 61.1608 32 61.1608C42.4461 61.1608 51.5865 55.6244 56.6703 47.3371C55.2426 46.5188 53.3971 45.7005 51.1686 45.2479C43.2296 43.6984 32.0174 46.8322 28.7617 47.2849Z" fill="#3A6698"/>
<path d="M51.2209 39.5558V31.9475L48.4527 39.5558H45.8585V24.8093H48.5571V32.1739L51.3079 24.8093H53.9195V39.5558H51.2209Z" fill="#3A6698"/>
<path d="M14.6593 39.5564V27.4737H12.779V39.5564H10.0804V24.8099L10.359 24.7925H17.3405V24.8099L17.3579 25.071V39.5564H14.6593Z" fill="#3A6698"/>
<path d="M32.7486 39.5554V27.4727H30.8683V39.5554H28.1697V24.8089L28.4308 24.7915H35.4298V24.8089L35.4472 25.0701V39.5554H32.7486Z" fill="#3A6698"/>
<path d="M19.2905 39.5558V24.8093H26.2372V27.3686H21.9717V30.694H25.6975V33.2533H21.9717V36.8572H26.2372V39.5558H19.2905Z" fill="#3A6698"/>
<path d="M40.914 39.6767C40.4788 39.6767 40.0435 39.6245 39.5909 39.5026C39.1382 39.3808 38.7203 39.1718 38.3547 38.8759C37.9891 38.5799 37.6757 38.1795 37.4494 37.692C37.2231 37.2045 37.1012 36.5951 37.1012 35.8639V28.4123C37.1012 27.89 37.1882 27.3851 37.3798 26.9324C37.5539 26.4798 37.815 26.0793 38.1632 25.7485C38.494 25.4178 38.8944 25.1566 39.3645 24.9651C39.8172 24.7736 40.3395 24.6865 40.8966 24.6865C41.4189 24.6865 41.9238 24.7736 42.3765 24.9651C42.8292 25.1566 43.2296 25.4178 43.5604 25.766C43.8912 26.1142 44.1523 26.5146 44.3438 27.0021C44.5354 27.4722 44.6224 27.9945 44.6224 28.5516V29.6658H41.9238V28.6735C41.9238 28.3079 41.8194 28.0119 41.6279 27.7507C41.4363 27.507 41.1926 27.3851 40.8792 27.3851C40.235 27.3851 40.0958 27.6463 40.0609 27.7333C39.9042 28.0293 39.8346 28.3949 39.8346 28.865V35.7246C39.8346 36.1076 39.9217 36.421 40.0783 36.6822C40.2176 36.8911 40.4788 36.9956 40.8792 36.9956C41.0011 36.9956 41.123 36.9781 41.2448 36.9259C41.3667 36.8911 41.4886 36.8215 41.593 36.7344C41.6975 36.6474 41.7845 36.5255 41.8368 36.3688C41.8542 36.3166 41.889 36.2643 41.9064 36.2295C41.9412 36.1773 41.9412 36.1599 41.9412 36.0032V34.7148H44.6398V36.1947C44.6398 36.6822 44.5528 36.8911 44.3961 37.2567L44.3613 37.3438C44.1697 37.7964 43.9086 38.1969 43.5778 38.5451C43.247 38.8759 42.8466 39.1544 42.4113 39.3633C41.9064 39.5723 41.4189 39.6767 40.914 39.6767Z" fill="#3A6698"/>
</svg>
