<svg xmlns="http://www.w3.org/2000/svg" height="682" viewBox="0 0 511.999 511" width="682"><path d="M481.53 110.785c-25.3-46.832-67.96-80.758-123.348-98.105C317.672-.012 284.535.453 281.633.52 227.414.555 180.117 23.305 158.18 59.9a91.81 91.81 0 0 0-7.242 14.988c-10.336 9.84-56.96 58.03-56.96 126.36 0 45.516-21.895 69.277-34.95 79.4a18.31 18.31 0 0 0-7.059 15.863 18.34 18.34 0 0 0 9.313 14.672c4.922 2.766 10.457 5.422 15.8 7.988 4.73 2.27 11.445 5.492 14.723 7.6v18.8a10 10 0 0 0 2.77 6.906l19.46 20.375-12.102 11.422a10 10 0 0 0-3.137 7.27v21.797c0 25.148 20.46 45.6 45.613 45.6h29.512a59.66 59.66 0 0 1 48.895 25.52l16.78 23.773a9.99 9.99 0 0 0 8.168 4.234H416.68c3.2 0 6.227-1.543 8.105-4.148a10 10 0 0 0 1.383-9L397.543 413c18.578-3.687 36.016-12.55 50.133-25.988 36.672-34.902 58.582-81.336 63.355-134.28 4.36-48.27-6.12-98.684-29.5-141.957zM252.957 492.47l-13.766-19.5c-14.88-21.305-39.273-34.027-65.262-34.027h-29.512c-14.125 0-25.613-11.488-25.613-25.613v-17.48l16.277-15.363a10 10 0 0 0 3.133-7.012 9.99 9.99 0 0 0-2.766-7.168l-23.64-24.75V323.28c0-9.633-9.812-14.34-26.066-22.14l-12.53-6.227c16.082-13.125 40.766-41.738 40.766-93.656 0-37.566 16.72-68.87 31.223-88.965.793 17.4 6.063 35.62 15.8 53.848 25.648 47.977 70.32 68.086 106.215 84.242 34.145 15.37 53.473 25.047 53.625 45.16.113 14.77-3.28 25.637-10.094 32.297-7.477 7.313-17.277 7.492-18.28 7.492h-.086c-3.344-.23-6.5 1.23-8.547 3.898s-2.508 6.195-1.402 9.37c.04.12.438 1.262 1.207 3.145 12.633 31.078 39.805 53.855 72.684 60.93 6.9 1.488 13.87 2.23 20.8 2.273l25.7 77.52zM433.9 372.54c-13.844 13.176-31.078 20.8-49.352 22.23a10.18 10.18 0 0 0-1.879.129c-7.273.398-14.695-.176-22.125-1.773-23.566-5.07-42.86-19.47-54.172-40.086 5.676-1.8 12.18-4.965 18.04-10.574 11.07-10.605 16.605-26.44 16.445-47.074-.262-33.914-31.9-48.16-65.418-63.242-34.852-15.687-74.348-33.47-96.785-75.434-13.937-26.07-17.22-50.855-9.793-72.586l.1-.254a73.34 73.34 0 0 1 6.39-13.687c18.363-30.637 59.145-49.672 106.43-49.672l.285-.004c.316-.012 31.8-.762 70.16 11.25 51.03 15.984 88.62 45.773 111.727 88.53 38.44 71.133 45.434 180.4-30.043 252.246zm-362.238-1.563c0-5.52-4.477-10-10-10H10c-5.523 0-10 4.48-10 10a10 10 0 0 0 10 10h51.652a10 10 0 0 0 10-10zm0 0"/><path d="M65.504 326.36l-29.016-12.105a10 10 0 0 0-13.078 5.375 10 10 0 0 0 5.379 13.078l29.016 12.1c1.258.523 2.563.773 3.848.773 3.914 0 7.63-2.312 9.23-6.152a10 10 0 0 0-5.379-13.078zm-7.7 70.78L28.8 409.246a10 10 0 0 0-5.379 13.078c1.602 3.84 5.316 6.152 9.23 6.152a9.97 9.97 0 0 0 3.848-.773l29.016-12.105c5.098-2.13 7.504-7.984 5.38-13.078a10 10 0 0 0-13.078-5.379zm225.168-348.7c-5.4.148-9.72 4.566-9.72 9.996 0 5.52 4.477 10 10 10a9.56 9.56 0 0 0 .586-.02 10 10 0 0 0 9.43-10.539c-.3-5.43-4.895-9.62-10.297-9.437zm60.957 9.976a219.03 219.03 0 0 0-18.758-4.96 9.99 9.99 0 0 0-11.902 7.637c-1.175 5.4 2.238 10.723 7.637 11.898 5.8 1.27 11.543 2.785 17.043 4.512 38.672 12.113 66.87 34.156 83.82 65.52a10 10 0 0 0 8.81 5.25c1.602 0 3.23-.4 4.742-1.203 4.86-2.63 6.668-8.695 4.043-13.555-19.512-36.105-51.62-61.37-95.434-75.098zm0 0"/></svg>