<svg xmlns="http://www.w3.org/2000/svg" xmlns:xlink="http://www.w3.org/1999/xlink" viewBox="0 0 268.393 268.393"><use xlink:href="#B"/><use xlink:href="#B" y="33.642"/><use xlink:href="#B" y="67.284"/><use xlink:href="#B" y="100.924"/><use xlink:href="#C"/><use xlink:href="#C" y="33.642"/><use xlink:href="#D"/><use xlink:href="#D" y="33.642"/><use xlink:href="#E"/><use xlink:href="#E" y="33.642"/><use xlink:href="#E" y="67.284"/><use xlink:href="#E" y="100.924"/><path d="M244.02 25.914h-8.82V13.298c0-2.523-1.68-4.205-4.2-4.205s-4.2 1.682-4.2 4.205v12.615H189V13.298c0-2.523-1.68-4.205-4.2-4.205s-4.2 1.682-4.2 4.205v12.615h-37.8V13.298c0-2.523-1.68-4.205-4.2-4.205s-4.2 1.682-4.2 4.205v12.615H96.6V13.298c0-2.523-1.68-4.205-4.2-4.205s-4.2 1.682-4.2 4.205v12.615h-42V13.298c0-2.523-1.68-4.205-4.2-4.205s-4.2 1.682-4.2 4.205v12.615h-9.24C13.86 25.914 0 39.8 0 54.5v156.43c0 15.56 14.7 25.23 28.56 25.23h63c10.08 13.877 26.04 23.128 44.52 23.128s34.86-9.25 44.52-23.128h63c14.7 0 24.78-10.092 24.78-24.8V54.5c.42-13.877-9.24-28.595-24.36-28.595zM136.08 250.9c-25.62 0-46.62-21.026-46.62-46.677s21-46.677 46.62-46.677 46.62 21.026 46.62 46.677-21 46.677-46.62 46.677zm107.94-23.13h-58.38c3.36-7.15 5.46-15.14 5.46-23.128 0-13.877-5.04-26.072-13.44-35.744 1.68-.42 2.94-2.103 2.94-3.785 0-2.523-1.68-4.205-4.2-4.205h-7.56c-9.24-6.728-20.58-10.933-32.76-10.933-12.6 0-24.36 4.205-33.6 11.354-.42-.42-.84-.84-1.68-.84h-8.4c-2.52 0-4.2 1.682-4.2 4.205s1.68 4.205 4.2 4.205h2.1c-7.98 9.672-13.02 21.867-13.02 35.744a52.13 52.13 0 0 0 5.46 23.128H28.56c-9.66 0-20.16-6.308-20.16-16.4V67.965h197.4c2.52 0 4.2-1.682 4.2-4.205s-1.68-4.205-4.2-4.205H8.4V54.5c0-10.092 10.08-20.185 20.16-20.185h9.24V46.94c0 2.523 1.68 4.205 4.2 4.205s4.2-1.682 4.2-4.205V34.324h42V46.94c0 2.523 1.68 4.205 4.2 4.205s4.2-1.682 4.2-4.205V34.324h37.8V46.94c0 2.523 1.68 4.205 4.2 4.205s4.2-1.682 4.2-4.205V34.324h37.8V46.94c0 2.523 1.68 4.205 4.2 4.205s4.2-1.682 4.2-4.205V34.324h37.8V46.94c0 2.523 1.68 4.205 4.2 4.205s4.2-1.682 4.2-4.205V34.324h8.82c10.08 0 16.38 10.513 16.38 20.185v5.046h-21c-2.52 0-4.2 1.682-4.2 4.205s1.68 4.205 4.2 4.205h21V211.36c0 10.093-6.3 16.4-16.38 16.4zm-74.76-42.9c-1.68-1.682-4.2-1.682-5.88 0l-30.66 30.698-17.64-17.662c-1.68-1.682-4.2-1.682-5.88 0s-1.68 4.205 0 5.887l20.58 20.605a4.54 4.54 0 0 0 2.94 1.262 4.54 4.54 0 0 0 2.94-1.262l33.6-33.64c1.26-1.682 1.26-4.205 0-5.887z"/><defs ><path id="B" d="M231 93.196h-29.4c-2.52 0-4.2 1.682-4.2 4.205s1.68 4.205 4.2 4.205H231c2.52 0 4.2-1.682 4.2-4.205s-1.68-4.205-4.2-4.205z"/><path id="C" d="M176.4 93.196H147c-2.52 0-4.2 1.682-4.2 4.205s1.68 4.205 4.2 4.205h29.4c2.52 0 4.2-1.682 4.2-4.205s-1.68-4.205-4.2-4.205z"/><path id="D" d="M121.8 93.196H92.4c-2.52 0-4.2 1.682-4.2 4.205s1.68 4.205 4.2 4.205h29.4c2.52 0 4.2-1.682 4.2-4.205s-1.68-4.205-4.2-4.205z"/><path id="E" d="M67.2 93.196H37.8c-2.52 0-4.2 1.682-4.2 4.205s1.68 4.205 4.2 4.205h29.4c2.52 0 4.2-1.682 4.2-4.205s-1.68-4.205-4.2-4.205z"/></defs></svg>