<svg class="footer-socials__icon" width="16px" height="16px" xmlns="http://www.w3.org/2000/svg">
    <path fill-rule="evenodd"  fill="#cf9333" d="M15.303,10.961 C15.267,11.742 15.145,12.276 14.966,12.743 C14.781,13.226 14.533,13.635 14.130,14.044 C13.728,14.452 13.323,14.703 12.847,14.890 C12.386,15.072 11.860,15.196 11.089,15.232 C10.316,15.267 10.069,15.276 8.102,15.276 C6.134,15.276 5.887,15.267 5.115,15.232 C4.344,15.196 3.817,15.072 3.356,14.890 C2.880,14.703 2.476,14.452 2.073,14.044 C1.670,13.635 1.422,13.226 1.237,12.743 C1.058,12.276 0.936,11.742 0.901,10.961 C0.865,10.178 0.857,9.927 0.857,7.933 C0.857,5.939 0.865,5.689 0.901,4.906 C0.936,4.125 1.058,3.591 1.237,3.124 C1.422,2.641 1.670,2.231 2.073,1.823 C2.476,1.415 2.880,1.164 3.356,0.976 C3.817,0.795 4.344,0.671 5.115,0.635 C5.887,0.599 6.134,0.591 8.102,0.591 C10.069,0.591 10.316,0.599 11.089,0.635 C11.860,0.671 12.386,0.795 12.847,0.976 C13.323,1.164 13.728,1.415 14.130,1.823 C14.533,2.231 14.781,2.641 14.966,3.124 C15.145,3.591 15.267,4.125 15.303,4.906 C15.338,5.689 15.346,5.939 15.346,7.933 C15.346,9.927 15.338,10.178 15.303,10.961 ZM13.999,4.966 C13.966,4.251 13.848,3.862 13.749,3.603 C13.618,3.260 13.461,3.016 13.207,2.759 C12.954,2.502 12.712,2.343 12.374,2.210 C12.119,2.109 11.735,1.990 11.029,1.957 C10.265,1.921 10.036,1.914 8.102,1.914 C6.167,1.914 5.938,1.921 5.174,1.957 C4.468,1.990 4.084,2.109 3.829,2.210 C3.491,2.343 3.249,2.502 2.996,2.759 C2.742,3.016 2.585,3.260 2.454,3.603 C2.355,3.862 2.237,4.251 2.205,4.966 C2.170,5.741 2.162,5.973 2.162,7.933 C2.162,9.894 2.170,10.126 2.205,10.900 C2.237,11.616 2.355,12.005 2.454,12.264 C2.585,12.607 2.742,12.851 2.996,13.108 C3.249,13.365 3.491,13.524 3.829,13.657 C4.084,13.758 4.468,13.877 5.174,13.910 C5.938,13.945 6.167,13.953 8.102,13.953 C10.036,13.953 10.265,13.945 11.029,13.910 C11.735,13.877 12.119,13.758 12.374,13.657 C12.712,13.524 12.954,13.365 13.207,13.108 C13.461,12.851 13.618,12.607 13.749,12.264 C13.848,12.005 13.966,11.616 13.999,10.900 C14.034,10.126 14.041,9.894 14.041,7.933 C14.041,5.973 14.034,5.741 13.999,4.966 ZM11.969,4.895 C11.489,4.895 11.100,4.501 11.100,4.014 C11.100,3.528 11.489,3.133 11.969,3.133 C12.449,3.133 12.838,3.528 12.838,4.014 C12.838,4.501 12.449,4.895 11.969,4.895 ZM8.102,11.704 C6.047,11.704 4.381,10.016 4.381,7.933 C4.381,5.851 6.047,4.163 8.102,4.163 C10.156,4.163 11.822,5.851 11.822,7.933 C11.822,10.016 10.156,11.704 8.102,11.704 ZM8.102,5.486 C6.768,5.486 5.687,6.582 5.687,7.933 C5.687,9.285 6.768,10.381 8.102,10.381 C9.435,10.381 10.516,9.285 10.516,7.933 C10.516,6.582 9.435,5.486 8.102,5.486 Z"/>
</svg>