<svg xmlns="http://www.w3.org/2000/svg" width="551" height="551" viewBox="0 0 550.795 550.795" fill="#cf9333"><path d="M501.613 491.782c12.38 0 23.1-4.088 32.23-12.16l-156.05-156.055-10.8 7.767c-11.678 8.604-21.156 15.318-28.434 20.13-7.277 4.822-16.96 9.737-29.045 14.755-12.094 5.024-23.36 7.528-33.813 7.528h-.612c-10.453 0-21.72-2.503-33.813-7.528-12.093-5.018-21.775-9.933-29.045-14.755-7.277-4.8-16.75-11.524-28.434-20.13l-10.77-7.8L16.947 479.62c9.12 8.072 19.854 12.16 32.234 12.16h452.433zM31.047 225.3C19.37 217.514 9.015 208.598 0 198.555V435.98l137.54-137.54L31.047 225.3zm489.013 0L413.3 298.495l137.486 137.492v-237.43c-8.815 9.84-19.06 18.75-30.736 26.744zM501.613 59.013H49.18c-15.784 0-27.92 5.33-36.42 15.98C4.253 85.646.006 98.97.006 114.95c0 12.907 5.636 26.892 16.903 41.96 11.267 15.06 23.256 26.9 35.96 35.496L165.387 270.6l31.022 21.7 4.6 3.27 8.476 6.107 16.597 11.683c4.4 2.975 9.73 6.298 15.985 9.988s12.143 6.456 17.675 8.3 10.655 2.766 15.367 2.766h.612c4.7 0 9.834-.924 15.368-2.766s11.42-4.608 17.674-8.3c6.248-3.7 11.572-7.02 15.986-9.988 4.406-2.974 9.938-6.866 16.598-11.683l8.47-6.102 4.596-3.274 143.846-99.897c14.957-10.447 27.453-23.054 37.496-37.803 10.025-14.75 15.05-30.22 15.05-46.408 0-13.525-4.873-25.098-14.598-34.737-9.736-9.627-21.265-14.443-34.584-14.443z"/></svg>