<svg xmlns="http://www.w3.org/2000/svg" viewBox="0 0 463.003 463.003" fill="#de6593"><path d="M427.162 231.178l8.163-18.38c14.658-32.847 14.59-33.13 13.75-36.577-11.302-46.382-59.065-68.148-71.114-72.96-6.347-14.96-18.215-31.875-40.365-44.648-36.57-21.088-50.7-52.623-50.83-52.923a7.5 7.5 0 0 0-5.638-4.419c-.8-.136-20.103-3.296-42.757.9-19.752 3.66-35.936 11.795-47.94 23.92-12.888-10.396-30.4-14.213-42.853-15.578-12.36-1.355-24.505-.775-27.435.22-2.446.83-4.38 2.912-4.973 5.427-1.798 7.607-7.398 16.17-12.814 24.45-8.563 13.09-17.395 26.6-15.47 41.065C56.476 97.72 24.246 128.02 19.422 132.63a7.49 7.49 0 0 0-1.913 2.989c-.253.735-6.212 18.274-9.26 41.632-4.163 31.928-.94 58.223 9.58 78.152.313.594.65 1.164.977 1.745-9.62 17.603-5.902 33.652-2.616 47.82 2.56 11.036 4.77 20.566 1.164 30.13a7.59 7.59 0 0 0 .669 6.649c2.688 4.308 37.683 29.308 74.52 33.135.617 2.493 1.41 5.013 2.447 7.544 8.383 20.427 28.705 36.715 60.403 48.412 16.22 5.985 27.68 11.665 37.792 16.675 12.52 6.203 23.33 11.56 37.507 14.333 3.954.773 7.983 1.156 12.064 1.156 19.23 0 39.597-8.495 58.502-24.623 3.787-3.23 9.206-6.394 14.942-9.742 19.705-11.5 46.567-27.21 45.035-67.34 3.45-1.9 6.83-3.942 10.13-6.194.482.497 1.036.938 1.668 1.3 2.995 1.708 5.974 2.473 8.94 2.473 13.242 0 26.19-15.277 38.783-30.138 9.442-11.142 20.144-23.77 28.85-27.25 2.23-.893 6.083-3.41 6.792-10.25 1.455-13.99-11.186-45.747-29.234-60.06zm6.887-53.156c-1.6 4.41-7.316 17.223-12.422 28.662l-18.938 43.614-2.526-7.737c-4.177-12.686-8.496-25.804-10.17-38.808-1.577-12.26-4.93-22.818-9.994-31.625 5.59-14.636 6.924-32.65 3.748-49.605 16.234 8.562 42.368 26.415 50.3 55.5zm-97.395 178.74c-15.204 7.148-32.437 15.25-49.942 30.62-22.58 19.823-51.168 13.02-69.792-2.23 5.028-3.65 9.76-8.068 14.124-13.223 17.586-2.21 35.613-8.518 52.602-18.707 30.895-18.526 54.455-47.706 64.64-80.056 13.14-41.734-.854-87.46-22.97-116.6 7.865.2 19.54 1.94 29.618 9.364 11.048 8.137 17.84 21.507 20.184 39.74 1.854 14.424 6.4 28.232 10.8 41.586 6.815 20.7 13.254 40.25 6.936 56.203-13.085 33.036-32.11 41.98-56.2 53.306zm-238.72-42.757c-6.392-13.878-14.34-23.02-21.354-31.087-9.655-11.105-17.282-19.877-19.762-38.244-5.743-42.54 21.015-83.604 49.105-100.642 7.733-4.7 15.02-7.2 21.036-7.4-16.336 18.23-34.514 48.345-33.916 77.91.36 17.807 7.472 32.478 21.137 43.607 3.605 2.936 7.33 5.52 11.154 7.755-4.276 13.24-2.306 32.778 5.437 50.684 6.523 15.087 22.893 41.972 59.23 52.507 6.077 1.762 12.395 2.88 18.866 3.396-10.728 8.084-22.96 11.482-36.036 9.9-28.366-3.452-57.064-29.653-74.896-68.376zm39.52-240.346c12.075-9.142 37.04-21.71 68.552-3.168 22.813 13.423 44.93 18.518 62.7 22.61 24.465 5.635 37.465 9.27 42.473 24.18 3.338 9.942-3.218 16.48-6.278 18.886-15.477-11.18-32.054-14.5-46.736-9.174-7.56-6.965-16.56-12.534-26.796-16.44-30.624-11.687-65.788-6.346-91.108 13.456-9.326-3.95-21.05-3-33.627 2.695.603-18.352 15.178-41.205 30.82-53.046zm56.722 281.03c-30.43-8.824-44.162-31.39-49.64-44.054-6.524-15.09-7.6-29.593-5.44-38.365a73.35 73.35 0 0 0 10.082 2.735c7.886 19.593 28.123 35.353 51.55 39.767 4.567.86 9.13 1.285 13.66 1.285 23.833 0 46.752-11.742 64.423-33.44 20.452-25.113 39.4-59.615 5.22-104.507-2.03-14.532-7.095-27.543-14.77-38.45 13.76-1.67 26.42 7.605 33.292 13.94 25.772 23.762 44.573 73.295 31.425 115.057-9.1 28.9-30.257 55.032-58.048 71.697-27.174 16.297-56.973 21.52-81.755 14.335zM146.1 138.637c21.065-18.62 53.184-24.272 79.922-14.07 10.696 4.082 27.172 13.338 36.658 33.28-11.936-8.005-25.73-13-40.097-14.27-18.932-1.667-36.747 3.588-48.89 14.427-22.046 19.677-30.125 43.86-22.166 66.35 5.637 15.93 18.964 28.66 33.59 33.025-15.122 5.476-38.157 8.118-61.464-10.86-10.093-8.22-15.346-19.08-15.612-32.28-.404-19.986 12.798-53.274 38.06-75.605zm53.198 107.028a21.41 21.41 0 0 1-7.833-14.522 21.42 21.42 0 0 1 4.73-15.808c3.636-4.465 8.794-7.247 14.522-7.833.747-.077 1.492-.114 2.234-.114 4.94 0 9.7 1.683 13.573 4.845 9.218 7.507 10.61 21.113 3.103 30.33-3.637 4.465-8.794 7.247-14.522 7.833a21.42 21.42 0 0 1-15.807-4.732zm13.546 19.847a37.12 37.12 0 0 0 3.788-.194c9.715-.994 18.46-5.71 24.627-13.283 12.73-15.63 10.37-38.704-5.26-51.434-7.572-6.166-17.094-9.017-26.807-8.02s-18.46 5.71-24.627 13.283-9.016 17.092-8.022 26.807c.115 1.126.286 2.238.5 3.336-4.97-4.354-9.08-10.168-11.375-16.654-5.9-16.7.487-34.512 18.014-50.156 9.066-8.092 22.76-11.982 37.583-10.675 19.34 1.708 37.458 11.625 49.704 27.2 27.472 34.958 18.354 60.228-3.786 87.415-23.887 29.33-50.143 29.436-63.673 26.887-15.614-2.942-29.344-12.02-36.866-23.758 2.34-.11 4.688-.322 7.045-.656 7.484-1.058 18.936-3.833 31.162-10.998a36.34 36.34 0 0 0 7.994.891zM240.69 16.996c14.656-2.776 28.017-2.017 34.247-1.39 5.28 10.018 21.706 36.707 55.164 56 24.742 14.268 34.262 34.504 37.89 48.968a82.64 82.64 0 0 1 .616 37.224 57.43 57.43 0 0 0-4.78-3.948c-15.693-11.56-33.84-12.633-43.435-12.217 5.28-6.87 9.1-16.93 5.003-29.125-7.913-23.56-28.957-28.408-53.324-34.02-17.642-4.064-37.638-8.67-58.46-20.922-7.5-4.413-14.703-7.387-21.56-9.25 9.853-16.538 26.168-27.063 48.637-31.318zM114.91 48.82c5.075-7.76 10.293-15.736 13.3-24.025 10.478-.48 37.206.402 52.783 12.95a79.41 79.41 0 0 0-4.67 8.09c-21.327-.9-38.058 8.402-47.92 15.865-3.987 3.018-7.738 6.408-11.207 10.066-4.755.178-9.935 1.347-15.35 3.246 1.128-7.923 6.952-16.85 13.063-26.192zm-83.76 93.374c4.207-3.914 17.644-16.17 33.594-28.177 17.13-12.896 29.564-19.855 38.438-23.51-8.693 14.943-13.02 31.265-11 44.624-30.506 21.677-56.505 65.154-50.24 111.552 1.14 8.454 3.273 15.396 6.01 21.372-7-5.06-12.587-11.563-16.846-19.62-19.834-37.524-3.28-95.576.036-106.24zm-.344 159.387c-2.495-10.76-4.71-20.33-1.745-30.306 9.24 9.898 21.216 16.94 35.79 21.016l.407.47c6.664 7.665 13.556 15.6 19.05 27.52 3.353 7.28 7.1 14.204 11.164 20.712-.1.177-.2.355-.288.542-2.196 4.682-3.88 10.954-4.187 18.052-25.52-3.582-49.2-18.193-57.974-24.5 2.82-11.788.264-22.805-2.217-33.505zm277.838 114.103c-6.33 3.695-12.312 7.186-17.116 11.285-19.366 16.52-39.945 23.68-57.953 20.158-12.2-2.385-21.7-7.092-33.726-13.052-10.447-5.177-22.29-11.045-39.26-17.307-27.208-10.04-45.092-23.883-51.72-40.034-3.277-7.986-3.34-15.12-2.547-20.34 5.078 6.37 10.502 12.14 16.197 17.197 15.178 13.478 31.946 21.666 48.494 23.68a65.86 65.86 0 0 0 7.965.487 62.52 62.52 0 0 0 24.12-4.815c.093.097.18.197.28.3 11.755 10.984 27.18 18.542 42.32 20.734 3.21.465 6.383.696 9.515.696 15.198 0 29.36-5.446 41.394-16.01 15.91-13.97 31.425-21.263 46.428-28.317l3.136-1.478c-1.8 25.974-19.94 36.56-37.528 46.825zm100.67-96.645c-6.738 7.952-15.973 18.852-22.653 23.014 7.62-8.187 14.452-18.725 20.134-33.074 4.28-10.807 4.43-21.893 2.526-33.3a7.45 7.45 0 0 0 1.15-2.602c1.088-4.87 5.29-15.43 10.43-27.486 12.612 12.302 20.72 35.652 20.673 43.064-11.256 5.59-21.922 18.176-32.26 30.374z"/></svg>