<svg width="302" height="290" viewBox="0 0 302 290" fill="none" xmlns="http://www.w3.org/2000/svg">
<path d="M139.192 2H138.051L137.47 2.98275L58.7279 136.275C47.9463 152.809 44 172.088 44 191.213C44 223.983 55.7122 248.275 75.0892 264.335C94.4113 280.35 121.135 288 150.89 288C180.261 288 206.789 280.347 226.012 264.332C245.288 248.272 257 223.983 257 191.213C257 162.245 247.284 138.565 230.035 122.683C213.529 107.487 190.328 99.6156 162.687 100.891L218.516 5.00635L220.266 2H216.787H139.192ZM150.89 224.218C140.852 224.218 132.608 220.665 126.873 214.835C121.133 209 117.797 200.768 117.797 191.213C117.797 182.382 120.589 174.242 126.04 168.332C131.465 162.449 139.681 158.603 150.89 158.603C161.89 158.603 169.799 162.438 174.98 168.3C180.195 174.201 182.813 182.347 182.813 191.213C182.813 200.849 179.913 209.081 174.569 214.882C169.246 220.661 161.327 224.218 150.89 224.218Z" stroke="#EB1933" stroke-width="4"/>
<path d="M46.3754 39.44H31.5794C30.4634 39.44 30.0674 39.8 29.8514 40.916L28.5194 48.62C27.1874 56.144 25.3154 58.484 23.5154 59.636H22.7954C21.7154 59.636 21.2834 60.032 21.0674 61.112L19.6634 69.032C19.4834 70.148 19.7714 70.508 20.8874 70.508H23.6954C24.7754 70.508 25.2434 70.148 25.4234 69.032L26.1434 65H40.7954L40.0754 69.032C39.8954 70.148 40.1834 70.508 41.2994 70.508H44.1074C45.1874 70.508 45.6194 70.148 45.7994 69.032L47.2034 61.112C47.4194 60.032 47.0954 59.636 46.0154 59.636H44.2874L47.5994 40.916C47.7794 39.8 47.4554 39.44 46.3754 39.44ZM34.8194 44.804H41.0474L38.4194 59.636H30.2474C31.8314 57.44 33.1634 54.092 34.1714 48.584L34.8194 44.804ZM69.8365 39.44H55.3645C54.2485 39.44 53.8525 39.8 53.6365 40.916L49.6405 63.524C49.4605 64.64 49.7485 65 50.8645 65H65.6965C66.7765 65 67.2085 64.64 67.3885 63.524L67.8205 61.112C68.0365 60.032 67.7125 59.636 66.6325 59.636H56.1565L57.0205 54.74H65.3365C66.4165 54.74 66.8845 54.38 67.0645 53.264L67.4965 50.852C67.6765 49.772 67.3885 49.412 66.3085 49.412H57.9925L58.7845 44.768H68.9005C70.0165 44.768 70.4485 44.408 70.6285 43.328L71.0605 40.916C71.2765 39.8 70.9525 39.44 69.8365 39.44ZM72.5041 48.224L71.2081 55.568C70.2001 61.544 73.3681 65.54 80.1721 65.54C85.5001 65.54 89.2441 63.452 91.3681 59.564C91.9081 58.556 91.7281 58.052 90.7561 57.692L88.0561 56.648C87.0841 56.252 86.6161 56.504 86.0401 57.548C85.0321 59.312 83.4481 60.176 81.0361 60.176C77.9041 60.176 76.5001 58.736 77.0041 55.892L78.3001 48.548C78.8041 45.704 80.7121 44.264 83.8441 44.264C86.2561 44.264 87.5161 45.128 87.8761 46.892C88.1281 47.936 88.5241 48.152 89.6041 47.792L92.2321 46.928C93.3481 46.568 93.5641 46.064 93.3841 45.056C92.6641 41.168 90.0361 38.9 84.7081 38.9C77.9041 38.9 73.5481 42.248 72.5041 48.224ZM95.5315 47.288C94.9195 50.816 96.0355 53.48 98.3755 54.74C98.0515 55.136 97.5835 55.892 97.2595 56.36L92.5795 63.452C91.9675 64.352 92.0035 65 93.0835 65H95.9635C97.7995 65 98.4835 64.82 99.1675 63.668L102.551 58.052C103.631 56.324 104.387 55.928 106.511 55.928H108.131L106.799 63.524C106.619 64.64 106.907 65 107.987 65H110.903C112.019 65 112.451 64.64 112.631 63.524L116.627 40.916C116.843 39.8 116.519 39.44 115.403 39.44H105.431C100.211 39.44 96.4675 42.032 95.5315 47.288ZM105.071 44.768H110.111L109.067 50.636H104.063C102.155 50.636 101.255 49.592 101.579 47.72C101.939 45.848 103.163 44.768 105.071 44.768ZM138.164 39.44H121.028C119.948 39.44 119.516 39.8 119.3 40.916L118.904 43.328C118.688 44.408 119.012 44.768 120.092 44.768H125.744L122.432 63.524C122.252 64.64 122.54 65 123.62 65H126.536C127.652 65 128.084 64.64 128.264 63.524L131.576 44.768H137.228C138.308 44.768 138.74 44.408 138.956 43.328L139.352 40.916C139.568 39.8 139.244 39.44 138.164 39.44ZM161.746 39.44H158.686C157.93 39.44 157.534 39.656 157.138 40.124L148.822 50.456C146.518 53.372 145.69 54.668 143.998 57.8H143.818C145.294 54.308 145.762 53.192 146.482 49.088L147.886 40.916C148.102 39.8 147.778 39.44 146.698 39.44H143.782C142.666 39.44 142.27 39.8 142.054 40.916L138.058 63.524C137.878 64.64 138.166 65 139.282 65H142.342C143.062 65 143.458 64.82 143.89 64.316L152.314 53.804C154.654 50.888 155.374 49.772 157.03 46.64H157.246C155.77 50.168 155.302 51.176 154.582 55.352L153.106 63.524C152.926 64.64 153.214 65 154.33 65H157.246C158.326 65 158.758 64.64 158.974 63.524L162.934 40.916C163.15 39.8 162.826 39.44 161.746 39.44ZM186.517 39.44H172.045C170.929 39.44 170.533 39.8 170.317 40.916L168.985 48.62C167.401 57.476 164.809 59.168 162.829 60.104C161.749 60.608 161.461 61.112 161.785 62.084L162.721 64.568C163.009 65.576 163.441 65.756 164.557 65.288C168.625 63.452 172.621 60.392 174.709 48.584L175.357 44.804H181.225L177.913 63.524C177.733 64.64 178.021 65 179.137 65H182.017C183.133 65 183.565 64.64 183.745 63.524L187.741 40.916C187.957 39.8 187.633 39.44 186.517 39.44ZM208.458 39.44H193.986C192.87 39.44 192.474 39.8 192.258 40.916L188.262 63.524C188.082 64.64 188.37 65 189.486 65H204.318C205.398 65 205.83 64.64 206.01 63.524L206.442 61.112C206.658 60.032 206.334 59.636 205.254 59.636H194.778L195.642 54.74H203.958C205.038 54.74 205.506 54.38 205.686 53.264L206.118 50.852C206.298 49.772 206.01 49.412 204.93 49.412H196.614L197.406 44.768H207.522C208.638 44.768 209.07 44.408 209.25 43.328L209.682 40.916C209.898 39.8 209.574 39.44 208.458 39.44ZM230.309 39.44H213.173C212.093 39.44 211.661 39.8 211.445 40.916L211.049 43.328C210.833 44.408 211.157 44.768 212.237 44.768H217.889L214.577 63.524C214.397 64.64 214.685 65 215.765 65H218.681C219.797 65 220.229 64.64 220.409 63.524L223.721 44.768H229.373C230.453 44.768 230.885 44.408 231.101 43.328L231.497 40.916C231.713 39.8 231.389 39.44 230.309 39.44ZM253.891 39.44H250.831C250.075 39.44 249.679 39.656 249.283 40.124L240.967 50.456C238.663 53.372 237.835 54.668 236.143 57.8H235.963C237.439 54.308 237.907 53.192 238.627 49.088L240.031 40.916C240.247 39.8 239.923 39.44 238.843 39.44H235.927C234.811 39.44 234.415 39.8 234.199 40.916L230.203 63.524C230.023 64.64 230.311 65 231.427 65H234.487C235.207 65 235.603 64.82 236.035 64.316L244.459 53.804C246.799 50.888 247.519 49.772 249.175 46.64H249.391C247.915 50.168 247.447 51.176 246.727 55.352L245.251 63.524C245.071 64.64 245.359 65 246.475 65H249.391C250.471 65 250.903 64.64 251.119 63.524L255.079 40.916C255.295 39.8 254.971 39.44 253.891 39.44ZM270.706 37.712C273.55 37.712 275.962 36.38 277.222 34.076C277.546 33.392 277.438 33.14 276.826 32.852L274.882 32.096C274.306 31.916 274.018 31.988 273.622 32.564C273.118 33.464 272.29 33.968 271.354 33.968C270.418 33.968 269.77 33.464 269.554 32.564C269.374 31.988 269.122 31.88 268.366 32.132L266.314 32.852C265.63 33.104 265.414 33.392 265.558 34.076C265.954 36.38 267.898 37.712 270.706 37.712ZM279.274 39.44H276.214C275.458 39.44 275.062 39.656 274.666 40.124L266.35 50.456C264.046 53.372 263.218 54.668 261.526 57.8H261.346C262.822 54.308 263.29 53.192 264.01 49.088L265.414 40.916C265.63 39.8 265.306 39.44 264.226 39.44H261.31C260.194 39.44 259.798 39.8 259.582 40.916L255.586 63.524C255.406 64.64 255.694 65 256.81 65H259.87C260.59 65 260.986 64.82 261.418 64.316L269.842 53.804C272.182 50.888 272.902 49.772 274.558 46.64H274.774C273.298 50.168 272.83 51.176 272.11 55.352L270.634 63.524C270.454 64.64 270.742 65 271.858 65H274.774C275.854 65 276.286 64.64 276.502 63.524L280.462 40.916C280.678 39.8 280.354 39.44 279.274 39.44ZM162.573 119.44H159.513C158.757 119.44 158.361 119.656 157.965 120.124L149.649 130.456C147.345 133.372 146.517 134.668 144.825 137.8H144.645C146.121 134.308 146.589 133.192 147.309 129.088L148.713 120.916C148.929 119.8 148.605 119.44 147.525 119.44H144.609C143.493 119.44 143.097 119.8 142.881 120.916L138.885 143.524C138.705 144.64 138.993 145 140.109 145H143.169C143.889 145 144.285 144.82 144.717 144.316L153.141 133.804C155.481 130.888 156.201 129.772 157.857 126.64H158.073C156.597 130.168 156.129 131.176 155.409 135.352L153.933 143.524C153.753 144.64 154.041 145 155.157 145H158.073C159.153 145 159.585 144.64 159.801 143.524L163.761 120.916C163.977 119.8 163.653 119.44 162.573 119.44ZM50.1679 199.44H46.9639C45.3079 199.44 45.0559 199.476 44.3359 200.736L38.2879 210.78L35.2279 200.736C34.8679 199.476 34.4359 199.44 32.7439 199.44H29.7199C28.6759 199.44 28.4239 200.016 28.7119 200.916L34.0759 217.404L30.0439 223.524C29.5039 224.388 29.4679 225 30.5119 225H33.9679C35.5159 225 35.9479 224.784 36.5959 223.704L50.6719 200.916C51.1759 200.016 51.2119 199.44 50.1679 199.44ZM72.5256 199.44H69.6096C68.4936 199.44 68.0976 199.8 67.8816 200.916L66.4056 209.376H57.6936L59.1696 200.916C59.3856 199.8 59.0616 199.44 57.9816 199.44H55.0656C53.9856 199.44 53.5536 199.8 53.3376 200.916L49.3416 223.524C49.1616 224.64 49.4496 225 50.5656 225H53.4816C54.5616 225 54.9936 224.64 55.2096 223.524L56.7576 214.74H65.4336L63.8856 223.524C63.7056 224.64 63.9936 225 65.1096 225H68.0256C69.1056 225 69.5376 224.64 69.7176 223.524L73.7136 200.916C73.9296 199.8 73.6056 199.44 72.5256 199.44ZM97.9203 199.44H94.8603C94.1043 199.44 93.7083 199.656 93.3123 200.124L84.9963 210.456C82.6923 213.372 81.8643 214.668 80.1723 217.8H79.9923C81.4683 214.308 81.9363 213.192 82.6562 209.088L84.0603 200.916C84.2763 199.8 83.9523 199.44 82.8723 199.44H79.9563C78.8403 199.44 78.4443 199.8 78.2283 200.916L74.2323 223.524C74.0523 224.64 74.3403 225 75.4563 225H78.5163C79.2363 225 79.6323 224.82 80.0643 224.316L88.4883 213.804C90.8283 210.888 91.5483 209.772 93.2043 206.64H93.4203C91.9443 210.168 91.4763 211.176 90.7563 215.352L89.2803 223.524C89.1003 224.64 89.3883 225 90.5043 225H93.4203C94.5003 225 94.9323 224.64 95.1483 223.524L99.1083 200.916C99.3243 199.8 99.0003 199.44 97.9203 199.44ZM119.919 223.452L116.859 214.668C116.247 212.904 115.527 211.824 114.123 211.032L123.519 200.88C124.167 200.124 124.023 199.44 123.015 199.44H119.847C118.119 199.44 117.723 199.62 116.787 200.664L108.903 209.412H108.507H107.931L109.443 200.916C109.659 199.8 109.335 199.44 108.255 199.44H105.339C104.223 199.44 103.827 199.8 103.611 200.916L99.6151 223.524C99.4351 224.64 99.7231 225 100.839 225H103.755C104.835 225 105.267 224.64 105.447 223.524L107.031 214.668H107.967C110.019 214.668 110.595 215.172 111.135 216.828L113.295 223.668C113.655 224.784 114.159 225 115.995 225H118.875C119.955 225 120.243 224.316 119.919 223.452ZM144.314 223.56L139.778 200.592C139.598 199.656 139.166 199.44 138.158 199.44H135.386C134.378 199.44 133.91 199.656 133.406 200.664L120.734 223.56C120.194 224.532 120.374 225 121.454 225H124.118C125.918 225 126.422 224.712 126.962 223.668L128.69 220.284H137.618L138.122 223.668C138.266 224.712 138.734 225 140.57 225H143.09C144.134 225 144.494 224.532 144.314 223.56ZM136.034 209.952L136.934 215.532H131.102L133.982 209.916C135.278 207.36 135.746 204.804 135.746 204.804H136.034C136.034 204.804 135.674 207.36 136.034 209.952ZM169.836 199.44H155.364C154.248 199.44 153.852 199.8 153.636 200.916L152.304 208.62C150.72 217.476 148.128 219.168 146.148 220.104C145.068 220.608 144.78 221.112 145.104 222.084L146.04 224.568C146.328 225.576 146.76 225.756 147.876 225.288C151.944 223.452 155.94 220.392 158.028 208.584L158.676 204.804H164.544L161.232 223.524C161.052 224.64 161.34 225 162.456 225H165.336C166.452 225 166.884 224.64 167.064 223.524L171.06 200.916C171.276 199.8 170.952 199.44 169.836 199.44ZM192.676 216.72C193.648 211.284 190.696 207.756 185.296 207.756H180.22L181.408 200.916C181.624 199.8 181.3 199.44 180.22 199.44H177.304C176.188 199.44 175.792 199.8 175.576 200.916L171.58 223.524C171.4 224.64 171.688 225 172.804 225H182.56C187.924 225 191.74 222.12 192.676 216.72ZM186.7 216.36C186.34 218.412 184.864 219.672 182.776 219.672H178.096L179.284 213.12H183.928C186.052 213.12 187.06 214.308 186.7 216.36ZM217.686 199.44H214.77C213.654 199.44 213.258 199.8 213.042 200.916L211.566 209.376H202.854L204.33 200.916C204.546 199.8 204.222 199.44 203.142 199.44H200.226C199.146 199.44 198.714 199.8 198.498 200.916L194.502 223.524C194.322 224.64 194.61 225 195.726 225H198.642C199.722 225 200.154 224.64 200.37 223.524L201.918 214.74H210.594L209.046 223.524C208.866 224.64 209.154 225 210.27 225H213.186C214.266 225 214.698 224.64 214.878 223.524L218.874 200.916C219.09 199.8 218.766 199.44 217.686 199.44ZM240.488 216.72C241.46 211.284 238.508 207.756 233.108 207.756H228.032L229.22 200.916C229.436 199.8 229.112 199.44 228.032 199.44H225.116C224 199.44 223.604 199.8 223.388 200.916L219.392 223.524C219.212 224.64 219.5 225 220.616 225H230.372C235.736 225 239.552 222.12 240.488 216.72ZM246.536 200.88L242.54 223.56C242.36 224.64 242.648 225 243.728 225H246.68C247.76 225 248.192 224.64 248.372 223.56L252.368 200.88C252.584 199.8 252.26 199.44 251.18 199.44H248.228C247.148 199.44 246.752 199.8 246.536 200.88ZM234.512 216.36C234.152 218.412 232.676 219.672 230.588 219.672H225.908L227.096 213.12H231.776C233.864 213.12 234.872 214.308 234.512 216.36ZM276.694 199.44H273.202C271.618 199.44 271.258 199.548 270.322 200.664L265.174 207.324L262.33 200.664C261.718 199.62 261.394 199.44 259.63 199.44H256.426C255.418 199.44 255.058 200.124 255.49 200.844L260.746 211.968L251.134 223.524C250.486 224.316 250.558 225 251.602 225H255.022C256.786 225 257.146 224.856 258.082 223.704L263.41 216.576L266.542 223.704C267.046 224.928 267.442 225 269.17 225H272.518C273.562 225 273.958 224.28 273.49 223.524L267.91 211.932L277.162 200.844C277.81 200.124 277.666 199.44 276.694 199.44ZM76.9438 239.44H62.1478C61.0318 239.44 60.6358 239.8 60.4198 240.916L59.0878 248.62C57.7558 256.144 55.8838 258.484 54.0838 259.636H53.3638C52.2838 259.636 51.8518 260.032 51.6358 261.112L50.2318 269.032C50.0518 270.148 50.3398 270.508 51.4558 270.508H54.2638C55.3438 270.508 55.8118 270.148 55.9918 269.032L56.7118 265H71.3638L70.6438 269.032C70.4638 270.148 70.7518 270.508 71.8678 270.508H74.6758C75.7558 270.508 76.1878 270.148 76.3678 269.032L77.7718 261.112C77.9878 260.032 77.6638 259.636 76.5838 259.636H74.8558L78.1678 240.916C78.3478 239.8 78.0238 239.44 76.9438 239.44ZM65.3878 244.804H71.6158L68.9878 259.636H60.8158C62.3998 257.44 63.7318 254.092 64.7398 248.584L65.3878 244.804ZM103.897 239.44H100.837C100.081 239.44 99.6848 239.656 99.2888 240.124L90.9728 250.456C88.6688 253.372 87.8408 254.668 86.1488 257.8H85.9688C87.4448 254.308 87.9128 253.192 88.6328 249.088L90.0368 240.916C90.2528 239.8 89.9288 239.44 88.8488 239.44H85.9328C84.8168 239.44 84.4208 239.8 84.2048 240.916L80.2088 263.524C80.0288 264.64 80.3168 265 81.4328 265H84.4928C85.2128 265 85.6088 264.82 86.0408 264.316L94.4648 253.804C96.8048 250.888 97.5248 249.772 99.1808 246.64H99.3968C97.9208 250.168 97.4528 251.176 96.7328 255.352L95.2568 263.524C95.0768 264.64 95.3648 265 96.4808 265H99.3968C100.477 265 100.909 264.64 101.125 263.524L105.085 240.916C105.301 239.8 104.977 239.44 103.897 239.44ZM127.336 246.784C128.236 242.032 125.32 238.9 119.416 238.9C113.368 238.9 109.912 241.06 107.788 244.948C107.212 245.956 107.392 246.46 108.364 246.82L110.848 247.792C111.82 248.08 112.288 247.936 112.864 246.856C113.872 245.092 115.42 244.192 118.408 244.192C120.712 244.192 121.684 245.056 121.396 246.856C121.072 248.656 119.884 249.484 118.12 249.484H114.52C113.404 249.484 113.008 249.844 112.792 250.96L112.396 253.192C112.216 254.272 112.504 254.632 113.62 254.632H117.832C119.74 254.632 120.46 255.64 120.172 257.44C119.812 259.204 118.624 260.248 115.888 260.248C112.576 260.248 111.172 259.348 110.812 257.584C110.596 256.504 110.2 256.288 109.12 256.648L106.276 257.62C105.196 257.98 104.836 258.484 105.016 259.492C105.772 263.38 109.228 265.54 115.276 265.54C121.972 265.54 125.392 262.804 126.256 257.98C126.724 255.532 126.436 253.228 123.772 251.644C125.716 250.564 126.904 249.124 127.336 246.784ZM149.798 263.56L145.262 240.592C145.082 239.656 144.65 239.44 143.642 239.44H140.87C139.862 239.44 139.394 239.656 138.89 240.664L126.218 263.56C125.678 264.532 125.858 265 126.938 265H129.602C131.402 265 131.906 264.712 132.446 263.668L134.174 260.284H143.102L143.606 263.668C143.75 264.712 144.218 265 146.054 265H148.574C149.618 265 149.978 264.532 149.798 263.56ZM141.518 249.952L142.418 255.532H136.586L139.466 249.916C140.762 247.36 141.23 244.804 141.23 244.804H141.518C141.518 244.804 141.158 247.36 141.518 249.952ZM167.399 237.712C170.243 237.712 172.655 236.38 173.915 234.076C174.239 233.392 174.131 233.14 173.519 232.852L171.575 232.096C170.999 231.916 170.711 231.988 170.315 232.564C169.811 233.464 168.983 233.968 168.047 233.968C167.111 233.968 166.463 233.464 166.247 232.564C166.067 231.988 165.815 231.88 165.059 232.132L163.007 232.852C162.323 233.104 162.107 233.392 162.251 234.076C162.647 236.38 164.591 237.712 167.399 237.712ZM175.967 239.44H172.907C172.151 239.44 171.755 239.656 171.359 240.124L163.043 250.456C160.739 253.372 159.911 254.668 158.219 257.8H158.039C159.515 254.308 159.983 253.192 160.703 249.088L162.107 240.916C162.323 239.8 161.999 239.44 160.919 239.44H158.003C156.887 239.44 156.491 239.8 156.275 240.916L152.279 263.524C152.099 264.64 152.387 265 153.503 265H156.563C157.283 265 157.679 264.82 158.111 264.316L166.535 253.804C168.875 250.888 169.595 249.772 171.251 246.64H171.467C169.991 250.168 169.523 251.176 168.803 255.352L167.327 263.524C167.147 264.64 167.435 265 168.551 265H171.467C172.547 265 172.979 264.64 173.195 263.524L177.155 240.916C177.371 239.8 177.047 239.44 175.967 239.44ZM200.846 239.44H197.93C196.814 239.44 196.418 239.8 196.202 240.916L194.726 249.376H186.014L187.49 240.916C187.706 239.8 187.382 239.44 186.302 239.44H183.386C182.306 239.44 181.874 239.8 181.658 240.916L177.662 263.524C177.482 264.64 177.77 265 178.886 265H181.802C182.882 265 183.314 264.64 183.53 263.524L185.078 254.74H193.754L192.206 263.524C192.026 264.64 192.314 265 193.43 265H196.346C197.426 265 197.858 264.64 198.038 263.524L202.034 240.916C202.25 239.8 201.926 239.44 200.846 239.44ZM204.569 248.26L203.273 255.568C202.265 261.544 205.469 265.54 212.273 265.54C219.113 265.54 223.361 262.264 224.405 256.288L225.701 248.98C226.709 243.004 223.541 238.9 216.701 238.9C209.897 238.9 205.613 242.284 204.569 248.26ZM219.977 248.476L218.645 255.964C218.141 258.772 216.161 260.176 213.101 260.176C210.077 260.176 208.565 258.772 209.069 255.964L210.401 248.476C210.869 245.668 212.885 244.264 215.909 244.264C218.969 244.264 220.445 245.668 219.977 248.476ZM242.686 239.44H232.57C231.454 239.44 231.058 239.8 230.842 240.916L226.846 263.524C226.666 264.64 226.954 265 228.07 265H238.366C243.226 265 247.222 262.768 248.05 258.16C248.59 254.992 247.726 252.652 245.674 251.716L245.71 251.572C247.69 250.348 248.662 248.944 249.13 246.496C249.886 242.392 247.474 239.44 242.686 239.44ZM243.046 247.072C242.758 248.764 241.714 249.52 240.022 249.52H235.162L236.026 244.624H240.886C242.578 244.624 243.334 245.416 243.046 247.072ZM242.038 257.224C241.714 258.988 240.67 259.816 238.87 259.816H233.362L234.298 254.596H239.806C241.57 254.596 242.326 255.496 242.038 257.224Z" fill="white"/>
</svg>
