<svg width="294" height="287" viewBox="0 0 294 287" fill="none" xmlns="http://www.w3.org/2000/svg">
<path d="M188.359 122.561L174.407 115.808C165.437 131.243 142.515 128.349 141.519 129.313C140.721 130.085 142.847 137.352 144.01 140.889C144.675 141.211 147.1 142.529 151.485 145.23C155.87 147.931 172.58 157.61 180.386 162.112L190.353 157.771C188.525 154.716 184.572 147.256 183.376 141.854C182.18 136.452 186.2 126.741 188.359 122.561Z" fill="#EB1933"/>
<path d="M236.695 96.9968V82.5268C259.816 75.9671 264.268 66.6098 263.603 62.7511H273.569C273.902 65.3236 274.566 70.7579 274.566 71.9155C274.566 73.0731 273.902 101.016 273.569 114.843L264.6 118.702C264.6 119.506 263.803 119.184 260.614 111.467C257.424 103.75 243.339 98.6046 236.695 96.9968Z" fill="#EB1933"/>
<path d="M142.017 44.4224L144.508 33.811C152.481 32.2676 172.414 20.6272 181.383 15L193.342 19.8233C193.01 20.3057 191.648 23.1032 188.858 30.4347C186.067 37.7662 187.363 46.9948 188.359 50.6927L172.912 57.4454C171.417 56.4808 167.132 53.3938 161.949 48.7634C156.767 44.133 146.502 43.9401 142.017 44.4224Z" fill="#EB1933"/>
<path d="M191.131 0.15161C179.166 0.909666 167.356 4.24511 156.634 9.70312C145.912 15.1611 136.278 22.5901 128.353 31.6867C120.428 40.6318 114.523 51.3962 110.794 62.6154C107.064 73.9863 105.821 85.9636 106.754 97.7892C108.929 121.441 121.05 144.182 139.852 159.343C149.175 166.924 160.053 172.685 171.552 176.172C183.206 179.508 195.327 180.721 207.292 179.508C183.362 180.721 159.12 172.837 141.406 157.524C132.549 149.943 124.934 140.847 119.651 130.537C114.212 120.228 110.949 109.008 110.017 97.486C108.929 85.9636 110.172 74.2895 113.591 63.3735C117.009 52.3059 122.759 42.1479 130.218 33.0512C145.135 15.1611 167.356 3.03222 191.131 0.15161Z" fill="white"/>
<path d="M238.681 171.624C248.004 167.834 256.551 162.224 264.165 155.705C266.185 154.037 267.739 152.218 269.604 150.398C271.313 148.579 272.867 146.608 274.576 144.789C275.975 142.818 277.684 140.847 279.082 138.724C280.326 136.602 281.88 134.479 282.967 132.357C287.94 123.563 291.203 114.012 292.912 104.157C293.378 101.731 293.534 99.1537 293.845 96.728C293.845 93.999 294 91.4216 294 88.9958L293.689 81.4152C293.534 78.9894 293.068 76.412 292.757 73.9863C289.027 54.2768 278.772 35.7802 263.388 22.4385C255.774 15.7676 246.916 10.4612 237.593 6.67089C228.114 2.88061 218.169 0.606445 208.069 0C218.169 1.21289 227.959 3.79028 236.971 8.03539C246.14 12.1289 254.531 17.5869 261.834 24.2578C276.285 37.448 286.23 55.3381 289.649 74.5927C289.96 77.0185 290.426 79.4443 290.737 81.7184L291.203 88.9958C291.203 91.4216 291.048 93.8473 291.048 96.2731C290.737 98.6989 290.581 101.125 290.271 103.55C288.717 113.102 285.609 122.502 281.103 131.144C280.015 133.418 278.616 135.389 277.373 137.511C276.13 139.634 274.576 141.605 273.178 143.576C271.624 145.395 270.07 147.518 268.516 149.337C266.807 151.156 265.253 152.976 263.388 154.643C255.929 161.466 247.693 167.227 238.681 171.624Z" fill="white"/>
<path d="M130.995 135.389C132.704 135.995 134.413 136.602 136.278 137.208L136.589 137.36V136.905L137.055 126.292V125.989L136.744 125.686C131.616 120.228 127.11 114.163 123.691 107.644C121.982 104.46 120.584 100.973 119.651 97.4859C118.563 93.9988 118.253 90.5118 118.408 86.8731C118.563 79.5958 120.584 72.4701 123.536 65.7992C125.09 62.4637 126.955 59.2799 129.13 56.3993C131.305 53.367 133.792 50.638 136.744 48.5155L137.055 48.2123V47.909C137.677 44.1188 138.143 40.4801 138.764 36.6898L138.92 35.9318L138.143 36.235C135.19 37.4479 132.238 38.5091 129.285 39.722C132.393 38.8124 135.501 37.9027 138.453 36.993L137.832 36.5382C136.9 40.1769 136.123 43.9671 135.19 47.6058L135.656 46.9994C132.238 49.1219 129.441 51.8509 127.11 54.8832C124.624 57.9154 122.604 61.2508 120.894 64.5863C119.185 68.0733 117.786 71.712 116.854 75.3507C115.922 79.1409 115.3 82.9312 115.145 86.7215C114.989 90.5118 115.456 94.6053 116.699 98.244C117.786 101.883 119.34 105.521 121.205 108.857C125.09 115.528 129.907 121.44 135.501 126.747L135.19 126.14L135.656 136.753L135.967 136.45C134.569 136.298 132.704 135.844 130.995 135.389Z" fill="white"/>
<path d="M180.564 13.0387L171.863 18.1934C168.91 19.8612 165.958 21.5289 163.005 23.045C160.053 24.5611 157.1 26.0772 153.993 26.9869C150.729 28.0482 147.622 29.1094 144.358 30.6256L143.892 30.7772L143.737 31.3836C143.115 33.2029 142.649 35.1739 142.027 36.9932C141.717 37.9029 141.561 38.9642 141.251 39.8738C141.095 40.3287 141.095 40.7835 140.94 41.3899C140.94 41.6932 140.784 41.8448 140.784 42.148C140.784 42.2996 140.784 42.4512 140.784 42.6028V42.9061C140.784 43.0577 140.784 43.0577 140.784 43.2093C140.784 43.3609 140.94 43.6641 140.94 43.8157C140.94 43.9673 141.561 44.5738 141.561 44.5738C141.717 44.5738 141.717 44.7254 141.872 44.7254H142.027C142.183 44.7254 142.338 44.7254 142.338 44.7254C142.804 44.7254 142.96 44.7254 143.271 44.7254C143.892 44.7254 144.358 44.7254 144.825 44.7254C145.757 44.7254 146.845 44.5738 147.777 44.5738C149.797 44.5738 151.662 44.5738 153.526 44.877C155.391 45.1802 157.256 45.6351 158.81 46.3931C160.519 47.1512 162.073 48.2125 163.627 49.2737C166.735 51.5479 169.687 54.1253 172.329 56.8543L173.106 57.6124L174.038 57.1575C179.011 54.8834 183.983 52.4576 188.956 50.1834L190.043 50.0318L189.733 49.1221C188.956 46.6963 188.179 44.2706 187.868 41.6932C187.402 39.1158 187.246 36.69 187.402 34.1126C187.557 32.8997 187.712 31.6868 188.179 30.4739C188.645 29.2611 189.266 28.0482 189.733 26.8353C190.82 24.4095 191.753 21.9837 192.84 19.5579C191.597 21.8321 190.354 24.1063 189.111 26.5321C188.489 27.7449 187.868 28.8062 187.246 30.0191C186.625 31.232 186.314 32.5965 186.003 33.961C185.537 36.69 185.692 39.2674 186.003 41.9964C186.314 44.7254 186.936 47.3028 187.712 49.8802L188.334 48.5157C183.206 50.6382 178.234 52.9124 173.106 55.035L174.815 55.3382C172.018 52.306 169.066 49.7286 165.802 47.1512C164.093 45.9383 162.384 44.877 160.519 43.9673C158.499 43.0577 156.479 42.4512 154.303 42.2996C152.128 41.9964 150.108 41.9964 148.088 41.9964C147 41.9964 146.068 42.148 144.98 42.148C144.514 42.148 144.048 42.148 143.581 42.148C143.426 42.148 143.115 42.148 143.115 42.148H143.426L143.737 42.4512C143.737 42.6028 143.892 42.6028 143.892 42.7545V42.6028C143.892 42.6028 143.892 42.4512 143.892 42.2996C143.892 42.148 143.892 41.8448 144.048 41.6932C144.048 41.2383 144.203 40.7835 144.358 40.3287C144.514 39.419 144.825 38.5093 144.98 37.4481C145.446 35.6287 145.912 33.6578 146.534 31.8384L145.912 32.5965C148.709 31.232 151.973 29.8675 155.08 28.8062C158.344 27.7449 161.296 25.9256 164.248 24.1063C167.201 22.4386 169.998 20.4676 172.795 18.4967C175.126 16.9805 177.767 15.0096 180.564 13.0387Z" fill="white"/>
<path d="M190.199 10.3095C192.53 12.1288 194.86 13.7966 197.347 15.4643L197.813 15.7675L198.434 15.4643C199.833 14.8578 201.387 14.2514 203.096 13.7966C204.65 13.3417 206.359 12.8869 207.913 12.5837C209.467 12.2805 211.177 11.9772 212.886 11.9772C214.595 11.8256 216.149 11.8256 217.858 11.9772C221.122 12.1288 224.54 12.7353 227.803 13.4933C231.067 14.2514 234.33 15.1611 237.748 16.0707C234.796 14.0998 231.688 12.7353 228.425 11.5224C225.162 10.3095 221.743 9.55146 218.169 9.24823C214.595 8.94501 211.021 9.24824 207.447 10.0063C204.029 10.916 200.61 12.1288 197.658 14.0998H198.59C195.793 12.5837 192.996 11.3708 190.199 10.3095Z" fill="white"/>
<path d="M205.893 105.218C207.758 104.46 209.623 103.55 211.487 102.944C213.352 102.186 215.217 101.731 217.237 101.124C219.101 100.67 221.122 100.063 222.986 99.76C224.851 99.4567 226.871 99.0019 228.736 99.0019H229.979L230.134 97.789C230.445 95.06 230.756 92.331 231.067 89.602C231.377 86.873 231.533 84.144 231.844 81.415V79.8989L230.6 79.7473C228.58 79.4441 226.716 79.1408 224.696 78.686C222.675 78.3828 220.811 77.7763 218.791 77.3215C216.771 76.8667 214.906 76.2602 213.041 75.5022C211.177 74.7441 209.312 73.9861 207.758 72.7732C209.001 74.4409 210.71 75.5022 212.575 76.5635C214.44 77.6247 216.304 78.3828 218.169 79.1408C222.054 80.657 225.939 81.7182 229.979 82.4763L228.736 80.9602C228.425 83.6892 228.114 86.4182 227.803 89.1472C227.493 91.8762 227.337 94.6052 227.026 97.3342L228.425 95.9697C226.094 96.1213 224.229 96.5761 222.054 97.031C220.034 97.6374 218.169 98.2439 216.149 99.0019C214.284 99.76 212.42 100.518 210.555 101.579C209.156 102.944 207.447 104.005 205.893 105.218Z" fill="white"/>
<path d="M190.199 59.4315C186.003 61.2508 181.808 63.2218 177.612 65.1927L176.99 65.4959L177.146 66.254C177.767 69.8927 178.234 73.3797 178.544 77.0184C178.855 80.6571 179.166 84.1441 179.011 87.7828C179.011 88.6925 178.855 89.4505 178.7 90.3602C178.544 91.2698 178.389 92.1795 178.234 93.0892C177.923 94.9085 177.457 96.5762 177.146 98.3956C176.369 101.883 175.437 105.521 174.504 109.008L174.349 109.918L175.126 110.221C179.788 112.495 184.449 114.618 189.111 116.589C184.915 113.708 180.564 110.979 176.214 108.402L176.68 109.615C177.923 106.128 179.011 102.641 179.943 99.002C180.409 97.1827 180.875 95.3634 181.186 93.544C181.341 92.6344 181.497 91.7247 181.652 90.815C181.963 89.9053 182.118 88.8441 182.118 87.9344C182.274 84.1441 181.963 80.3538 181.341 76.7152C180.875 73.0765 180.098 69.4378 179.166 65.7992L178.7 66.8604C182.585 64.5863 186.469 62.0089 190.199 59.4315Z" fill="white"/>
<path d="M174.815 114.467C179.166 117.196 183.672 119.773 188.179 122.502L187.868 121.592C186.159 124.473 184.915 127.505 183.983 130.537C183.051 133.721 182.585 136.905 182.585 140.24C182.585 143.576 183.362 146.911 185.071 149.944C185.848 151.308 186.625 152.824 187.402 154.189L189.266 157.372L189.733 158.282C189.888 158.434 189.888 158.434 190.043 158.737L190.51 156.311L179.477 160.253L180.875 160.405C175.126 156.311 169.221 152.218 163.161 148.427C161.607 147.518 160.053 146.608 158.499 145.698C156.79 144.789 155.236 144.182 153.526 143.424L143.892 139.028L144.514 139.634C143.737 137.663 142.96 135.54 142.649 133.418C142.494 132.357 142.338 131.295 142.338 130.234C142.338 129.173 142.494 128.112 142.804 127.353L141.872 127.808C143.892 128.112 145.757 128.263 147.777 128.263C149.797 128.263 151.662 128.112 153.526 127.808C155.391 127.505 157.411 127.05 159.12 126.444C160.985 125.837 162.694 124.928 164.248 123.866C160.83 125.686 157.1 126.595 153.371 126.899C151.506 127.05 149.642 127.05 147.777 126.899C145.912 126.747 144.048 126.595 142.183 126.141L141.561 125.989L141.251 126.595C140.629 127.808 140.474 129.021 140.318 130.234C140.318 131.447 140.318 132.66 140.474 133.721C140.629 134.934 140.94 135.995 141.251 137.208C141.561 138.269 141.872 139.482 142.338 140.544L142.649 140.998L143.115 141.15L152.594 146.002C154.148 146.76 155.857 147.518 157.256 148.276C158.81 149.034 160.208 150.095 161.762 151.005C167.667 154.795 173.416 158.889 179.166 162.831L179.788 163.285L180.564 162.982L191.597 158.889L193.307 158.282L192.063 156.614L191.597 155.856L190.976 154.947L189.733 152.976C188.956 151.611 188.179 150.247 187.402 148.882C186.003 146.305 185.071 143.273 184.915 140.24C184.605 134.176 186.314 127.808 188.956 122.199L189.266 121.592L188.8 121.289C184.138 119.015 179.477 116.589 174.815 114.467Z" fill="white"/>
<path d="M185.848 164.65C189.266 164.195 192.53 163.437 195.793 162.679H195.016C198.124 164.498 201.387 165.863 204.805 166.772C206.515 167.227 208.224 167.682 210.089 167.834C211.953 167.985 213.818 168.137 215.683 167.985C219.257 167.682 222.675 166.772 226.094 165.711C229.513 164.65 232.776 163.285 235.728 161.618C232.31 162.376 228.891 162.982 225.473 163.589C222.054 164.195 218.635 164.801 215.372 164.953C212.109 165.105 208.846 164.65 205.582 163.74C202.319 162.982 199.056 161.921 195.948 160.556L195.482 160.405L195.171 160.556C191.908 161.921 188.8 163.134 185.848 164.65Z" fill="white"/>
<path d="M241.944 157.524C245.363 156.614 248.47 154.492 251.112 152.218C253.754 149.792 256.085 147.063 257.949 144.031C258.415 143.273 258.882 142.515 259.348 141.757L260.591 139.482C261.057 138.724 261.368 137.966 261.679 137.057L262.611 134.631C263.233 132.963 263.699 131.295 264.165 129.628C264.631 127.96 264.942 126.292 265.408 124.473L264.786 125.382L270.07 121.441L275.198 117.499L273.022 116.589C273.333 118.408 273.644 120.228 273.955 122.047C274.265 123.866 274.576 125.686 274.887 127.505L275.198 128.87L276.285 128.415C277.529 127.808 278.461 127.05 279.393 126.141C280.326 125.231 281.103 124.321 281.724 123.26C282.346 122.199 282.812 121.137 283.278 119.924C283.589 118.863 283.9 117.65 283.9 116.437C283.433 117.65 283.123 118.712 282.501 119.773C282.035 120.834 281.413 121.744 280.636 122.654C279.859 123.563 279.082 124.321 278.15 124.928C277.218 125.534 276.285 126.141 275.353 126.595L276.596 127.353C276.441 125.534 276.285 123.715 276.13 121.895C275.975 120.076 275.819 118.257 275.508 116.437L275.198 114.163L273.333 115.528L262.766 123.108L262.3 123.412L262.145 124.018C261.679 125.686 261.368 127.353 261.057 128.87C260.591 130.537 260.125 132.053 259.503 133.721C258.415 136.905 257.172 140.089 255.463 142.969C253.909 145.85 251.889 148.731 249.714 151.156C247.693 153.734 245.052 156.008 241.944 157.524Z" fill="white"/>
<path d="M273.955 68.5284L273.333 91.5733C273.178 95.3635 273.022 99.3054 272.711 102.944C272.556 104.763 272.401 106.734 272.09 108.554L271.779 111.434L271.624 112.799L271.468 113.405V113.709C271.468 113.709 271.313 114.012 271.468 113.86L272.09 113.254L263.699 117.196L265.719 118.105C264.631 115.073 263.233 112.344 261.523 109.615C259.814 106.886 257.794 104.309 254.997 102.338C253.754 101.276 252.044 100.518 250.49 99.9119C248.937 99.4571 247.538 98.8506 245.984 98.3958C242.876 97.4861 240.079 96.5764 236.661 95.97L238.059 97.0313C238.059 91.5733 237.904 86.1153 237.748 80.5056L236.816 81.5669C239.768 80.6573 242.566 79.596 245.363 78.5347C248.16 77.4734 250.957 76.2605 253.598 74.7444C254.997 73.9864 256.24 73.2283 257.483 72.3186C258.726 71.409 259.969 70.4993 260.746 69.1348C261.212 68.5284 261.368 67.7703 261.679 67.1639L262.766 65.1929C263.388 63.8284 263.854 62.4639 264.32 61.0994C263.699 62.4639 263.077 63.8284 262.456 65.0413L261.368 67.0122C261.057 67.6187 260.746 68.3767 260.28 68.8316C259.503 69.8929 258.26 70.8025 257.017 71.5606C255.774 72.3186 254.531 72.9251 253.132 73.5315C250.49 74.7444 247.693 75.8057 244.896 76.7154C242.099 77.625 239.302 78.5347 236.35 79.2928L235.573 79.4444V80.354C235.418 85.812 235.418 91.27 235.262 96.8797V97.9409L236.505 98.2442C239.302 98.8506 242.41 99.7603 245.363 100.67C246.761 101.125 248.315 101.58 249.714 102.186C250.957 102.641 252.2 103.247 253.288 104.157C255.618 105.825 257.483 108.099 259.037 110.676C260.591 113.102 261.989 115.831 263.077 118.56L263.699 120.076L265.097 119.318L273.333 115.225L273.799 115.376L273.955 114.921C274.11 114.467 274.11 114.467 274.11 114.315L274.265 113.86L274.421 113.102L274.576 111.586C274.732 110.676 274.731 109.615 274.887 108.705C275.042 106.734 275.198 104.915 275.198 102.944C275.353 99.0022 275.353 95.2119 275.198 91.4216C275.042 87.6314 274.887 83.6895 274.732 79.8992C274.421 76.1089 274.265 72.3186 273.955 68.5284Z" fill="white"/>
<path d="M274.265 59.4314C273.022 57.9153 271.624 56.5508 270.225 55.1863C268.827 53.8218 267.428 52.4573 266.03 51.0928L266.496 52.0025C266.496 50.1831 266.34 48.667 266.03 46.9993C265.719 45.3316 265.408 43.8155 264.786 42.1477C263.699 38.9639 262.3 36.0833 260.436 33.2027C258.571 30.4737 256.551 27.8963 254.064 25.6221C252.977 24.4092 251.578 23.4996 250.335 22.4383C249.092 21.377 247.693 20.619 246.295 19.7093C247.383 20.9222 248.47 22.1351 249.558 23.348C250.491 24.5608 251.734 25.7737 252.666 26.9866L254.064 28.806L255.463 30.7769C256.395 31.9898 257.172 33.3543 257.949 34.7188C259.503 37.4478 260.902 40.1768 261.989 43.0574C262.456 44.5735 262.922 45.938 263.388 47.4541C263.699 48.9702 264.165 50.4864 264.32 51.8509V52.4573L264.476 52.9121C266.03 54.125 267.584 55.1863 269.293 56.2476C270.847 57.3089 272.556 58.5218 274.265 59.4314Z" fill="white"/>
<path d="M166.269 106.279C161.451 107.492 156.79 109.008 152.128 110.676C147.466 112.344 142.96 114.163 138.454 116.437C143.271 115.376 147.932 113.708 152.594 112.041C157.256 110.373 161.762 108.554 166.269 106.279Z" fill="white"/>
<path d="M165.025 96.8795C165.647 92.0279 165.958 87.0247 166.269 82.0216C166.579 77.0184 166.89 72.1668 167.046 67.1637V66.7088L166.579 66.5572C163.161 65.3443 159.742 63.9798 156.324 62.9186C154.614 62.3121 152.905 61.7057 151.196 61.0992C149.486 60.4928 147.777 59.8863 145.912 59.4315C147.622 60.1896 149.176 60.9476 150.885 61.7057C152.594 62.4637 154.303 63.0702 155.857 63.8282C159.276 65.1927 162.539 66.5572 165.958 67.9217L165.492 67.1637C165.181 72.1668 165.025 77.0184 165.025 82.0216C164.87 87.0247 164.87 91.8763 165.025 96.8795Z" fill="white"/>
<path d="M230.29 106.279C219.412 112.041 208.535 117.953 197.658 123.866L197.347 124.018V124.321C197.658 129.476 198.124 134.479 198.434 139.634L199.522 154.947V155.553H200.144C206.049 155.705 211.953 155.856 217.858 156.008L235.573 156.463H236.039L236.194 156.159L245.207 140.998C248.315 135.995 251.267 130.84 254.22 125.837V125.686L254.064 125.534L248.004 119.47L254.064 125.837V125.686C250.957 130.689 247.693 135.692 244.586 140.544L235.262 155.553L235.884 155.25L218.169 154.643C212.264 154.492 206.359 154.189 200.455 154.037L201.231 154.643L199.833 139.482C199.367 134.327 199.056 129.324 198.59 124.17L198.279 124.776C208.846 118.712 219.568 112.495 230.29 106.279Z" fill="white"/>
<path d="M244.119 60.1897C240.079 63.0703 236.194 66.1025 232.31 69.1348H232.776L224.54 64.1316C221.743 62.4639 219.101 60.7961 216.304 59.28L199.678 49.5769L199.988 50.335L202.475 34.5674C203.407 29.4126 204.184 24.1062 204.961 18.7998L204.339 19.2547L216.615 19.5579L229.047 19.7095L216.771 18.7998L204.495 18.0418H204.029L203.873 18.4966C202.941 23.6514 202.008 28.9578 201.076 34.1126L198.279 49.8801L198.124 50.335L198.59 50.6382L215.372 60.1897C218.169 61.8574 220.966 63.3735 223.763 64.8896L232.31 69.7412L232.62 69.8928L232.776 69.7412C236.505 66.5574 240.39 63.3735 244.119 60.1897Z" fill="white"/>
<path d="M248.16 32.7481C249.247 35.932 250.49 38.9642 251.889 41.8448C253.288 44.877 254.686 47.7577 256.395 50.6383L256.551 50.0318C255.774 50.6383 254.841 51.3963 254.064 52.1544C253.287 52.9124 252.511 53.5189 251.734 54.2769C252.666 53.8221 253.598 53.2157 254.531 52.6092C255.463 52.0028 256.395 51.5479 257.172 50.9415L257.483 50.6383L257.328 50.1834C256.085 47.1512 254.686 44.2706 253.132 41.2384C251.578 38.3578 250.024 35.4771 248.16 32.7481Z" fill="white"/>
<path d="M100.383 84.7505C91.5254 97.7891 82.8235 110.979 74.277 124.321C65.7305 137.511 57.3393 151.005 48.9482 164.346C40.5571 177.688 32.3214 191.182 24.0856 204.675C15.8499 218.168 7.92495 231.813 0 245.458C8.85729 232.42 17.5592 219.23 26.1057 205.888C34.6522 192.698 43.0433 179.204 51.4345 165.863C59.8256 152.521 68.0613 139.027 76.297 125.534C84.5328 112.041 92.6131 98.3956 100.383 84.7505Z" fill="white"/>
<path d="M53.4545 171.624C50.6575 174.656 48.1712 177.992 45.685 181.327C43.1987 184.662 40.8679 187.998 38.6924 191.485C36.5169 194.972 34.3414 198.459 32.166 201.946C30.1459 205.433 28.1258 209.072 26.4165 212.862C29.2135 209.83 31.6998 206.494 34.1861 203.159C36.6723 199.824 39.0032 196.488 41.1787 193.001C43.3541 189.514 45.5296 186.027 47.7051 182.54C49.7252 179.053 51.7452 175.414 53.4545 171.624Z" fill="white"/>
<path d="M99.4503 101.428C96.4979 104.763 93.7009 108.402 91.0592 111.889C88.4175 115.528 85.9313 119.166 83.445 122.805C80.9588 126.595 78.6279 130.234 76.4524 134.176C74.277 137.966 72.1015 141.908 70.2368 146.002C73.1892 142.666 75.9863 139.027 78.6279 135.54C81.2696 131.902 83.7558 128.263 86.2421 124.624C88.7283 120.834 91.0592 117.195 93.2347 113.254C95.4102 109.312 97.5856 105.37 99.4503 101.428Z" fill="white"/>
<path d="M127.265 162.376C118.719 169.956 110.483 177.84 102.247 185.724C94.0116 193.608 85.9312 201.643 77.8509 209.678C69.7706 217.714 61.8456 225.901 53.9207 234.088C45.9957 242.275 38.2262 250.613 30.612 259.104C39.1585 251.523 47.3942 243.639 55.63 235.755C63.8657 227.872 71.946 219.836 80.0264 211.801C88.1067 203.766 96.0317 195.579 103.957 187.392C111.882 179.204 119.651 170.866 127.265 162.376Z" fill="white"/>
<path d="M139.852 172.534C129.441 180.721 119.185 189.211 109.085 197.701C98.9841 206.191 88.8837 214.833 78.9387 223.475C68.9937 232.117 59.0486 240.91 49.259 249.704C39.4693 258.497 29.6797 267.442 20.0454 276.539C30.4566 268.352 40.7125 259.862 50.8129 251.371C60.9133 242.881 71.0137 234.239 80.9588 225.597C90.9038 216.956 100.849 208.162 110.638 199.369C120.584 190.575 130.218 181.63 139.852 172.534Z" fill="white"/>
<path d="M191.131 179.356C183.672 183.753 176.214 188.149 168.91 192.849C161.607 197.398 154.459 202.249 147.155 206.949C140.007 211.801 132.859 216.652 125.867 221.655C118.874 226.659 111.882 231.813 105.044 237.12C112.503 232.723 119.962 228.326 127.265 223.626C134.569 219.078 141.717 214.227 149.02 209.527C156.168 204.675 163.316 199.823 170.309 194.82C177.301 189.666 184.294 184.511 191.131 179.356Z" fill="white"/>
<path d="M110.172 243.336C103.49 246.368 96.9641 249.855 90.4376 253.191C83.9112 256.678 77.5402 260.165 71.1691 263.803C64.7981 267.442 58.427 271.081 52.2114 275.023C45.9957 278.813 39.7801 282.755 33.7198 287C40.4017 283.968 46.9281 280.632 53.4545 277.145C59.9809 273.658 66.352 270.171 72.723 266.533C79.0941 262.894 85.4651 259.255 91.6808 255.313C97.8964 251.371 104.112 247.429 110.172 243.336Z" fill="white"/>
<path d="M221.588 179.962C212.73 184.359 204.029 188.756 195.482 193.456C186.936 198.156 178.389 202.856 169.842 207.707C161.296 212.559 152.905 217.41 144.514 222.565C136.123 227.568 127.887 232.723 119.651 238.029C128.508 233.633 137.21 229.236 145.757 224.536C154.303 219.836 162.85 215.136 171.396 210.285C179.943 205.433 188.334 200.582 196.725 195.427C205.116 190.424 213.352 185.269 221.588 179.962Z" fill="white"/>
<path d="M71.4799 114.467C66.6628 123.563 63.7104 133.57 62.1564 143.727C60.7579 153.885 61.0687 164.498 63.8657 174.505C65.2643 179.508 67.2843 184.359 69.926 188.908C72.5676 193.456 75.6755 197.701 79.2495 201.491C86.5528 209.072 95.4101 214.833 104.889 219.078C95.8763 213.772 87.796 207.404 80.9587 199.824C77.6955 195.882 74.7431 191.94 72.4122 187.392C70.0814 182.995 68.2167 178.295 66.8182 173.595C65.4197 168.743 64.6427 163.892 64.3319 158.889C64.0211 153.885 64.0211 148.882 64.4873 143.879C64.9535 138.876 65.7304 133.873 66.9736 128.87C68.2167 124.018 69.7706 119.166 71.4799 114.467Z" fill="white"/>
<path d="M94.1671 258.952C89.0391 259.104 84.0666 258.497 79.4049 257.436C74.5878 256.375 69.926 254.707 65.5751 252.736C64.4874 252.281 63.3996 251.675 62.3119 251.068C61.8457 250.765 61.2241 250.462 60.758 250.158L59.204 249.249C58.1163 248.642 57.0286 248.036 56.0962 247.278C55.1639 246.52 54.0761 245.913 53.1438 245.155C52.6776 244.852 52.0561 244.397 51.5899 244.094L50.1914 242.881L47.2389 240.607C45.3742 238.939 43.5096 237.271 41.6449 235.604C43.0434 237.575 44.5973 239.697 46.1512 241.668L48.7928 244.397L50.1914 245.762C50.6576 246.217 51.1237 246.52 51.5899 246.975C55.3193 250.462 59.8256 253.039 64.332 255.465C68.9937 257.587 73.9662 259.103 79.0941 259.862C84.0666 260.316 89.3499 260.316 94.1671 258.952Z" fill="white"/>
</svg>
