<svg width="357" height="265" viewBox="0 0 357 265" fill="none" xmlns="http://www.w3.org/2000/svg">
<path d="M189.416 99.1472C184.216 102.62 175.25 106.061 171.416 107.347C168.75 107.668 162.416 108.022 158.416 106.865C153.416 105.418 146.416 101.559 141.916 89.9829C137.416 78.4069 138.416 71.1718 142.916 62.9721C147.416 54.7724 156.916 50.9137 159.916 50.4314C162.916 49.9491 173.416 49.4667 179.416 51.3961C185.416 53.3254 189.916 55.7371 194.916 62.9721C199.916 70.2071 198.416 79.3715 199.416 81.7831C200.416 84.1948 195.916 94.8062 189.416 99.1472Z" fill="#EB1933"/>
<path d="M181.887 227.377L215.67 212.794L232.769 205.459L249.95 198.211L250.61 197.952L250.858 198.642L260.77 224.271L261.101 225.047L260.357 225.392L226.656 239.976C215.422 244.894 204.106 249.554 192.872 254.386L192.46 254.559L192.294 254.127L181.887 227.377ZM181.887 227.377L193.038 253.868L192.46 253.61C203.693 248.605 214.844 243.6 226.078 238.681L259.779 223.925L259.366 225.047L249.537 199.332L250.528 199.764L233.512 206.753L216.414 213.657L181.887 227.377Z" fill="white"/>
<path d="M192.707 254.041C193.864 255.767 195.02 257.406 196.176 259.132L199.646 264.223L199.15 264.051C204.189 261.721 209.227 259.391 214.266 257.147C219.305 254.904 224.343 252.66 229.465 250.417C234.503 248.26 239.624 246.016 244.663 243.859C249.784 241.701 254.823 239.63 259.944 237.559L259.696 237.991L259.862 231.26C259.944 229.017 260.027 226.773 260.109 224.529C260.192 226.773 260.275 229.017 260.357 231.26L260.522 237.991V238.25L260.275 238.422C255.236 240.752 250.197 243.082 245.159 245.326C240.12 247.569 235.081 249.813 229.96 252.056C224.922 254.214 219.8 256.457 214.762 258.528C209.64 260.685 204.602 262.756 199.481 264.827L199.15 265L198.985 264.741L195.846 259.391C194.772 257.665 193.698 255.853 192.707 254.041Z" fill="white"/>
<path d="M225.087 209.429C223.104 204.941 221.205 200.454 219.387 195.881C217.57 191.307 215.835 186.734 214.101 182.161C212.366 177.587 210.714 172.927 209.145 168.354C207.575 163.694 206.006 159.035 204.602 154.375C206.584 158.862 208.484 163.349 210.301 167.923C212.118 172.496 213.853 177.069 215.588 181.643C217.322 186.216 218.974 190.876 220.544 195.449C222.196 200.109 223.683 204.769 225.087 209.429Z" fill="white"/>
<path d="M208.154 214.779C206.502 210.464 205.097 206.063 203.693 201.576C202.289 197.175 200.967 192.688 199.646 188.287C198.407 183.8 197.085 179.399 195.929 174.912C194.772 170.425 193.616 165.938 192.707 161.364C194.359 165.679 195.764 170.08 197.168 174.567C198.572 178.968 199.894 183.455 201.215 187.856C202.454 192.343 203.776 196.744 204.932 201.317C206.089 205.718 207.162 210.205 208.154 214.779Z" fill="white"/>
<path d="M202.289 156.014C204.271 153.684 205.923 151.009 207.41 148.334C208.154 147.04 208.897 145.659 209.558 144.279C210.219 142.898 210.879 141.517 211.54 140.05C214.018 134.355 216.083 128.487 217.735 122.533C221.122 110.539 223.022 98.1993 224.343 85.8597C224.922 79.6467 225.335 73.4337 225.335 67.2208C225.335 61.0078 224.922 54.7949 224.096 48.6682C222.526 36.3286 218.892 24.4204 213.936 13.1163L214.266 13.4614C213.11 12.7711 211.788 12.1671 210.466 11.6493C209.806 11.3904 209.145 11.1316 208.401 10.959L206.336 10.3549C203.528 9.66461 200.72 9.14686 197.829 8.8017C196.424 8.62912 194.938 8.45653 193.533 8.45653L191.386 8.37024L190.312 8.28395H189.238L184.86 8.37024L180.482 8.62912C178.996 8.71541 177.591 8.88799 176.187 9.06057C174.783 9.23315 173.296 9.40574 171.892 9.57832L167.597 10.3549L165.449 10.7001L163.301 11.2178C160.493 11.8219 157.602 12.4259 154.794 13.2888C151.985 14.0655 149.177 14.7558 146.368 15.705C135.3 19.2429 124.562 24.5067 115.311 31.8414L111.924 34.689C110.767 35.6382 109.776 36.76 108.702 37.7092C107.629 38.7447 106.637 39.8665 105.646 40.9883C105.151 41.506 104.655 42.1101 104.159 42.6278L102.755 44.3536C99.1208 49.0996 95.8993 54.2771 93.8343 59.9723C95.6515 54.1908 98.7904 48.8408 102.425 44.0948L103.746 42.2826C104.242 41.6786 104.738 41.1609 105.233 40.5568C106.224 39.435 107.133 38.227 108.289 37.1915C109.363 36.156 110.354 35.0342 111.511 33.9987L114.897 31.0648C119.523 27.3543 124.479 23.9889 129.766 21.3139C131.087 20.6236 132.409 19.9333 133.73 19.2429L137.778 17.5171L139.843 16.6542C140.173 16.4816 140.504 16.3953 140.834 16.2227L141.908 15.8776L146.121 14.4106C148.846 13.3751 151.737 12.5985 154.546 11.8219C157.354 10.959 160.245 10.3549 163.136 9.66461L165.284 9.14686L167.431 8.8017L171.809 8.02508C173.296 7.7662 174.7 7.67991 176.187 7.42104C177.674 7.24846 179.078 6.98958 180.565 6.98958L184.943 6.64442L189.321 6.55813H190.394L191.468 6.64442L193.699 6.73071C195.185 6.73071 196.672 6.90329 198.076 7.07588C201.05 7.33475 203.941 7.93879 206.832 8.62912L208.98 9.23315C209.723 9.49203 210.384 9.7509 211.127 9.92348C212.531 10.4412 213.936 10.959 215.257 11.8219L215.422 11.9082L215.505 12.1671C220.461 23.6438 224.096 35.7245 225.665 48.2367C226.491 54.4497 226.821 60.7489 226.821 67.0482C226.739 73.3475 226.326 79.5604 225.665 85.8597C224.178 98.2856 222.031 110.711 218.561 122.706C216.744 128.66 214.596 134.528 211.953 140.223C211.292 141.604 210.549 142.984 209.888 144.365C209.145 145.746 208.401 147.126 207.575 148.421C206.006 151.096 204.354 153.684 202.289 156.014Z" fill="white"/>
<path d="M95.8167 66.4442C97.7992 72.2257 100.112 77.8346 102.755 83.3572C105.316 88.8798 108.207 94.2299 111.263 99.4074C114.402 104.585 117.706 109.59 121.34 114.422C124.975 119.254 128.94 123.741 133.152 127.97C135.217 130.127 137.447 132.112 139.678 134.096C141.991 135.995 144.221 137.893 146.616 139.619L148.433 140.913C149.012 141.345 149.672 141.69 150.251 142.121C151.49 142.898 152.729 143.761 153.968 144.538L157.85 146.695L159.832 147.73L163.797 149.629C164.458 149.974 165.119 150.233 165.779 150.492L169.827 152.217L173.957 153.684C174.618 153.943 175.361 154.202 176.022 154.375L178.17 154.979C183.786 156.705 189.651 157.481 195.433 158.258L191.055 157.913L188.825 157.74C188.082 157.654 187.338 157.568 186.677 157.395L182.3 156.705C180.813 156.446 179.409 156.101 178.004 155.755L175.857 155.238C175.113 155.065 174.453 154.806 173.709 154.634L169.497 153.339L165.366 151.7C164.706 151.441 163.962 151.182 163.301 150.837L159.171 148.938L158.18 148.507L157.189 147.989L153.307 145.832C151.985 145.055 150.746 144.192 149.507 143.416C148.846 142.984 148.268 142.639 147.607 142.208L145.79 140.913C143.312 139.188 140.999 137.289 138.686 135.391C136.456 133.406 134.143 131.421 132.078 129.178C123.571 120.549 116.302 110.711 110.272 100.098C107.298 94.8339 104.49 89.3113 102.094 83.7024C100.938 80.8548 99.7816 78.0072 98.7078 75.1595C97.5514 72.3119 96.6428 69.4643 95.8167 66.4442Z" fill="white"/>
<path d="M222.113 112.437C229.134 105.361 235.164 97.2501 240.368 88.7073C242.928 84.3927 245.241 79.9056 247.141 75.2458C249.041 70.5861 250.693 65.8401 251.849 60.9215C253.006 56.0029 253.667 50.998 253.749 45.9069C253.749 44.6125 253.832 43.4044 253.749 42.1101L253.667 38.3133C253.584 35.7245 253.501 33.2221 253.419 30.7196C253.171 25.6285 252.923 20.5373 252.262 15.5324C251.932 13.03 251.602 10.5275 251.106 8.02507C251.023 7.42104 250.858 6.817 250.693 6.21296C250.528 5.60892 250.363 5.00488 250.197 4.40085C250.032 3.79681 249.784 3.27906 249.537 2.67502C249.371 2.41615 249.289 2.15728 249.124 1.8984C249.041 1.81211 248.958 1.63953 248.876 1.55324L248.793 1.46695H249.371L227.565 10.4412L227.813 9.92348L230.291 21.5728L230.373 21.8316L230.208 21.9179C226.739 23.0397 223.27 24.1615 219.8 25.197C223.27 23.9026 226.656 22.6946 230.125 21.4002L229.96 21.6591L227.152 10.0961L227.069 9.7509L227.4 9.57831L249.041 0.0862911L249.289 0L249.537 0.172582C249.619 0.258873 249.702 0.258873 249.784 0.345164L249.95 0.431456C250.032 0.517747 250.115 0.604038 250.115 0.690329C250.28 0.862911 250.363 1.03549 250.445 1.12178C250.693 1.46695 250.776 1.72582 250.941 2.07099C251.189 2.67502 251.436 3.27906 251.684 3.8831C251.932 4.48714 252.097 5.09118 252.262 5.7815C252.428 6.38554 252.593 7.07587 252.675 7.67991C253.254 10.1824 253.584 12.7711 253.914 15.2735C254.575 20.3647 254.906 25.4559 255.153 30.5471C255.236 33.1358 255.401 35.6382 255.401 38.227L255.484 42.0238C255.484 43.3181 255.484 44.6125 255.484 45.9069C255.319 51.0843 254.575 56.1755 253.419 61.1804C251.023 71.1902 246.728 80.5959 241.359 89.225C238.716 93.5396 235.742 97.5952 232.521 101.478C229.217 105.361 225.83 109.072 222.113 112.437Z" fill="white"/>
<path d="M222.196 33.8261C226.739 31.6688 231.364 29.5116 235.907 27.4406L235.66 27.7857C235.99 24.6793 236.403 21.4865 236.568 18.38C236.568 18.0348 236.568 17.6034 236.568 17.2582V16.8268C236.568 16.7405 236.568 16.6542 236.568 16.5679C236.568 16.1364 236.816 15.8776 236.981 15.705C237.312 15.2735 237.725 15.1009 238.138 14.9284C238.551 14.7558 238.881 14.5832 239.294 14.4969C240.781 13.9792 242.268 13.634 243.837 13.3751L244.333 13.2888L244.498 13.8066C247.141 21.2276 248.215 28.9075 248.628 36.6737C248.793 40.5568 248.711 44.4399 248.38 48.323C248.05 52.2061 247.472 56.0029 246.646 59.7997C245.82 63.5965 244.828 67.3071 243.589 71.0176C243.011 72.8297 242.268 74.6418 241.607 76.4539L240.45 79.1289C240.037 79.9918 239.707 80.8548 239.211 81.7177C235.907 88.621 231.777 95.0928 227.152 101.047L230.291 96.3009L231.777 93.8847C232.273 93.1081 232.769 92.2452 233.182 91.3823C234.09 89.7427 234.999 88.1032 235.825 86.3774C236.238 85.5145 236.733 84.6516 237.064 83.7887L238.22 81.1999C238.633 80.337 238.964 79.4741 239.294 78.6112L240.368 75.9362C241.029 74.1241 241.689 72.3982 242.268 70.4998C243.424 66.8756 244.415 63.1651 245.159 59.4546C246.728 51.9472 247.224 44.3536 247.059 36.6737C246.893 32.8769 246.563 29.0801 245.985 25.2833C245.406 21.5728 244.581 17.776 243.341 14.238L244.085 14.6695C242.598 14.8421 241.111 15.1872 239.79 15.6187C239.129 15.8776 238.385 16.1364 238.055 16.4816C237.972 16.5679 237.972 16.6542 237.972 16.6542V17.1719C237.972 17.6034 237.972 18.0348 237.972 18.38C237.89 20.0195 237.642 21.5728 237.477 23.126C237.229 24.6792 237.064 26.2325 236.816 27.872V28.1309L236.651 28.2172C231.53 30.1156 226.904 32.014 222.196 33.8261Z" fill="white"/>
<path d="M93.9169 69.9821C91.1911 70.7587 88.3827 71.6216 85.6569 72.3982L85.4917 72.4845L85.4091 72.3119L83.344 64.2869L83.8396 64.5457C79.7922 66.0127 75.7448 67.3933 71.6974 68.774L59.5551 73.0023L60.0507 72.1394C61.3723 76.5402 63.1069 80.8548 65.0893 85.083C67.0717 89.225 69.3019 93.2807 71.8626 97.1638C74.3406 101.047 77.149 104.671 80.1226 108.123C83.0962 111.574 86.3177 114.853 89.7869 117.787C96.7253 123.655 104.49 128.487 112.75 131.939C114.815 132.716 116.963 133.665 119.11 134.269L122.332 135.304L125.553 136.167C127.701 136.771 129.931 137.117 132.161 137.634C134.391 138.066 136.621 138.325 138.852 138.67L135.465 138.325C134.309 138.238 133.235 138.152 132.078 137.979C129.848 137.634 127.618 137.375 125.388 136.771L122.084 136.081L118.78 135.132C116.55 134.528 114.484 133.665 112.337 132.975C111.263 132.543 110.272 132.112 109.198 131.68L107.629 130.99L106.059 130.213C105.068 129.696 103.994 129.178 103.003 128.66L100.029 126.934C96.0645 124.604 92.3475 121.929 88.7957 118.909C81.7746 112.955 75.497 105.879 70.5409 98.0267C67.9803 94.0573 65.7501 90.0016 63.7677 85.6871C62.7765 83.5298 61.8679 81.3725 61.0419 79.2152C60.2159 76.9717 59.3899 74.8144 58.8117 72.4845L58.6465 71.7942L59.3073 71.6216L71.5322 67.7385C75.5796 66.4441 79.7096 65.1498 83.757 63.8554L84.1701 63.7691L84.2526 64.1143L85.9873 72.2256L85.7395 72.0531C88.3827 71.2765 91.1085 70.6724 93.9169 69.9821Z" fill="white"/>
<path d="M95.8167 79.6467C91.9345 80.8547 88.0523 81.9765 84.1701 83.1846L83.9222 83.2709L83.757 83.0983C81.692 80.1644 79.7096 77.2305 77.7272 74.3829L78.4706 74.5555L72.8538 77.5757L73.1842 76.7991C75.497 83.5298 78.6358 90.0016 82.2702 96.1283C85.9047 102.255 90.1173 107.95 95.0733 112.955C96.3123 114.249 97.5514 115.457 98.873 116.666C100.195 117.787 101.516 118.995 102.92 120.031C103.581 120.549 104.325 121.153 104.985 121.584C105.729 122.102 106.39 122.62 107.133 123.051C108.62 124 110.107 124.863 111.593 125.726C117.706 129.091 124.397 131.249 131.252 132.371C127.783 132.025 124.314 131.508 121.01 130.472L119.771 130.127L118.532 129.696C117.706 129.437 116.88 129.178 116.054 128.833C114.402 128.142 112.75 127.538 111.263 126.675C108.042 125.122 105.068 123.224 102.177 121.153C100.69 120.117 99.3686 118.995 97.9644 117.787C96.6428 116.579 95.3211 115.371 94.0821 114.077C89.0435 108.986 84.6657 103.204 81.0312 96.9049C79.214 93.7984 77.4794 90.6056 75.9926 87.2403C74.5058 83.9612 73.1016 80.5959 72.0278 77.0579L71.8626 76.5402L72.3582 76.2813L78.0576 73.4337L78.4706 73.1748L78.7184 73.6063C80.6182 76.6265 82.518 79.5604 84.4179 82.5806L84.0049 82.408C87.9697 81.5451 91.8519 80.5959 95.8167 79.6467Z" fill="white"/>
<path d="M104.325 64.1143C105.564 61.8707 107.05 59.886 108.537 57.9013C110.107 55.9166 111.759 54.0182 113.493 52.2061C116.962 48.5819 120.762 45.3028 124.81 42.3689C128.857 39.435 133.07 36.8463 137.53 34.5164C141.908 32.2729 146.534 30.3745 151.159 28.7349L154.711 27.6131L158.263 26.5777C159.419 26.2325 160.658 25.9736 161.815 25.6284C163.054 25.3696 164.21 25.0244 165.449 24.8518C167.844 24.4204 170.24 23.9026 172.718 23.6438L176.352 23.126L179.987 22.7808C189.734 21.9179 199.563 22.1768 209.31 23.2986C199.563 22.8671 189.816 23.0397 180.152 24.1615L176.518 24.593L172.883 25.1107C170.488 25.4559 168.092 25.9736 165.697 26.4914C160.989 27.6131 156.198 28.7349 151.655 30.3745C147.029 31.9277 142.569 33.8261 138.191 35.9834C133.813 38.1407 129.6 40.6431 125.553 43.4044C121.506 46.1657 117.623 49.2722 114.071 52.7239C112.254 54.4497 110.52 56.1755 108.868 58.0739C107.298 60.0586 105.646 61.957 104.325 64.1143Z" fill="white"/>
<path d="M156.776 76.1088C157.354 73.52 158.015 70.9313 158.593 68.4289L160.493 60.6627L160.576 60.4901L160.823 60.4038L171.149 56.0892L171.727 55.8304L171.975 56.4344L182.63 83.6161L186.43 93.5396L185.604 93.7984L178.5 96.1283L171.314 98.4582L170.736 98.6307L170.488 98.0267L166.605 87.6718C165.284 84.2201 164.045 80.7685 162.806 77.3168L163.136 77.4894L158.015 79.3015H157.932V79.2152L156.776 76.1088ZM156.776 76.1088L158.015 79.0427L157.85 78.9564L162.888 76.7991L163.136 76.7128L163.219 76.9717C164.623 80.337 166.11 83.7024 167.431 87.154L171.562 97.3364L170.736 96.9049L184.943 92.0726L184.447 93.1944L180.895 84.1338L177.591 75.0733L174.122 66.0127L170.736 56.8659L171.562 57.211L161.071 61.1804L161.319 60.8352L159.089 68.4289C158.345 71.0176 157.602 73.6063 156.776 76.1088Z" fill="white"/>
<path d="M151.737 50.3077C145.955 54.6223 141.412 60.9215 139.678 68.0837C138.769 71.6216 138.604 75.3321 139.099 78.9564C139.512 82.5806 140.669 86.1185 142.073 89.4839C143.56 92.8492 145.377 96.042 147.442 98.9759C149.59 101.824 152.15 104.326 155.289 105.965C158.345 107.605 161.815 108.295 165.284 108.382C168.753 108.382 172.222 107.605 175.526 106.397C178.83 105.189 181.969 103.549 184.86 101.478C187.751 99.4074 190.477 97.0775 192.707 94.2299C193.864 92.8492 194.855 91.3823 195.763 89.829C196.589 88.2758 197.333 86.6363 197.746 84.9105C197.911 84.0475 198.076 83.1846 198.076 82.3217C198.076 81.8903 198.076 81.4588 198.076 80.9411L197.994 79.5604C197.911 77.7483 197.829 75.8499 197.581 74.0378C197.168 70.4136 196.507 66.703 195.268 63.3377C194.029 59.886 192.129 56.7796 189.568 54.2771C187.008 51.7747 183.869 49.9626 180.482 48.7545C177.096 47.5464 173.544 46.9424 169.992 46.6835C173.544 46.7698 177.096 47.2875 180.565 48.323C184.034 49.3585 187.338 51.0843 190.064 53.6731C192.79 56.1755 194.855 59.4546 196.176 62.9925C197.581 66.5304 198.324 70.241 198.737 73.9515C198.985 75.8499 199.15 77.662 199.233 79.5604C199.233 79.9919 199.315 80.5096 199.315 80.9411C199.315 81.3725 199.398 81.8903 199.315 82.408C199.315 83.4435 199.15 84.3927 198.985 85.3419C198.572 87.2403 197.746 89.0524 196.92 90.692C196.011 92.3315 194.938 93.8847 193.781 95.3517C191.386 98.2856 188.66 100.788 185.686 102.945C182.713 105.103 179.409 106.828 176.022 108.123C172.553 109.331 168.918 110.107 165.284 110.107C161.649 110.107 157.932 109.245 154.628 107.432C151.324 105.707 148.516 103.032 146.368 100.011C144.221 96.9049 142.403 93.6259 140.999 90.1742C139.595 86.7226 138.521 83.0121 138.108 79.3015C137.695 75.5047 137.943 71.7079 138.934 68.0837C139.925 64.4595 141.66 61.0941 143.89 58.0739C146.038 54.8812 148.681 52.2924 151.737 50.3077Z" fill="white"/>
<path d="M40.1439 39.3487C37.9137 40.8157 35.6835 42.2826 33.5359 43.6633L33.4533 43.0593C37.9963 43.4907 42.4567 44.0085 46.9998 44.4399L47.4954 44.5262L47.578 45.0439L48.2388 52.465C48.4866 54.9674 48.6518 57.3836 48.8996 59.886L47.3302 59.7997L48.404 50.9117L49.5604 42.0238L49.643 41.506L50.056 41.3334L57.6553 38.4858L57.8205 39.8665L49.5604 39.0036H49.23L49.0648 38.7447C47.7432 35.9834 46.4216 33.2221 45.1826 30.4608L45.7608 30.3745L45.1826 34.1713C45.0174 35.4656 44.7696 36.76 44.6044 37.9681C44.687 36.6737 44.7696 35.3793 44.8522 34.085L45.1826 30.2019L45.2652 29.2527L45.7608 30.1156C47.2476 32.7906 48.6518 35.4656 50.056 38.1407L49.643 37.7955L57.7379 38.4858L60.7115 38.7447L57.9031 39.8665L50.3864 42.8867L50.882 42.1963L49.8082 51.0843L48.7344 60.1449L47.7432 67.9111L47.165 60.1449C46.9998 57.6425 46.8346 55.14 46.6694 52.7239L46.1738 45.3028L46.752 45.9069C42.2915 45.2165 37.7485 44.5262 33.2881 43.7496L32.3795 43.577L33.2055 43.1455C35.5183 41.8512 37.7485 40.5568 40.1439 39.3487Z" fill="white"/>
<path d="M53.9382 138.497C52.2036 137.979 50.3864 137.375 48.6518 136.771L47.7432 136.513L48.6518 136.254C51.3776 135.563 54.1034 134.873 56.8292 134.183L56.4162 134.614L58.0682 127.452L58.729 124.518L59.3899 127.452C60.0507 130.386 60.7941 133.32 61.4549 136.34L61.0419 135.736C64.2633 137.289 67.5673 138.842 70.7887 140.396L74.5884 142.208L70.3757 141.949C68.4759 141.863 66.5761 141.69 64.5937 141.517C62.6939 141.345 60.7941 141.259 58.8116 141.086L59.4725 140.482L58.8116 145.746C58.5638 147.471 58.316 149.284 58.0682 151.009L57.6552 153.598L57.4074 151.009C57.1596 148.593 56.9118 146.177 56.664 143.761C57.1596 146.177 57.5726 148.507 58.0682 150.923H57.4074C57.49 149.197 57.6552 147.385 57.8204 145.659L58.2334 140.396L58.316 139.792H58.9768C60.8767 139.878 62.8591 139.964 64.7589 140.05C66.6587 140.137 68.6411 140.223 70.5409 140.309L70.1279 141.863C66.9065 140.309 63.6025 138.842 60.3811 137.203L60.0507 137.03L59.9681 136.599C59.3073 133.665 58.729 130.645 58.0682 127.711H59.4725L57.5726 134.787L57.49 135.132L57.1596 135.218C54.4338 135.736 51.6254 136.254 48.8996 136.685V136.167C50.469 136.944 52.2036 137.721 53.9382 138.497Z" fill="white"/>
<path d="M0 100.529C1.81721 99.9251 3.71703 99.4073 5.61684 98.8896L5.28644 99.2348C4.95604 97.3364 4.70824 95.438 4.37783 93.5396L3.96483 90.6057L5.53424 93.1081C6.52545 94.7476 7.51666 96.3009 8.50787 97.9404L8.01226 97.5952C9.74688 97.8541 11.4815 98.1993 13.2161 98.5444L14.4551 98.8033L13.7943 99.9251C12.6379 101.824 11.3989 103.636 10.1599 105.448C9.58167 106.397 8.92087 107.26 8.34266 108.209L6.52545 110.97L5.20384 112.955L5.28644 110.539C5.45164 107.691 5.61684 104.844 5.78204 101.996L6.11245 102.341C4.54304 102.255 2.89102 102.169 1.32161 101.996C2.89102 101.823 4.54304 101.737 6.11245 101.651H6.44285V101.996C6.52545 104.844 6.60805 107.691 6.60805 110.539L5.36904 110.107L7.10366 107.26C7.68186 106.311 8.26006 105.361 8.83827 104.412C9.99468 102.514 11.2337 100.702 12.3901 98.8033L12.8857 100.098C11.1511 99.7525 9.41647 99.4073 7.68186 99.0622L7.35146 98.9759L7.18626 98.717C6.27765 97.0775 5.36904 95.3517 4.46043 93.7121L5.61684 93.2807C5.78204 95.1791 5.94725 97.0775 6.02985 99.0622V99.4936L5.78204 99.5799C3.79963 99.9251 1.89981 100.27 0 100.529Z" fill="white"/>
<path d="M284.064 33.6535C284.311 31.5825 284.642 29.4253 284.972 27.3543C285.303 25.2833 285.633 23.2123 285.963 21.055L286.707 16.2227L287.037 21.1413L287.45 26.9228L287.781 32.7043L287.037 31.9277C289.515 32.014 291.993 32.014 294.471 32.1003L296.784 32.1866L294.967 33.6535L290.093 37.4503L290.424 36.9326L289.02 43.4044L288.524 45.8206L287.781 43.4907C287.037 41.3334 286.376 39.2624 285.716 37.1052L286.129 37.4503C284.146 37.1915 282.246 36.8463 280.347 36.5011L279.851 36.4148L280.264 36.156C281.173 35.4656 282.081 34.7753 283.072 34.1713C282.246 34.9479 281.42 35.7245 280.594 36.5011L280.512 36.156C282.494 36.3285 284.477 36.4148 286.376 36.5874H286.624L286.707 36.8463C287.533 38.9173 288.359 40.9883 289.185 43.0593L287.863 43.1455L289.102 36.5874L289.185 36.3285L289.433 36.156L294.223 32.2729L294.719 33.8261C292.241 33.7398 289.763 33.6535 287.285 33.5672H286.542V32.7906L286.211 21.1413L287.368 21.2276C286.872 23.2986 286.459 25.3696 285.881 27.3543C285.055 29.5115 284.642 31.5825 284.064 33.6535Z" fill="white"/>
<path d="M304.301 119.168C305.127 115.63 305.87 112.265 306.779 108.986L307.357 106.57L307.853 109.072C308.513 112.437 309.092 115.716 309.67 119.082L309.174 118.478L315.782 121.153H307.935L308.761 120.29V129.005L307.357 126.848C306.201 125.122 305.044 123.396 303.888 121.584L304.466 121.843C302.318 121.843 300.088 121.757 297.941 121.757L294.802 121.67L297.858 120.894C299.84 120.204 301.988 119.686 304.301 119.168ZM304.301 119.168C302.236 120.031 300.088 120.808 297.941 121.67L297.775 120.808C299.923 120.635 302.153 120.549 304.301 120.376H304.631L304.879 120.721C306.118 122.447 307.274 124.087 308.513 125.812L307.109 126.33V119.427H311.487L311.157 121.066L308.596 120.031L308.183 119.858L308.1 119.427C307.605 116.062 307.192 112.696 306.779 109.331L307.853 109.417C306.696 112.696 305.457 115.975 304.301 119.168Z" fill="white"/>
<path d="M348.079 61.6119C348.823 59.282 349.566 56.5207 350.475 53.8457L350.97 52.3787L351.548 53.8457C351.961 54.8812 352.374 55.9166 352.787 56.9521C353.2 57.9876 353.613 59.0231 354.026 60.1449L353.366 59.6272L355.596 59.7135L357 59.7997L356.257 61.0078C355.761 61.8707 355.265 62.6474 354.687 63.5103L354.77 63.2514C354.522 64.2869 354.274 65.2361 353.944 66.2716L353.118 69.2918L351.961 73.2612L351.714 69.2055C351.548 67.0482 351.466 64.8046 351.383 62.6474L351.631 62.9925C350.392 62.5611 349.153 62.0433 348.079 61.6119ZM348.079 61.6119C349.483 61.8707 350.722 62.0433 351.961 62.3022H352.209L352.292 62.5611C352.622 64.7183 352.953 66.8756 353.283 69.0329L351.879 68.9466L352.622 65.9264C352.87 64.8909 353.118 63.9417 353.366 62.9062V62.8199L353.448 62.7336C353.944 61.8707 354.439 61.0078 355.018 60.2312L355.678 61.5256L353.448 61.353H352.953L352.787 60.8352C352.457 59.7997 352.044 58.678 351.714 57.6425C351.383 56.607 351.053 55.4852 350.722 54.4497H351.796C350.557 56.607 349.318 58.9368 348.079 61.6119Z" fill="white"/>
<path d="M112.75 83.3572C113.328 79.8193 114.237 76.3676 115.31 72.916C116.384 69.4643 117.706 66.1853 119.275 62.9062C120.927 59.7134 122.579 56.5207 124.81 53.7594C126.957 50.9118 129.518 48.323 132.491 46.5972C129.931 49.0133 127.783 51.6884 125.801 54.6223C125.305 55.3989 124.892 56.0892 124.397 56.8658L123.075 59.1094C122.662 59.886 122.249 60.6626 121.836 61.4393C121.423 62.2159 121.01 62.9925 120.68 63.7691C119.11 66.8756 117.789 70.1547 116.384 73.4337C115.145 76.6265 113.906 79.9919 112.75 83.3572Z" fill="white"/>
<path d="M142.734 126.244C142.899 124.777 143.229 123.396 143.642 122.102C144.055 120.721 144.469 119.427 144.964 118.133C145.46 116.838 146.038 115.544 146.616 114.249C147.194 112.955 147.855 111.747 148.681 110.539C148.516 112.006 148.186 113.387 147.773 114.681C147.36 116.062 146.947 117.356 146.451 118.65C145.955 119.945 145.377 121.239 144.799 122.533C144.221 123.828 143.56 125.036 142.734 126.244Z" fill="white"/>
<path d="M195.516 49.0133C196.259 47.2875 197.168 45.5617 198.159 43.9222C199.068 42.2826 200.141 40.7294 201.133 39.0899C202.206 37.5366 203.28 35.9834 204.437 34.5164C205.593 33.0495 206.749 31.5825 208.154 30.2019C207.41 31.9277 206.502 33.6535 205.51 35.2931C204.602 36.9326 203.528 38.4858 202.537 40.1254C201.463 41.6786 200.389 43.2318 199.233 44.6988C198.076 46.252 196.837 47.6327 195.516 49.0133Z" fill="white"/>
<path d="M167.349 139.274C170.075 134.355 172.966 129.609 175.939 124.863C178.913 120.117 182.052 115.544 185.273 110.97C188.495 106.397 191.881 101.91 195.351 97.6815C198.902 93.367 202.619 89.225 206.915 85.7733L205.51 87.3266C205.015 87.8443 204.519 88.2758 204.106 88.8798C203.198 89.9153 202.289 90.9508 201.463 92.0726L198.902 95.3517L196.424 98.6307C194.772 100.874 193.12 103.032 191.468 105.361C189.816 107.605 188.247 109.849 186.595 112.178L177.013 125.812C173.874 130.213 170.653 134.787 167.349 139.274Z" fill="white"/>
<path d="M185.273 132.284C188.66 127.02 192.212 121.843 196.011 116.838C197.911 114.336 199.811 111.833 201.793 109.417C203.776 107.001 205.841 104.671 208.319 102.514C208.401 102.428 208.484 102.341 208.567 102.341L208.649 102.255H208.732L208.897 102.082C208.897 102.082 208.897 102.082 208.98 102.082C209.145 102.082 209.31 102.082 209.475 102.082C209.806 102.255 209.971 102.428 210.053 102.686C210.053 102.859 210.053 103.032 210.053 103.118C210.053 103.204 210.053 103.204 210.053 103.204C210.053 103.29 209.971 103.377 209.971 103.377L209.888 103.463L209.806 103.636L209.64 103.894L208.897 104.844L207.41 106.656C206.419 107.864 205.51 109.072 204.519 110.28C202.619 112.696 200.802 115.199 198.985 117.787C197.25 120.376 195.598 123.051 194.359 125.899C193.699 127.279 193.12 128.746 192.79 130.3C192.459 131.853 192.294 133.406 192.707 134.959C192.129 133.492 192.129 131.766 192.377 130.213C192.625 128.66 193.12 127.107 193.616 125.554C194.772 122.533 196.259 119.772 197.911 117.097C199.563 114.422 201.38 111.833 203.28 109.331C204.189 108.036 205.18 106.828 206.171 105.62L207.658 103.808L208.319 102.859L208.567 102.6V102.773C208.567 102.859 208.567 103.032 208.567 103.204C208.567 103.377 208.649 103.463 208.732 103.549C208.814 103.636 208.897 103.722 209.062 103.808C209.227 103.894 209.393 103.894 209.475 103.808H209.558L209.393 103.981C207.08 105.879 205.097 108.209 203.032 110.539C200.967 112.869 199.068 115.285 197.085 117.701L185.273 132.284Z" fill="white"/>
</svg>
