<svg width="367" height="484" viewBox="0 0 367 484" fill="none" xmlns="http://www.w3.org/2000/svg">
<path d="M140.863 327.863C131.483 332.641 123.255 339.296 116.179 347.145C112.724 351.241 109.597 355.507 106.964 360.285C106.306 361.479 105.812 362.674 105.154 363.868C104.66 365.063 103.837 366.257 103.508 367.452C102.521 370.011 101.369 372.4 100.875 375.13C99.2297 380.25 98.2423 385.54 96.7613 390.659C95.2802 395.778 93.6346 400.897 91.6599 405.675C89.6852 410.624 87.3813 415.402 84.5838 419.839C83.1028 422.057 81.6217 424.105 79.9761 426.152C79.1533 427.176 78.166 428.029 77.1786 428.883C76.1912 429.736 75.2039 430.76 74.3811 431.784C67.305 439.633 60.7226 447.995 53.9756 456.015C52.9883 457.039 52.33 458.233 51.6718 459.598C51.0135 460.793 50.5199 462.158 50.3553 463.523C49.8616 466.253 50.3553 469.495 52.0009 471.714C52.33 472.226 52.8237 472.908 53.3174 473.42C53.8111 473.932 54.3048 474.444 54.7984 474.785C55.7858 475.639 56.7731 476.662 57.7605 477.516C59.7352 479.222 61.8745 480.758 64.3429 481.952C66.8113 483.147 69.4443 483.829 72.0772 483.659C74.5456 483.659 77.1786 484 79.8116 484C81.128 484 82.4445 484 83.761 483.659C84.4192 483.488 85.0775 483.147 85.7357 482.805C86.394 482.464 86.8876 481.782 87.2168 481.27C88.5332 478.881 88.8624 475.639 87.5459 473.079C86.8876 471.884 85.7357 470.861 84.5838 470.178C83.2673 469.666 81.9508 469.495 80.6344 469.495C78.0014 469.495 75.533 469.495 72.9 469.325C70.2671 469.154 67.7987 468.984 65.1657 468.472C63.8492 468.13 62.6973 467.789 61.3808 467.448C60.2289 466.936 59.077 466.253 58.0896 465.4C59.077 466.424 60.2289 467.106 61.3808 467.618C62.5328 468.13 63.8492 468.472 65.1657 468.813C67.6341 469.495 70.2671 469.666 72.9 470.007C75.533 470.178 78.166 470.349 80.6344 470.349C81.9508 470.349 83.1028 470.519 84.2547 471.031C85.4066 471.543 86.2294 472.396 86.8876 473.591C88.0396 475.809 87.7104 478.71 86.394 480.928C85.9003 481.952 84.7484 482.635 83.5964 482.805C82.4445 483.147 81.128 483.147 79.8116 483.147C77.1786 483.147 74.7102 482.805 72.0772 482.805C69.6088 482.805 67.1404 482.294 64.8366 481.099C62.5328 479.905 60.558 478.369 58.5833 476.662C56.6086 474.956 54.6339 473.25 53.1528 471.202C51.6718 469.154 51.3427 466.595 51.6718 464.035C52.1655 461.646 53.3174 459.086 54.963 457.38C61.8745 449.189 68.4569 440.998 75.533 433.149C76.3558 432.125 77.3432 431.272 78.166 430.418C79.1533 429.565 80.1407 428.541 80.9635 427.518C82.7736 425.47 84.4192 423.251 85.7357 421.033C88.6978 416.426 90.8371 411.648 92.9764 406.699C94.9511 401.751 96.5967 396.631 98.0777 391.341C99.5588 386.222 100.546 380.762 102.027 375.813C102.685 373.253 103.673 370.864 104.496 368.305C104.825 367.11 105.647 365.916 106.141 364.721C106.799 363.527 107.293 362.332 107.951 361.138C110.42 356.53 113.546 352.094 116.838 347.998C123.585 339.808 131.648 332.811 140.863 327.863Z" fill="white"/>
<path d="M85.2419 471.202C84.9128 470.861 84.9128 470.178 84.9128 469.837C84.9128 469.325 85.0774 468.813 85.2419 468.301C85.5711 467.277 86.0647 466.424 86.5584 465.4C87.5458 463.523 88.5331 461.646 89.6851 459.939C91.8243 456.356 94.4573 453.284 96.7611 449.36C97.7485 447.483 98.5713 444.923 97.913 442.705C97.4194 440.316 95.9383 438.439 94.2927 437.073C92.4826 435.708 90.5079 434.855 88.5331 434.343C86.5584 434.002 84.2546 433.661 82.2798 434.514C84.2546 434.172 86.3938 434.514 88.204 435.196C90.0142 435.879 91.9889 436.732 93.3054 438.097C94.7864 439.462 95.9383 440.998 96.2675 443.046C96.5966 444.923 96.1029 446.8 95.1155 448.506C94.1282 450.213 92.9763 451.919 91.8243 453.796C90.6724 455.503 89.5205 457.38 88.5331 459.257C87.5458 461.134 86.5584 463.011 85.9002 465.059C85.571 466.082 85.2419 467.106 84.9128 468.13C84.7482 468.642 84.7482 469.154 84.7482 469.666C84.7482 470.349 84.7483 471.031 85.2419 471.202Z" fill="white"/>
<path d="M96.9258 442.193C104.002 438.268 111.078 434.343 118.154 430.248C121.61 428.2 125.066 425.982 128.521 423.763C131.977 421.545 135.268 419.156 138.559 416.596C144.977 411.648 151.066 405.846 156.003 399.02C158.307 395.437 160.281 391.853 162.421 388.44C164.56 384.857 166.535 381.273 168.674 377.861C172.953 370.864 177.396 363.868 182.826 357.725C183.484 357.042 184.143 356.189 184.965 355.507C185.624 354.824 186.446 354.141 187.269 353.629C188.915 352.435 190.56 351.241 192.206 350.046C195.497 347.657 198.788 345.268 202.08 342.708C208.333 337.589 214.422 331.617 218.207 324.108L219.523 321.208L222.979 312.505L227.422 300.901C224.131 308.409 221.004 316.259 217.548 323.767C213.763 331.105 207.675 336.736 201.257 341.685C198.13 344.244 194.674 346.463 191.383 348.852C189.738 350.046 188.092 351.07 186.446 352.435C185.624 353.118 184.801 353.8 183.978 354.483C183.155 355.165 182.497 355.848 181.839 356.701C176.244 362.844 171.801 369.84 167.522 377.007C165.383 380.591 163.408 384.174 161.269 387.758C159.129 391.341 157.155 394.925 155.015 398.338C150.408 404.993 144.319 410.624 138.066 415.743C124.901 425.811 110.749 433.831 96.9258 442.193Z" fill="white"/>
<path d="M188.586 276.841C194.016 281.789 199.776 286.055 205.864 290.151C211.953 294.076 218.371 297.659 225.118 300.219C228.574 301.584 232.03 302.437 235.65 302.949C239.27 303.461 242.89 303.631 246.511 303.631C250.131 303.631 253.751 303.29 257.372 302.778C260.992 302.096 264.448 301.242 267.904 299.707L268.726 299.365L268.233 298.512C265.6 294.587 263.131 290.663 260.828 286.567C258.524 282.472 256.22 278.376 254.574 273.94L254.081 272.233L253.751 270.527C253.751 270.015 253.751 269.503 253.751 268.991C253.751 268.309 253.916 267.797 253.916 267.114C254.081 264.725 254.245 262.336 254.41 259.947C254.574 255.169 254.574 250.391 254.41 245.613C254.245 243.224 254.245 240.835 253.916 238.446C253.587 236.057 253.258 233.668 252.27 231.279C250.296 226.843 247.992 222.747 245.853 218.481C243.713 214.215 241.574 209.949 239.928 205.512C239.106 203.294 238.283 201.076 238.283 198.687L238.118 191.52L237.954 198.687C237.954 201.076 238.612 203.465 239.435 205.683C240.916 210.29 242.89 214.556 245.03 218.822C247.004 223.088 249.308 227.355 251.118 231.621C252.106 233.668 252.27 236.057 252.6 238.446C252.764 240.835 252.929 243.224 252.929 245.613C253.093 250.391 252.929 255.169 252.764 259.947C252.6 262.336 252.435 264.725 252.27 267.114C252.27 267.626 252.106 268.309 252.106 268.82C251.941 269.332 252.106 270.186 252.106 270.868L252.435 272.745L252.929 274.452C254.574 279.059 256.878 283.154 259.182 287.42C261.65 291.516 264.119 295.441 266.752 299.536L267.081 298.342C263.954 299.877 260.498 300.731 257.043 301.413C253.587 301.925 249.967 302.266 246.511 302.266C242.89 302.266 239.435 302.096 235.814 301.754C232.359 301.242 228.903 300.56 225.447 299.365C218.7 296.976 212.282 293.564 206.194 289.809C200.105 285.714 194.345 281.448 188.586 276.841Z" fill="white"/>
<path d="M249.967 241.859C246.676 245.272 242.562 247.832 238.118 249.197C233.675 250.732 229.068 251.415 224.46 251.586C222.156 251.756 219.852 251.586 217.548 251.415C215.245 251.244 212.941 250.903 210.637 250.562C208.333 250.05 206.029 249.709 203.725 249.197L196.978 247.49H197.143C190.89 244.077 184.801 240.153 178.877 236.057C172.953 231.962 167.358 227.525 162.256 222.406C159.788 219.846 157.319 217.116 155.674 214.044C154.851 212.509 154.028 210.802 153.535 209.096C153.041 207.389 153.205 205.683 153.205 203.806C153.37 200.052 153.699 196.468 154.193 192.885C154.522 191.008 154.851 189.301 155.18 187.424C155.674 185.718 156.003 183.841 156.99 182.134C155.18 185.377 154.522 189.131 153.699 192.714C153.041 196.298 152.547 200.052 152.218 203.806C152.054 205.683 151.889 207.56 152.383 209.437C152.876 211.314 153.535 213.021 154.522 214.727C156.332 217.969 158.636 220.87 161.269 223.6C166.37 228.89 172.13 233.498 177.889 237.593C183.814 241.859 189.902 245.613 196.32 249.026L203.232 250.732C205.536 251.244 207.839 251.586 210.143 252.098C214.751 252.61 219.523 253.121 224.295 252.78C229.068 252.439 233.675 251.756 238.118 250.05C242.726 248.173 246.84 245.613 249.967 241.859Z" fill="white"/>
<path d="M185.295 230.255C183.32 228.037 181.345 225.819 179.37 223.6C177.396 221.382 175.586 218.993 173.775 216.775C170.155 212.167 166.535 207.389 163.902 202.099C162.585 199.54 161.598 196.809 161.269 193.909C160.94 190.837 160.446 187.936 159.788 184.865C159.13 181.964 158.307 179.063 157.155 176.162C156.003 173.432 154.522 170.701 152.876 168.142C155.674 173.432 157.484 179.233 158.636 185.035C159.13 187.936 159.623 191.008 159.788 193.909C160.117 196.98 161.104 200.052 162.585 202.782C165.383 208.243 169.168 213.02 172.953 217.457C176.737 222.064 180.851 226.331 185.295 230.255Z" fill="white"/>
<path d="M96.9258 439.804C99.8879 431.784 104.496 424.446 109.761 417.962C112.394 414.719 115.357 411.818 118.648 409.088C120.129 407.723 121.939 406.529 123.585 405.163C125.23 403.798 127.04 402.604 128.521 401.239C134.939 395.608 140.205 388.782 144.648 381.615C146.952 378.031 148.927 374.277 150.901 370.352C152.876 366.428 154.522 362.674 156.167 358.578V358.749C158.142 355.507 160.281 352.264 162.585 349.193C164.889 346.121 167.193 343.05 169.99 340.49C170.649 339.808 171.307 339.296 172.13 338.613C172.788 337.931 173.611 337.248 174.269 336.395L175.256 335.2C175.585 334.859 175.75 334.347 176.079 334.006C176.573 333.153 177.067 332.299 177.56 331.446C179.37 327.863 180.851 324.279 182.168 320.525C184.636 313.017 186.611 305.509 188.092 297.659C188.75 293.734 189.244 289.81 189.409 285.885C189.573 281.96 189.409 278.035 188.915 273.94C188.421 270.015 187.598 266.09 185.953 262.336C184.472 258.582 182.332 255.169 179.535 252.439C178.877 251.756 178.054 251.074 177.396 250.562C176.737 249.879 175.75 249.367 174.927 248.855C173.282 247.661 171.471 246.978 169.661 246.466C165.876 245.272 162.092 245.101 158.307 245.443C150.737 245.955 143.332 248.002 136.091 250.221C132.471 251.415 128.85 252.78 125.395 253.975C123.585 254.657 121.774 255.34 119.964 255.681L114.369 256.193L119.964 255.852C121.774 255.51 123.585 254.828 125.395 254.316C129.015 253.122 132.635 251.927 136.256 250.733C143.496 248.514 150.901 246.637 158.471 246.296C162.256 246.125 166.041 246.466 169.497 247.49C171.307 248.002 172.953 248.855 174.434 249.879C175.256 250.391 176.079 250.903 176.737 251.586C177.396 252.268 178.218 252.78 178.877 253.463C181.51 256.193 183.484 259.435 184.965 263.019C186.446 266.602 187.269 270.356 187.763 274.281C189.573 289.809 185.788 305.338 180.851 320.013C179.535 323.597 178.218 327.351 176.408 330.764C175.915 331.617 175.585 332.47 175.092 333.323C174.763 333.664 174.598 334.176 174.269 334.518L173.446 335.712C172.953 336.565 172.294 337.077 171.636 337.76C170.978 338.442 170.155 338.954 169.497 339.808C166.699 342.538 164.231 345.609 161.927 348.681C159.623 351.923 157.484 355.165 155.509 358.408C152.547 366.257 148.762 373.936 144.319 381.103C140.041 388.27 134.775 395.096 128.686 400.727C127.205 402.092 125.395 403.286 123.914 404.651C122.268 406.017 120.622 407.211 118.977 408.576C115.85 411.307 112.888 414.378 110.255 417.791C104.166 424.275 99.7233 431.784 96.9258 439.804Z" fill="white"/>
<path d="M142.509 248.514C140.37 255.34 139.876 262.677 139.382 269.844C139.053 277.011 139.382 284.349 139.711 291.516L140.534 302.266C140.863 305.85 140.863 309.433 141.192 313.017C141.357 316.6 141.522 320.184 141.357 323.767C141.357 325.644 141.357 327.351 141.192 329.057C141.192 329.91 141.028 330.764 140.863 331.787C140.699 332.641 140.534 333.494 140.041 334.347C141.028 332.811 141.357 330.934 141.522 329.228C141.851 327.521 142.015 325.644 142.18 323.767C142.344 320.184 142.344 316.6 142.344 312.846C142.344 305.679 141.686 298.342 141.357 291.175C140.863 284.008 140.699 276.841 140.699 269.674C140.699 266.09 140.863 262.507 141.028 258.923C141.357 255.51 141.686 251.927 142.509 248.514Z" fill="white"/>
<path d="M150.243 210.29C143.99 214.215 138.23 218.993 132.8 224.112C127.369 229.402 122.597 235.204 118.812 241.688C117.825 243.224 117.002 245.101 116.179 246.808C115.356 248.514 114.863 250.391 114.534 252.439C113.875 256.364 114.698 260.63 117.002 263.701C119.306 266.943 122.433 269.162 125.559 271.039C128.85 272.745 132.306 274.11 135.926 274.793C132.471 273.769 129.015 272.233 125.888 270.356C122.762 268.479 119.8 266.09 117.989 263.019C117.002 261.483 116.344 259.776 116.015 258.07C115.686 256.364 115.686 254.487 116.015 252.78C116.344 251.074 117.002 249.197 117.66 247.661C118.483 245.954 119.306 244.248 120.293 242.712C123.914 236.228 128.686 230.426 133.787 225.136C136.256 222.406 139.053 219.846 141.851 217.457C144.484 214.898 147.281 212.509 150.243 210.29Z" fill="white"/>
<path d="M142.509 229.232C141.028 229.232 139.547 229.573 138.23 230.426C137.572 230.938 137.078 231.45 136.585 232.132C136.42 232.474 136.256 232.815 136.091 233.327C135.927 233.668 135.762 234.18 136.091 234.692C136.42 235.204 136.914 235.375 137.243 235.375C137.737 235.375 138.066 235.375 138.395 235.375C139.218 235.375 139.876 235.204 140.699 235.204L145.142 234.521C150.902 233.668 156.99 233.156 162.256 235.545C164.889 236.569 167.522 238.105 169.99 239.811C172.459 241.518 174.763 243.395 176.902 245.443C179.041 247.49 181.181 249.709 182.826 252.098C184.636 254.487 186.117 257.217 186.94 260.118C186.446 257.046 185.13 254.145 183.484 251.586C181.839 249.026 179.864 246.637 177.725 244.419C173.446 239.982 168.509 236.398 162.75 234.01C159.952 232.815 156.826 232.132 153.699 232.303C150.572 232.303 147.61 232.644 144.648 233.327L140.205 234.18C139.547 234.351 138.724 234.521 138.066 234.521C137.408 234.521 136.585 234.521 136.42 234.18C136.256 233.839 136.42 232.986 136.749 232.303C137.078 231.621 137.572 231.109 138.066 230.597C139.547 229.914 141.028 229.402 142.509 229.232Z" fill="white"/>
<path d="M171.965 177.698C169.332 175.309 166.535 173.09 163.737 170.872C160.94 168.654 158.142 166.435 155.18 164.388C152.218 162.34 149.091 160.463 145.8 159.098C142.674 157.733 140.863 154.661 140.205 151.078C138.889 144.081 140.699 136.744 141.193 129.577C141.686 122.239 141.851 114.902 142.015 107.735V107.905C143.167 102.274 144.648 96.4722 146.458 91.0117C147.446 88.2814 148.433 85.5511 149.585 82.9915C150.902 80.4319 152.218 77.8722 154.193 75.8245L158.142 73.7768L154.193 75.6539C152.053 77.531 150.408 80.0906 149.091 82.8209C147.775 85.3805 146.623 88.1108 145.636 90.841C143.661 96.3016 142.015 101.933 140.699 107.735C140.534 115.072 140.205 122.239 139.547 129.577C139.218 133.16 138.889 136.744 138.56 140.498C138.23 144.081 138.066 147.835 138.889 151.59C139.218 153.467 139.876 155.344 141.028 156.879C141.522 157.733 142.18 158.415 143.003 159.098C143.825 159.61 144.484 160.292 145.471 160.463C148.762 161.657 151.724 163.364 154.851 165.241C160.611 169.166 166.206 173.432 171.965 177.698Z" fill="white"/>
<path d="M156.496 146.982C158.471 148.859 160.446 150.736 162.091 152.955C163.737 155.002 165.383 157.391 165.876 159.951C166.205 161.487 166.864 162.681 167.851 163.876C168.674 165.07 169.826 165.923 170.978 166.777C173.282 168.483 175.915 169.507 178.712 170.019C181.51 170.531 184.307 170.531 186.94 170.019C188.257 169.848 189.573 169.507 190.889 169.166C191.548 168.995 192.206 168.654 192.864 168.312C193.522 167.971 194.181 167.63 194.674 167.118C196.978 165.412 198.624 163.023 199.611 160.292C200.599 157.562 201.257 154.832 201.257 152.101C200.928 154.832 200.105 157.562 198.953 159.951C197.801 162.34 196.155 164.558 194.016 165.923C193.522 166.265 192.864 166.606 192.371 166.777C191.712 166.947 191.219 167.289 190.56 167.459C189.244 167.801 187.927 168.142 186.776 168.312C184.143 168.654 181.51 168.654 179.041 168.312C176.573 167.801 174.104 166.947 171.965 165.412C170.978 164.729 169.826 163.876 169.168 162.852C168.345 161.828 167.687 160.804 167.357 159.61C166.535 156.709 164.724 154.49 162.914 152.443C160.775 150.224 158.8 148.518 156.496 146.982Z" fill="white"/>
<path d="M178.054 187.083C183.155 192.714 188.586 198.004 194.345 202.953C200.105 207.901 206.194 212.509 212.611 216.434C215.903 218.481 219.358 220.017 222.65 221.553C225.941 223.259 229.232 224.966 232.359 227.013C233.181 227.525 233.84 228.037 234.498 228.72C235.156 229.232 235.814 230.085 235.65 230.426C235.65 230.597 235.321 230.938 234.992 230.938C234.662 231.109 234.169 231.109 233.84 231.109C233.017 231.109 232.029 231.109 231.042 230.938C227.422 230.597 223.637 229.744 220.017 229.061C223.637 230.085 227.257 231.109 230.878 231.791C231.865 231.962 232.688 232.133 233.675 232.133C234.662 232.133 235.979 232.303 236.637 230.767C236.966 229.914 236.473 229.402 236.308 228.89C235.979 228.378 235.65 228.037 235.321 227.696C234.662 227.013 233.84 226.331 233.017 225.819C229.89 223.6 226.599 221.894 223.143 220.188C219.852 218.481 216.396 216.945 213.27 214.898C206.852 211.144 200.928 206.536 195.003 201.758C189.244 197.322 183.649 192.202 178.054 187.083Z" fill="white"/>
<path d="M191.383 212.679C188.421 210.973 185.624 209.267 182.991 207.389C180.193 205.512 177.56 203.465 175.092 201.417C172.459 199.369 169.99 196.98 167.687 194.591C165.218 192.202 163.079 189.643 160.775 187.083C162.585 189.984 164.395 192.885 166.699 195.445C168.838 198.004 171.307 200.393 173.94 202.611C176.573 204.83 179.37 206.707 182.168 208.413C185.13 210.12 188.257 211.656 191.383 212.679Z" fill="white"/>
<path d="M181.674 176.845C183.484 177.186 185.459 177.527 187.269 177.868C189.08 178.21 191.054 178.722 192.864 179.063C196.485 179.916 200.27 180.94 203.725 182.134C207.346 183.329 210.801 184.694 214.257 186.23L216.89 187.424C217.713 187.766 218.536 188.278 219.359 188.789C221.169 189.643 222.65 190.666 224.46 191.52C221.498 188.96 218.207 186.912 214.751 185.035C211.295 183.158 207.839 181.793 204.055 180.599C200.434 179.404 196.649 178.38 192.864 177.868C189.244 177.186 185.459 176.674 181.674 176.845Z" fill="white"/>
<path d="M196.814 117.632C197.308 121.898 198.295 126.164 199.776 130.259C201.092 134.355 203.067 138.279 205.206 142.033C207.346 145.788 209.979 149.371 212.941 152.443C215.903 155.685 219.359 158.244 222.814 160.463C221.992 159.78 221.169 159.098 220.346 158.415L219.194 157.391L218.042 156.197L215.738 153.978L213.599 151.589C210.966 148.347 208.498 144.934 206.358 141.18C204.219 137.597 202.409 133.672 200.763 129.747C199.94 127.7 199.282 125.822 198.459 123.775C197.966 121.898 197.472 119.85 196.814 117.632Z" fill="white"/>
<path d="M215.08 154.149C218.042 160.463 221.333 166.777 224.953 172.92C228.409 179.063 232.03 185.035 236.144 191.008C238.118 193.909 240.258 196.81 242.397 199.54C244.536 202.27 246.84 204.83 248.979 207.731C251.119 210.461 253.093 213.362 254.739 216.433C255.562 217.969 256.384 219.505 256.878 221.041C257.207 221.894 257.372 222.747 257.536 223.43C257.701 224.283 257.865 225.136 257.701 225.648V225.819C257.865 228.89 258.688 231.791 260.334 234.351C261.815 236.91 264.283 238.958 266.916 240.153C268.233 240.835 269.549 241.177 271.03 241.688C272.511 241.859 273.828 242.2 275.309 242.371C278.106 242.712 280.904 242.883 283.701 243.054C286.499 243.054 289.296 243.054 292.259 242.2C292.917 242.03 293.74 241.688 294.398 241.177C294.727 240.835 295.056 240.494 295.385 239.982C295.55 239.47 295.55 238.788 295.385 238.276C295.056 237.252 294.398 236.74 294.069 236.228L292.752 234.521C292.259 234.01 291.929 233.498 291.765 232.815C291.6 232.303 291.436 231.791 291.436 231.109C291.436 229.744 291.929 228.208 291.436 226.501C291.271 225.648 290.448 224.795 289.626 224.454C288.803 224.112 287.98 224.112 287.322 223.942C286.663 223.942 286.005 223.771 285.347 223.6C285.018 223.6 284.689 223.43 284.524 223.259C284.36 223.259 284.36 223.089 284.195 223.089L284.031 222.918V223.089C283.537 221.894 282.879 221.211 282.22 220.358C281.562 219.676 280.904 218.822 280.081 218.311C278.6 216.945 277.119 215.751 275.473 214.727C272.511 212.509 269.878 209.608 267.574 206.536C262.967 200.393 259.676 193.226 257.043 185.889C255.726 182.134 254.739 178.38 253.587 174.626C252.6 170.872 251.448 166.947 249.967 163.364C248.486 159.61 246.84 156.197 244.865 152.784C242.891 149.371 240.587 146.129 237.789 143.569C240.587 146.3 242.726 149.542 244.701 152.955C246.675 156.368 248.156 159.951 249.637 163.705C252.435 171.043 253.587 178.892 256.22 186.4C258.853 193.909 261.979 201.246 266.752 207.56C269.056 210.802 271.689 213.703 274.98 216.092C276.461 217.287 278.106 218.311 279.423 219.676C280.081 220.358 280.739 221.041 281.398 221.723C282.056 222.406 282.549 223.259 282.879 223.942V224.112C283.372 224.795 283.701 224.966 284.031 225.136C284.36 225.307 284.853 225.477 285.182 225.648C286.005 225.819 286.663 225.989 287.322 225.989C288.638 225.989 289.79 226.331 290.119 227.355C290.284 227.866 290.284 228.549 290.284 229.232C290.284 229.914 290.119 230.597 290.119 231.45C290.119 232.133 290.119 233.156 290.448 234.01C290.777 234.863 291.271 235.375 291.6 236.057C292.094 236.569 292.423 237.252 292.917 237.764C293.41 238.276 293.74 238.788 293.904 239.299C294.069 239.641 293.904 239.982 293.575 240.323C293.081 240.665 292.588 240.835 291.929 241.006C289.461 241.688 286.663 241.688 283.866 241.688C281.068 241.688 278.435 241.347 275.638 241.177C274.321 241.006 273.005 240.835 271.524 240.494C270.207 240.153 268.891 239.811 267.739 239.129C265.271 237.934 263.131 236.228 261.815 233.839C260.334 231.621 259.511 228.72 259.347 226.16V226.331C259.511 225.136 259.346 224.283 259.182 223.259C259.017 222.406 258.688 221.382 258.359 220.529C257.701 218.822 256.878 217.116 256.055 215.58C254.245 212.509 252.27 209.608 250.131 206.707C247.992 203.977 245.523 201.246 243.384 198.687C241.08 195.956 239.106 193.226 236.966 190.325C232.852 184.523 229.067 178.722 225.447 172.578C221.827 166.606 218.371 160.463 215.08 154.149Z" fill="white"/>
<path d="M203.067 137.426C196.978 136.573 191.383 133.16 188.092 128.041C186.447 125.481 184.965 122.58 184.307 119.679C183.484 116.608 183.32 113.536 183.814 110.465C184.636 104.322 187.434 98.6905 190.725 93.4007C191.219 92.7181 191.548 92.0355 192.042 91.3529C192.371 90.6704 192.7 89.9878 193.193 89.4759C194.016 88.2814 195.004 87.0869 195.991 85.7218C197.966 83.3328 199.94 80.9438 202.08 78.7254L201.257 78.8961C207.017 81.6264 212.282 85.7218 216.726 90.4997C221.169 95.2777 224.624 101.08 227.093 107.223C229.561 113.366 231.536 119.85 233.346 126.335C235.156 132.819 236.802 139.303 237.789 145.958C237.131 139.303 235.65 132.648 234.004 125.993C232.359 119.509 230.384 113.024 228.08 106.711C225.776 100.397 222.156 94.4245 217.548 89.4759C213.105 84.5273 207.839 80.2612 201.586 77.3603L201.092 77.1897L200.763 77.7016C198.624 80.0906 196.649 82.3089 194.675 84.8686C193.687 86.063 192.7 87.2575 191.877 88.6227C191.383 89.3052 191.054 89.9878 190.561 90.6704C190.231 91.3529 189.738 92.0355 189.409 92.7181C186.117 98.008 183.155 103.98 182.497 110.465C181.839 116.949 183.649 123.604 187.434 128.724C191.054 133.501 196.978 136.914 203.067 137.426Z" fill="white"/>
<path d="M182.991 85.8923C180.851 91.1822 179.535 96.8134 178.548 102.445C177.56 108.076 177.396 113.878 177.231 119.679C177.067 122.58 177.066 125.481 176.408 128.041C176.079 129.406 175.585 130.6 174.763 131.624C173.94 132.648 172.953 133.331 171.636 133.672C170.484 134.184 169.168 134.184 167.851 134.184C166.535 134.013 165.218 133.843 164.066 133.16C161.598 132.136 159.459 130.43 157.813 128.212C154.357 123.945 152.547 118.485 152.218 112.854C151.889 107.223 152.547 101.421 154.193 96.1308C155.838 90.6703 158.636 85.7217 159.788 79.9199C160.281 77.0189 160.611 74.2887 160.94 71.3878C161.269 68.4868 161.598 65.5859 161.598 62.8557C160.94 68.4868 160.117 74.2887 158.965 79.9199C157.648 85.551 154.851 90.4996 152.876 95.9602C150.901 101.421 150.243 107.393 150.572 113.195C150.901 118.997 152.712 124.969 156.332 129.577C158.142 131.795 160.446 133.843 163.243 134.867C164.56 135.549 166.041 135.72 167.522 135.89C169.003 135.89 170.484 135.89 171.965 135.208C173.282 134.696 174.763 133.843 175.75 132.648C176.737 131.454 177.231 129.918 177.56 128.553C178.218 125.652 178.218 122.751 178.218 119.85C178.218 108.417 179.206 96.8134 182.991 85.8923Z" fill="white"/>
<path d="M292.258 242.542C292.258 245.443 293.575 248.173 295.385 250.391C297.195 252.61 299.335 254.487 301.803 256.022C302.955 256.876 304.271 257.388 305.423 258.07C306.74 258.582 307.892 259.265 309.208 259.606C310.525 259.947 311.841 260.459 313.158 260.8C314.474 261.142 315.791 261.312 317.272 261.654C315.955 261.142 314.803 260.63 313.487 260.118C312.17 259.606 311.018 258.923 309.702 258.411L306.082 256.705C304.93 256.022 303.778 255.51 302.626 254.657C300.322 253.292 298.183 251.586 296.372 249.709C295.385 248.685 294.562 247.661 293.904 246.466C293.081 245.272 292.588 243.907 292.258 242.542Z" fill="white"/>
<path d="M277.613 242.542C279.094 244.248 280.739 245.955 282.056 247.832C283.537 249.538 284.853 251.415 286.334 253.292C288.967 257.046 291.436 260.971 293.575 264.896C295.714 268.991 297.36 273.257 298.676 277.694L299.499 281.107C299.828 282.301 299.828 283.325 299.993 284.52C300.486 286.738 300.322 289.127 300.651 291.516C301.145 286.909 300.98 282.131 299.828 277.523C298.676 272.916 297.031 268.479 294.891 264.213C292.752 260.118 290.119 256.193 287.157 252.61C284.36 248.855 281.233 245.443 277.613 242.542Z" fill="white"/>
<path d="M297.854 252.098C297.525 251.244 296.373 250.562 295.221 250.732C294.069 250.903 293.246 251.586 292.588 252.268C291.271 253.804 290.448 255.51 290.119 257.558C290.778 256.876 291.436 256.193 291.93 255.51C292.423 254.828 293.081 254.145 293.575 253.633C294.069 253.121 294.727 252.439 295.385 252.268C296.208 251.756 297.031 251.756 297.854 252.098Z" fill="white"/>
<path d="M326.487 258.241C316.778 262.677 308.715 270.527 303.613 280.083L301.803 283.666C301.145 284.861 300.816 286.226 300.322 287.42C299.17 289.98 298.841 292.71 298.018 295.27C297.689 296.635 297.689 298 297.36 299.365C297.195 300.731 297.031 302.096 296.866 303.461C296.866 306.191 296.702 308.921 296.702 311.652C296.866 314.382 297.031 317.112 297.36 319.842C297.854 322.573 298.347 325.303 299.17 327.863C300.816 333.153 303.778 337.931 307.892 341.685C309.866 343.562 312.17 345.097 314.639 346.292C317.107 347.486 319.576 348.34 322.208 349.022C327.474 350.217 332.905 350.046 338.171 349.022C343.437 347.828 348.538 345.609 352.652 342.026C354.791 340.319 356.602 338.101 357.918 335.542C358.576 334.347 359.07 333.152 359.728 331.787C360.222 330.593 360.88 329.228 361.374 328.033C363.349 322.914 364.83 317.624 365.652 312.164C366.64 306.703 367.133 301.242 366.969 295.782C366.804 290.321 365.981 284.69 364.171 279.571C362.361 274.452 358.905 270.015 355.12 266.261C351.171 262.677 346.563 259.606 341.627 257.899C339.158 257.046 336.525 256.364 333.892 256.364C331.424 256.534 328.791 257.046 326.487 258.241ZM326.487 258.241C328.791 256.876 331.588 256.534 334.221 256.705C336.854 256.705 339.487 257.388 341.956 258.241C346.892 259.947 351.5 263.019 355.45 266.602C359.07 270.356 362.361 274.964 364.007 280.083C365.652 285.202 366.311 290.663 366.475 296.123C366.475 307.044 364.336 317.795 360.386 327.863C359.893 329.057 359.399 330.422 358.741 331.617C358.247 332.811 357.589 334.006 356.931 335.2C355.779 337.589 353.969 339.466 351.994 341.173C348.044 344.586 343.108 346.633 338.006 347.657C332.905 348.681 327.639 348.852 322.702 347.828C320.234 347.316 317.765 346.463 315.462 345.268C313.158 344.074 310.854 342.708 309.044 341.002C305.094 337.589 302.132 332.982 300.487 327.863C299.499 325.303 299.006 322.743 298.512 320.013C298.183 317.283 298.018 314.553 297.689 311.993C297.524 309.263 297.689 306.532 297.689 303.802C297.689 302.437 298.018 301.072 298.183 299.707C298.347 298.342 298.347 296.976 298.676 295.611C299.335 293.052 299.664 290.321 300.816 287.762C301.309 286.567 301.638 285.202 302.132 284.008L303.942 280.424C308.879 270.698 316.778 262.848 326.487 258.241Z" fill="white"/>
<path d="M363.513 299.195C363.019 301.413 362.361 303.802 361.703 306.02C361.045 308.239 360.387 310.457 359.728 312.675C358.247 317.112 356.602 321.378 354.298 325.474C352.158 329.569 349.526 333.323 346.234 336.395C342.943 339.466 338.5 341.173 333.892 341.173C336.196 341.514 338.5 341.343 340.804 340.661C343.108 339.978 345.082 338.784 347.057 337.418C350.842 334.518 353.64 330.422 355.779 326.327C357.918 322.061 359.564 317.624 360.88 313.017C362.197 308.58 363.184 303.973 363.513 299.195Z" fill="white"/>
<path d="M357.754 302.778C356.273 299.024 354.791 295.441 353.146 291.857C351.5 288.274 349.855 284.69 348.044 281.107C346.234 277.523 344.589 274.11 342.614 270.527L339.817 265.237C338.829 263.531 337.842 261.824 336.854 260.118C337.513 261.995 338.335 263.872 339.158 265.578L341.627 271.039C343.272 274.622 344.918 278.206 346.728 281.789C348.538 285.373 350.184 288.786 352.159 292.369C353.804 295.953 355.614 299.365 357.754 302.778Z" fill="white"/>
<path d="M331.095 264.213C332.74 268.82 334.386 273.428 336.196 278.035C338.006 282.642 339.816 287.25 341.627 291.686C343.601 296.294 345.411 300.73 347.551 305.167L350.677 311.822C351.829 314.041 352.817 316.259 353.804 318.477C352.981 316.088 352.158 313.87 351.336 311.481L348.703 304.655C346.893 300.048 345.082 295.441 343.272 291.004C341.297 286.397 339.487 281.96 337.348 277.523C335.373 273.087 333.399 268.65 331.095 264.213Z" fill="white"/>
<path d="M324.512 265.578C325.829 270.015 327.145 274.452 328.626 278.888C330.107 283.325 331.588 287.591 333.234 292.028C334.88 296.294 336.361 300.731 338.171 304.997L340.804 311.481C341.791 313.529 342.614 315.747 343.601 317.795C342.943 315.576 342.285 313.358 341.627 311.14L339.487 304.485C338.006 300.048 336.525 295.782 334.88 291.345C333.234 287.079 331.753 282.643 329.943 278.376C328.133 273.94 326.487 269.674 324.512 265.578Z" fill="white"/>
<path d="M318.259 269.674C319.411 275.134 320.892 280.595 322.373 286.055C323.854 291.516 325.335 296.976 326.816 302.266C328.462 307.727 329.943 313.017 331.588 318.477L334.057 326.497C335.044 329.228 335.867 331.787 336.69 334.518C336.032 331.787 335.373 329.057 334.715 326.327L332.576 318.136C331.095 312.675 329.614 307.215 328.133 301.925C326.487 296.464 325.006 291.174 323.36 285.714C321.715 280.253 320.069 274.964 318.259 269.674Z" fill="white"/>
<path d="M315.132 288.615C315.955 294.929 317.107 300.901 318.588 307.044C320.069 313.187 321.55 319.16 323.689 325.132C322.867 318.819 321.715 312.846 320.234 306.703C318.753 300.56 317.107 294.587 315.132 288.615Z" fill="white"/>
<path d="M308.55 303.973C309.044 309.945 309.867 315.747 311.018 321.549C312.17 327.351 313.322 333.153 315.132 338.784C314.639 332.811 313.816 327.009 312.664 321.208C311.512 315.406 310.36 309.604 308.55 303.973Z" fill="white"/>
<path d="M349.526 271.38C342.943 273.428 336.69 275.817 330.272 278.376C324.019 280.936 317.765 283.666 311.677 286.908C318.259 284.861 324.512 282.472 330.93 279.912C337.348 277.352 343.601 274.622 349.526 271.38Z" fill="white"/>
<path d="M353.804 281.619C349.525 283.154 345.082 284.861 340.968 286.567C336.69 288.274 332.411 290.151 328.297 292.028C324.019 293.905 319.905 295.782 315.626 297.829L309.373 300.901C307.234 301.925 305.259 302.949 303.12 304.143C305.259 303.461 307.398 302.607 309.537 301.754L315.955 299.195C320.234 297.488 324.512 295.611 328.626 293.734C332.905 291.857 337.019 289.98 341.297 287.932C345.576 285.714 349.69 283.666 353.804 281.619Z" fill="white"/>
<path d="M359.893 294.417C355.285 296.294 350.677 298.512 346.07 300.56C341.462 302.607 337.019 304.826 332.411 307.215C327.968 309.433 323.36 311.822 318.917 314.211L312.17 317.795C310.031 318.989 307.727 320.184 305.588 321.549C307.892 320.525 310.196 319.501 312.499 318.477L319.411 315.235C324.019 313.187 328.462 310.969 333.069 308.58C337.513 306.362 342.12 303.973 346.563 301.584C351.171 299.365 355.614 296.976 359.893 294.417Z" fill="white"/>
<path d="M339.816 321.378C334.551 322.743 329.449 324.62 324.348 326.497C319.246 328.545 314.31 330.593 309.373 333.152C314.639 331.787 319.74 330.081 324.841 328.033C329.943 326.156 335.044 323.938 339.816 321.378Z" fill="white"/>
<path d="M141.192 109.782C138.395 109.441 135.597 109.441 132.964 109.441C130.167 109.441 127.534 109.441 124.736 109.782C127.369 110.806 130.167 111.147 132.964 111.147C135.762 110.977 138.559 110.635 141.192 109.782Z" fill="white"/>
<path d="M130.002 103.81C123.914 110.123 116.673 115.243 108.939 118.997C104.989 120.874 101.04 122.41 96.9258 123.604C92.8118 124.969 88.6978 126.334 84.5838 127.7C80.4698 129.235 76.5203 130.942 72.5709 133.16C68.786 135.378 65.1657 137.938 61.8745 140.839C58.5833 143.74 55.2921 146.811 52.6591 150.566C50.0262 154.149 47.7223 158.074 46.735 162.852L47.2286 162.169C46.0767 162.34 44.9248 162.169 44.102 161.316C43.2792 160.463 43.1146 159.268 42.9501 157.903C42.9501 155.173 43.4438 152.443 43.7729 149.712C43.9374 148.347 44.102 146.811 43.9374 145.276C43.9374 144.593 43.6083 143.74 43.2792 143.057C42.9501 142.375 42.2919 141.692 41.6336 141.18C40.3171 140.327 38.8361 139.986 37.5196 139.645C36.2031 139.474 34.7221 139.133 33.4056 139.133C27.9751 138.621 22.5446 138.279 17.1142 138.279C15.7977 138.279 14.3166 138.279 13.0002 138.45C11.6837 138.45 10.3672 138.45 9.05072 138.45C7.73424 138.279 6.41776 138.279 5.26584 137.767C5.10128 137.767 5.10127 137.597 5.10127 137.597C4.93671 137.426 4.93671 137.426 4.77215 137.256C4.60759 137.085 4.44303 136.744 4.27847 136.573C3.94935 136.061 3.62024 135.378 3.29112 134.867L2.63287 136.061L19.7471 134.867L34.7221 133.672L35.874 133.501C36.2031 133.501 36.8614 133.331 37.0259 133.331C38.1778 132.989 39.6589 132.648 41.1399 132.307C42.4564 131.966 43.9374 131.624 45.2539 131.283C48.0514 130.601 50.6844 129.577 53.4819 128.723C56.1149 127.7 58.7479 126.505 61.3808 125.14C63.8492 123.775 66.3176 122.068 68.6214 120.021L70.1025 118.314C70.5962 117.802 71.0899 117.12 71.5835 116.608L74.3811 113.195C76.1912 110.977 78.0014 108.758 79.9761 106.711C83.9255 102.445 88.5332 99.2024 93.7991 96.8134C98.9005 94.4244 104.496 93.2299 110.091 92.0354C115.686 90.841 121.281 89.6465 126.876 89.1345H127.04L127.205 88.9639C128.521 86.5749 130.496 84.3566 132.471 82.4795C134.61 80.6024 136.914 79.0667 139.547 77.8722C142.18 76.6777 144.813 75.8245 147.61 75.4832C148.927 75.1419 150.408 75.1419 151.724 74.9713C153.041 74.9713 154.522 74.9713 155.838 74.9713C154.522 74.9713 153.041 74.8006 151.724 74.8006C150.408 74.9712 148.927 74.9712 147.61 75.1419C144.813 75.4832 142.18 76.3364 139.547 77.3602C136.914 78.5547 134.61 80.0905 132.306 81.9676C130.167 83.8446 128.192 86.063 126.711 88.6226L127.04 88.452C121.281 88.7932 115.686 89.8171 110.091 91.0116C104.496 92.2061 98.9005 93.4006 93.6346 95.7896C88.3686 98.0079 83.4319 101.591 79.4824 105.687C77.5077 107.734 75.533 109.953 73.7228 112.171L70.9253 115.584C70.4316 116.096 69.9379 116.779 69.6088 117.29L68.1278 118.826C65.9885 120.703 63.6846 122.239 61.2162 123.604C58.7478 124.969 56.1149 125.993 53.4819 127.017C50.849 128.041 48.0514 128.894 45.4185 129.577C44.102 129.918 42.621 130.259 41.3045 130.601C39.8234 130.942 38.6715 131.112 37.0259 131.624C36.5322 131.795 36.5322 131.795 36.2031 131.795L35.2158 131.966L20.2408 133.16L3.29112 134.355H1.97464L2.46832 135.549C2.79744 136.232 3.12656 136.914 3.62024 137.426C3.7848 137.767 4.11391 138.109 4.27847 138.279C4.44303 138.45 4.60759 138.621 4.77215 138.791C4.93671 138.962 5.26585 139.133 5.43041 139.133C6.91145 139.815 8.22791 139.815 9.70895 139.986C11.0254 140.156 12.5065 140.156 13.823 139.986C15.304 139.986 16.4559 139.815 17.937 139.815C23.3674 139.815 28.7979 139.986 34.0638 140.498C35.3803 140.668 36.6968 140.839 38.0133 141.01C39.3298 141.351 40.6462 141.522 41.469 142.204C42.4564 142.887 42.9501 143.911 42.9501 145.276C43.1146 146.47 42.9501 148.006 42.7855 149.371C42.4564 152.101 41.9627 155.002 41.9627 157.903C41.9627 159.439 42.2918 160.975 43.4438 162.34C44.5957 163.534 46.4058 163.876 47.8869 163.534L48.3806 163.364L48.5451 162.852C48.8742 160.804 49.6971 158.756 50.6844 156.879C51.6718 155.002 52.8237 153.125 54.1402 151.248C56.6086 147.665 59.7352 144.593 63.0264 141.692C66.3176 138.791 69.7734 136.232 73.5582 134.013C77.3431 131.795 81.2926 130.089 85.242 128.553C89.356 127.017 93.47 125.652 97.4194 124.287C101.533 122.922 105.647 121.386 109.432 119.338C116.838 115.584 123.914 110.294 130.002 103.81Z" fill="white"/>
<path d="M74.5457 132.819C74.7103 131.454 74.5457 130.089 74.052 128.894C73.7229 127.7 73.2292 126.334 72.4064 125.311C71.7482 124.116 70.7608 123.263 69.7734 122.41C68.7861 121.556 67.4696 121.215 66.1531 121.045C67.1405 121.898 68.1278 122.58 68.9506 123.434C69.7734 124.287 70.4317 125.311 71.0899 126.334C72.4064 128.211 73.3938 130.43 74.5457 132.819Z" fill="white"/>
<path d="M24.0258 139.303C22.051 140.157 20.0763 141.18 18.1016 142.034L12.1774 144.935L6.25329 147.665C5.26593 148.177 4.27856 148.518 3.2912 149.03C2.79752 149.201 2.30384 149.542 1.6456 149.883C1.15192 150.224 0.658225 150.566 0.164545 151.419C-1.50671e-05 151.59 0 151.931 0 152.272C0 152.613 0.164555 152.784 0.329115 153.125C0.493675 153.296 0.65824 153.467 0.8228 153.637L1.31649 153.979C1.97473 154.149 2.63295 154.32 3.12663 154.32C4.27855 154.32 5.43048 154.32 6.5824 153.979C8.72168 153.467 10.861 152.784 12.8357 152.101C16.9497 150.566 20.8991 148.689 24.684 146.641C22.7093 147.324 20.57 148.177 18.5953 148.859C16.6206 149.542 14.4813 150.224 12.5065 150.907C10.5318 151.59 8.39255 152.101 6.41783 152.443C5.43047 152.613 4.44311 152.784 3.45575 152.613C2.96207 152.613 2.46841 152.443 2.13929 152.272C2.13929 152.272 1.97472 152.272 1.97472 152.101C1.97472 152.101 1.97471 152.101 1.81015 152.101C1.81015 151.931 2.30383 151.59 2.63295 151.419C2.96207 151.078 3.45575 150.907 3.94943 150.736C4.93679 150.224 5.92416 149.883 6.91152 149.371C8.88624 148.347 10.6964 147.324 12.6711 146.3C16.6206 143.74 20.4054 141.522 24.0258 139.303Z" fill="white"/>
<path d="M28.3042 145.958C27.9751 145.958 27.646 146.47 27.3168 146.641C26.9877 146.982 26.8232 147.153 26.494 147.494L24.8484 149.371C23.6965 150.566 22.7092 151.931 21.7218 153.125C19.7471 155.685 17.7724 158.244 15.7976 160.975L15.304 161.657L16.1268 161.999C17.6078 162.852 19.0889 163.022 20.5699 162.681C22.0509 162.51 23.532 161.657 24.6839 160.633C25.8358 159.61 26.6586 158.244 27.3168 157.05C27.9751 155.855 28.6333 154.32 28.9624 152.955C29.127 152.272 29.2916 151.76 29.6207 151.248C29.9498 150.736 30.4435 150.395 30.9372 149.883C32.0891 149.03 33.241 148.347 34.3929 147.835C36.8613 146.811 39.6589 146.299 42.2918 146.641C39.6589 145.788 36.6968 145.958 34.0638 146.811C32.7473 147.323 31.4309 148.006 30.2789 148.688C29.6207 149.03 29.127 149.542 28.4688 150.224C27.9751 150.907 27.646 151.76 27.4814 152.272C26.9877 153.637 26.4941 154.832 25.8358 156.026C25.1776 157.221 24.3548 158.244 23.532 159.268C22.5446 160.121 21.5572 160.804 20.4053 160.975C19.2534 161.145 17.9369 160.975 16.9496 160.463L17.1141 161.657L22.5446 153.637L25.3421 149.542L26.8232 147.494L27.4814 146.47C27.8105 146.47 27.9751 146.129 28.3042 145.958Z" fill="white"/>
<path d="M204.219 14.9053C201.257 10.9805 197.307 8.07963 193.193 5.69065C188.915 3.30166 184.472 1.76588 179.699 0.912673C174.927 0.0594634 170.155 -0.111178 165.383 0.0594635C162.914 0.230105 160.61 0.742031 158.307 1.76588C156.003 2.78973 154.028 4.49615 152.547 6.54386C151.066 8.59156 149.914 10.8099 148.927 13.1989C148.104 15.5879 147.61 17.9769 147.281 20.5365C146.623 25.4851 146.623 30.4337 146.952 35.3823C147.281 40.331 148.104 45.2796 149.256 50.0575C149.585 51.252 149.914 52.4465 150.243 53.641C150.408 53.9823 150.408 54.3236 150.737 54.6649C150.901 55.0062 151.066 55.1768 151.395 55.5181L152.547 56.8832C154.193 58.7603 155.838 60.4667 157.484 62.3438C160.775 65.9272 164.231 69.3401 167.851 72.5823C171.471 75.8245 175.092 79.0667 179.041 81.9676C181.016 83.3327 183.155 84.6979 185.624 85.3804C188.257 85.8923 190.89 85.0391 192.864 83.5034C196.978 80.6024 199.776 76.3364 202.08 71.8997C203.232 69.6814 204.219 67.463 204.877 64.9034C205.535 62.5144 205.865 59.9548 205.7 57.3951C205.535 54.8355 205.042 52.4465 205.042 50.0575C204.877 47.6686 205.7 45.4502 206.687 43.0612C207.51 40.8429 208.497 38.4539 209.156 36.0649C209.814 33.6759 209.979 31.1163 209.156 28.7273C207.51 24.12 205.865 19.5126 204.219 14.9053ZM204.219 14.9053C205.7 19.5126 207.181 24.2906 208.333 29.0686C208.991 31.4576 208.827 33.8466 208.168 36.2355C207.51 38.6245 206.523 40.8429 205.535 43.0612C204.548 45.2796 203.725 47.6686 203.725 50.3988C203.725 52.9585 204.219 55.3474 204.219 57.7364C204.383 60.1254 204.054 62.5144 203.396 64.9034C202.738 67.1217 201.751 69.3401 200.599 71.5584C198.295 75.8245 195.497 79.9199 191.712 82.4795C189.902 83.8446 187.598 84.5272 185.624 84.0153C183.484 83.5034 181.51 82.1382 179.535 80.7731C175.75 78.0428 172.13 74.8006 168.674 71.5584C165.218 68.3162 161.762 64.9034 158.471 61.3199C156.826 59.6135 155.18 57.7364 153.534 56.03C152.876 55.0062 151.889 54.3236 151.56 53.2997C151.231 52.2759 150.901 51.0814 150.572 49.8869C149.42 45.1089 148.598 40.331 148.268 35.553C147.939 30.775 147.775 25.8264 148.433 21.0484C149.091 16.2704 150.408 11.4925 153.37 7.73835C154.851 5.86129 156.496 4.32551 158.636 3.30166C160.775 2.27781 162.914 1.76588 165.218 1.59524C169.99 1.25396 174.598 1.4246 179.37 2.10717C183.978 2.78973 188.586 4.32551 192.864 6.54386C197.143 8.42092 201.092 11.1512 204.219 14.9053Z" fill="white"/>
<path d="M178.218 16.2706C176.244 16.0999 174.269 16.6118 172.459 17.4651C170.649 18.3183 169.003 19.5128 167.522 21.0485C164.56 23.9495 162.585 27.7036 160.94 31.2871C160.117 33.1641 159.459 35.0412 158.8 36.9182C158.142 38.7953 157.648 40.843 157.155 42.7201C156.99 43.7439 156.661 44.5971 156.167 45.4503C155.674 46.3035 155.015 46.8155 154.193 47.3274C153.37 47.8393 152.547 48.1806 151.56 48.5219C151.066 48.6925 150.572 48.8632 150.243 48.8632C150.079 48.8632 149.749 48.8632 149.585 48.6925C149.42 48.5219 149.256 48.3512 149.42 48.01C149.42 48.1806 149.42 48.5219 149.585 48.6925C149.749 48.8632 150.079 49.0338 150.243 49.0338C150.737 49.0338 151.231 49.0338 151.724 49.0338C152.712 48.8632 153.699 48.5219 154.522 48.1806C155.509 47.8393 156.332 47.1567 156.99 46.1329C157.648 45.2797 157.978 44.2558 158.307 43.232C159.459 39.3072 160.775 35.5531 162.256 31.9696C163.737 28.2155 165.712 24.8027 168.18 21.9017C169.497 20.5366 170.978 19.1715 172.623 18.1476C174.434 17.1238 176.244 16.4412 178.218 16.2706Z" fill="white"/>
<path d="M204.054 23.2667C199.118 20.7071 193.358 19.1713 187.763 19.342C184.965 19.5126 182.003 20.1952 179.37 21.731C176.902 23.2667 174.763 25.8264 173.282 28.0447C169.991 32.652 166.699 37.43 163.408 42.0373C161.762 44.2557 159.952 46.6447 157.978 48.5217C156.99 49.5456 155.838 50.2282 154.686 50.9107C153.37 51.5933 152.218 52.1052 150.902 52.7878C152.218 52.2759 153.535 51.7639 154.851 51.252C156.167 50.7401 157.484 50.0575 158.636 49.0337C160.775 47.1566 162.75 44.9383 164.56 42.7199C168.18 38.2832 171.472 33.5053 174.763 28.8979C176.408 26.5089 178.054 24.4612 180.358 22.9255C182.662 21.3897 185.295 20.7071 187.928 20.5365C190.561 20.1952 193.358 20.5365 196.156 21.0484C198.624 21.5603 201.421 22.4135 204.054 23.2667Z" fill="white"/>
<path d="M146.294 24.6318C143.332 25.1437 140.534 26.3382 138.23 28.3859C137.078 29.4098 136.091 30.7749 135.433 32.3107C134.939 33.8465 134.61 35.5529 134.939 37.2593C135.268 40.5015 137.078 43.5731 139.711 45.2795C142.344 46.9859 145.471 47.6685 148.269 47.3272C145.306 46.8153 142.674 45.7914 140.37 44.085C139.218 43.2318 138.395 42.2079 137.737 41.0134C137.408 40.5015 137.243 39.8189 136.914 39.1364C136.749 38.4538 136.585 37.7712 136.42 37.0887C136.256 35.7235 136.42 34.3584 136.749 32.9933C137.243 31.6281 138.066 30.6043 138.889 29.4098C139.876 28.3859 141.028 27.5327 142.18 26.6795C143.661 25.8263 144.977 25.3144 146.294 24.6318Z" fill="white"/>
<path d="M130.167 28.3859C126.876 27.874 123.42 27.874 120.129 28.3859C116.838 28.8978 113.382 29.751 110.42 31.4575C107.293 33.1639 104.66 35.3822 102.356 37.9419L100.711 39.9896C100.217 40.6721 99.7234 41.5253 99.3942 42.2079C98.4069 43.7437 97.9132 45.4501 97.255 46.9859C96.2676 50.3987 95.6094 53.9822 95.9385 57.5657V58.9308L96.103 60.296C96.2676 61.1492 96.2676 62.0024 96.4322 63.0262C96.7613 64.7326 97.255 66.4391 97.7486 68.1455C99.8879 74.9712 103.344 81.1143 107.622 86.5748L109.597 89.1344L108.939 85.8922C107.951 80.773 107.622 75.4831 108.61 70.3638C109.103 67.8042 110.091 65.4152 111.407 63.3675C112.724 61.3198 114.863 59.784 117.167 58.7602C121.774 56.7125 126.876 56.3712 131.977 56.0299C134.446 55.6886 137.243 55.3473 139.382 53.8116C141.686 52.2758 142.509 49.5455 143.167 46.9859C142.509 49.5455 141.357 52.1051 139.218 53.4703C137.078 54.8354 134.446 55.1767 131.977 55.3473C126.876 55.518 121.61 55.6886 116.673 57.7363C114.205 58.7602 111.901 60.296 110.255 62.5143C108.61 64.7326 107.622 67.4629 107.129 70.0225C106.47 72.7528 106.47 75.4831 106.47 78.0427C106.47 80.773 106.799 83.3326 107.293 86.0629L108.61 85.3803C106.47 82.8207 104.66 79.7491 103.015 76.8482C101.369 73.7767 100.052 70.7051 98.9006 67.4629C98.2423 65.9271 97.9132 64.2207 97.5841 62.5143C97.4195 61.6611 97.255 60.8079 97.255 59.9547L97.0904 58.7602V57.5657C96.7613 54.1528 97.4195 50.74 98.2423 47.4978C98.9006 45.962 99.3942 44.2556 100.217 42.8905C100.711 42.2079 100.875 41.3547 101.534 40.6721L103.015 38.6244C105.154 36.0648 107.787 33.8465 110.584 32.14C116.508 29.0685 123.42 27.874 130.167 28.3859Z" fill="white"/>
<path d="M135.597 36.4063C133.787 35.0412 131.319 34.188 129.015 34.0173C126.711 33.676 124.243 34.0173 121.939 34.6999C119.635 35.3825 117.496 36.577 115.686 37.9421C114.698 38.6247 113.875 39.4779 113.053 40.1604C112.23 41.0136 111.407 41.8669 110.584 42.7201C112.559 41.5256 114.534 40.1604 116.344 38.9659C118.319 37.7714 120.293 36.9182 122.433 36.2357C124.572 35.5531 126.711 35.2118 129.015 35.2118C131.154 35.3825 133.458 35.5531 135.597 36.4063Z" fill="white"/>
<path d="M140.041 44.597C138.559 45.2796 137.078 45.9622 135.597 46.4741C134.116 46.986 132.635 47.6686 131.154 48.1805C129.673 48.6924 128.192 49.2044 126.547 49.5457C125.066 50.0576 123.42 50.3989 121.939 50.9108C125.23 51.2521 128.521 50.7401 131.648 49.7163C133.129 49.2044 134.775 48.5218 136.091 47.6686C137.572 46.8154 138.889 45.7915 140.041 44.597Z" fill="white"/>
<path d="M136.585 40.331L131.483 41.8668C130.661 42.2081 129.838 42.3787 129.015 42.72C128.192 43.0613 127.369 43.2319 126.382 43.7438C128.192 44.2558 130.167 44.0851 131.977 43.5732C132.8 43.2319 133.787 42.8906 134.61 42.3787C135.268 41.6961 136.091 41.1842 136.585 40.331Z" fill="white"/>
</svg>
